<svg xmlns="http://www.w3.org/2000/svg" xmlns:xlink="http://www.w3.org/1999/xlink" width="14" height="14" viewBox="0 0 14 14">
    <defs>
        <path id="0u29xwynqa" d="M7 0c3.866 0 7 3.134 7 7s-3.134 7-7 7-7-3.134-7-7 3.134-7 7-7zm0 1.273C3.837 1.273 1.273 3.837 1.273 7c0 3.163 2.564 5.727 5.727 5.727 3.163 0 5.727-2.564 5.727-5.727 0-3.163-2.564-5.727-5.727-5.727zM8.46 4.64c.248-.249.65-.249.9 0 .248.248.248.651 0 .9L7.9 7l1.46 1.46c.223.223.245.572.066.82l-.067.08c-.248.248-.651.248-.9 0L7 7.9 5.54 9.36c-.223.223-.572.245-.82.066l-.08-.067c-.248-.248-.248-.651 0-.9L6.1 7 4.64 5.54c-.223-.223-.245-.572-.066-.82l.067-.08c.248-.248.651-.248.9 0L7 6.1z"/>
    </defs>
    <g fill="none" fill-rule="evenodd">
        <g>
            <g transform="translate(-1064 -12) translate(1064 12)">
                <use fill="#000" fill-rule="nonzero" xlink:href="#0u29xwynqa"/>
            </g>
        </g>
    </g>
</svg>
