<svg xmlns="http://www.w3.org/2000/svg" xmlns:xlink="http://www.w3.org/1999/xlink" width="18" height="13" viewBox="0 0 18 13">
    <defs>
        <path id="ofv9l9uqza" d="M8.667 0c2.44 0 4.578 1.179 6.395 3.117.624.666 1.166 1.377 1.625 2.088.278.43.469.769.57.972.102.203.102.443 0 .646-.101.203-.292.542-.57.972-.459.711-1.001 1.422-1.625 2.088C13.245 11.82 11.108 13 8.667 13c-2.441 0-4.578-1.179-6.395-3.117-.625-.666-1.167-1.377-1.626-2.088-.278-.43-.468-.769-.57-.972-.101-.203-.101-.443 0-.646.102-.203.292-.542.57-.972.46-.711 1.001-1.422 1.626-2.088C4.089 1.18 6.226 0 8.667 0zm0 1.444c-1.983 0-3.773.988-5.342 2.661-.56.598-1.05 1.241-1.466 1.884-.118.182-.222.354-.313.511.091.157.195.329.313.511.415.643.906 1.286 1.466 1.884 1.569 1.673 3.359 2.66 5.342 2.66 1.982 0 3.772-.987 5.34-2.66.561-.598 1.052-1.241 1.467-1.884.118-.182.222-.354.313-.511-.09-.157-.195-.329-.313-.511-.415-.643-.906-1.286-1.466-1.884-1.569-1.673-3.359-2.66-5.341-2.66zm0 2.167c1.595 0 2.889 1.294 2.889 2.889 0 1.595-1.294 2.889-2.89 2.889-1.595 0-2.888-1.294-2.888-2.889 0-1.595 1.293-2.889 2.889-2.889zm0 1.445c-.798 0-1.445.646-1.445 1.444 0 .798.647 1.444 1.445 1.444.797 0 1.444-.646 1.444-1.444 0-.798-.647-1.444-1.444-1.444z"/>
    </defs>
    <g fill="none" fill-rule="evenodd">
        <g>
            <g transform="translate(-626 -125) translate(626 125)">
                <use fill="#8B8B95" fill-rule="nonzero" xlink:href="#ofv9l9uqza"/>
            </g>
        </g>
    </g>
</svg>
