<svg xmlns="http://www.w3.org/2000/svg" xmlns:xlink="http://www.w3.org/1999/xlink" width="10" height="12" viewBox="0 0 10 12">
    <defs>
        <path id="dftrk13bca" d="M0 1.09C0 .947.057.809.16.706.28.585.495.442.82.312 1.313.115 1.944 0 2.727 0c.773 0 1.3.15 2.385.584.96.385 1.388.507 1.979.507.648 0 1.142-.09 1.502-.234.186-.074.277-.135.294-.152.344-.343.931-.1.931.386v6.545c0 .145-.057.284-.16.386-.12.12-.335.263-.66.394-.492.197-1.124.311-1.907.311-.773 0-1.3-.15-2.384-.584-.961-.384-1.389-.507-1.98-.507-.648 0-1.142.09-1.502.234-.053.021-.098.041-.136.06l.002 3.525c0 .3-.244.545-.546.545-.3 0-.545-.244-.545-.545V1.09zm2.727 0c-.648 0-1.142.09-1.502.235-.052.02-.096.04-.134.058v5.379c.447-.138.99-.217 1.636-.217.773 0 1.3.151 2.385.585.96.384 1.388.506 1.979.506.648 0 1.142-.09 1.502-.233.052-.021.097-.04.134-.059V1.966c-.447.138-.99.216-1.636.216-.773 0-1.3-.15-2.384-.585-.961-.384-1.389-.506-1.98-.506z"/>
    </defs>
    <g fill="none" fill-rule="evenodd">
        <g>
            <g transform="translate(-184 -23) translate(184 23)">
                <use fill="#FFF" fill-rule="nonzero" xlink:href="#dftrk13bca"/>
            </g>
        </g>
    </g>
</svg>
