<svg xmlns="http://www.w3.org/2000/svg" xmlns:xlink="http://www.w3.org/1999/xlink" width="14" height="14" viewBox="0 0 14 14">
    <defs>
        <path id="dedwrtjjua" d="M2.862 9.529c.125-.125.295-.196.471-.196h8c.369 0 .667-.298.667-.666V2c0-.368-.298-.667-.667-.667H2c-.368 0-.667.299-.667.667v9.057L2.862 9.53zm.747 1.138l-2.47 2.471c-.42.42-1.139.123-1.139-.471V2C0 .895.895 0 2 0h9.333c1.105 0 2 .895 2 2v6.667c0 1.104-.895 2-2 2H3.61z"/>
    </defs>
    <g fill="none" fill-rule="evenodd">
        <g>
            <g transform="translate(-897 -679) translate(897 679)">
                <use fill="#5432F6" fill-rule="nonzero" xlink:href="#dedwrtjjua"/>
            </g>
        </g>
    </g>
</svg>
