<svg xmlns="http://www.w3.org/2000/svg" xmlns:xlink="http://www.w3.org/1999/xlink" width="12" height="17" viewBox="0 0 12 17">
    <defs>
        <path id="x4d2vqnl4a" d="M10.5 6.3c.387 0 .7.313.7.7v1.4c0 2.856-2.138 5.213-4.9 5.557l-.001 1.442L8.4 15.4c.354 0 .647.263.694.605l.006.095c0 .387-.313.7-.7.7H2.8c-.387 0-.7-.313-.7-.7 0-.387.313-.7.7-.7l2.099-.001v-1.442C2.21 13.62.112 11.376.005 8.62L0 8.4V7c0-.387.313-.7.7-.7.387 0 .7.313.7.7v1.4c0 2.32 1.88 4.2 4.2 4.2 2.32 0 4.2-1.88 4.2-4.2V7c0-.387.313-.7.7-.7zM5.6 0c1.546 0 2.8 1.254 2.8 2.8v5.6c0 1.546-1.254 2.8-2.8 2.8-1.546 0-2.8-1.254-2.8-2.8V2.8C2.8 1.254 4.054 0 5.6 0zm0 1.4c-.773 0-1.4.627-1.4 1.4v5.6c0 .773.627 1.4 1.4 1.4.773 0 1.4-.627 1.4-1.4V2.8c0-.773-.627-1.4-1.4-1.4z"/>
    </defs>
    <g fill="none" fill-rule="evenodd">
        <g>
            <g transform="translate(-148 -677) translate(148 677)">
                <use fill="#5432F6" fill-rule="nonzero" xlink:href="#x4d2vqnl4a"/>
            </g>
        </g>
    </g>
</svg>
