<svg xmlns="http://www.w3.org/2000/svg" xmlns:xlink="http://www.w3.org/1999/xlink" width="16" height="16" viewBox="0 0 16 16">
    <defs>
        <path id="0i03iabiua" d="M14.862.195c.26-.26.682-.26.943 0 .26.26.26.683 0 .943L8.082 8.861c.38.332.783.635 1.209.906l.48-.481c.555-.549 1.38-.725 2.109-.45.557.208 1.137.352 1.733.43.994.141 1.73.997 1.72 1.994v1.997c.003.563-.233 1.101-.648 1.482-.415.38-.97.569-1.544.517-2.155-.234-4.225-.97-6.038-2.147-.658-.417-1.279-.89-1.855-1.414l-4.11 4.11c-.26.26-.682.26-.943 0-.26-.26-.26-.683 0-.943L6.61 8.446l.039-.044c.014-.014.029-.028.044-.04zm-7.725 9.61l-.945.946c.507.455 1.051.868 1.63 1.236 1.645 1.066 3.516 1.732 5.451 1.942.187.017.373-.045.511-.172s.217-.307.216-.497v-2.007c.003-.334-.242-.62-.567-.665-.69-.091-1.367-.26-2.02-.504-.245-.092-.52-.033-.702.147l-.846.847c-.212.212-.54.257-.801.108-.69-.392-1.335-.855-1.927-1.38zM4.733.668c1.004-.01 1.86.726 2.001 1.726.078.59.222 1.17.43 1.726.275.73.099 1.555-.453 2.112l-.846.847c-.26.26-.683.26-.943 0-.26-.26-.26-.682 0-.943l.844-.844c.183-.185.242-.46.15-.705-.244-.652-.413-1.329-.503-2.013-.047-.331-.332-.576-.673-.573h-2c-.187 0-.365.079-.491.217s-.189.323-.173.498c.212 1.947.877 3.818 1.943 5.462.2.31.113.722-.196.922-.31.2-.722.113-.922-.196C1.72 7.083.985 5.013.749 2.847c-.05-.56.137-1.114.515-1.529.379-.414.914-.65 1.476-.651z"/>
    </defs>
    <g fill="none" fill-rule="evenodd">
        <g>
            <g transform="translate(-948 -677) translate(948 677)">
                <use fill="#FFF" fill-rule="nonzero" xlink:href="#0i03iabiua"/>
            </g>
        </g>
    </g>
</svg>
