<svg xmlns="http://www.w3.org/2000/svg" width="17" height="18" viewBox="0 0 17 18">
    <g fill="none" fill-rule="evenodd">
        <g fill="#000">
            <g>
                <path d="M15.875 7.801L2.265.338C1.857.115 1.362.123.962.36c-.4.237-.646.668-.646 1.133V16.42c0 .465.246.895.646 1.132.4.237.895.245 1.303.022l13.61-7.463c.422-.232.684-.674.684-1.155 0-.48-.262-.923-.684-1.155zM1.633 16.42V9.834H7.34c.364 0 .659-.295.659-.658 0-.364-.295-.659-.659-.659H1.633V1.493l13.61 7.463-13.61 7.464z" transform="translate(-1403 -676) translate(1403 676)"/>
            </g>
        </g>
    </g>
</svg>
