<svg xmlns="http://www.w3.org/2000/svg" xmlns:xlink="http://www.w3.org/1999/xlink" width="18" height="18" viewBox="0 0 18 18">
    <defs>
        <path id="53ssbpg2na" d="M.22.22c.293-.293.767-.293 1.06 0l16.5 16.5c.293.293.293.767 0 1.06-.293.293-.767.293-1.06 0l-4.15-4.148C12.229 14.436 11.43 15 10.5 15H2.25C1.007 15 0 13.993 0 12.75v-7.5c0-1.144.854-2.088 1.959-2.231L.219 1.28C-.072.987-.072.513.22.22zM3.439 4.5H2.25c-.414 0-.75.336-.75.75v7.5c0 .414.336.75.75.75h8.25c.414 0 .75-.336.75-.75v-.439L3.439 4.5zM10.5 3c1.243 0 2.25 1.007 2.25 2.25v2.194l.078.079 3.982-2.88c.496-.36 1.19-.005 1.19.607v7.5c0 .414-.336.75-.75.75s-.75-.336-.75-.75V6.718l-3.31 2.395c-.299.216-.71.183-.97-.078l-.75-.75c-.141-.14-.22-.331-.22-.53V5.25c0-.414-.336-.75-.75-.75H7.995c-.414 0-.75-.336-.75-.75s.336-.75.75-.75z"/>
    </defs>
    <g fill="none" fill-rule="evenodd">
        <g>
            <g transform="translate(-93 -676) translate(93 676)">
                <use fill="#5432F6" fill-rule="nonzero" xlink:href="#53ssbpg2na"/>
            </g>
        </g>
    </g>
</svg>
