<?xml version="1.0" encoding="UTF-8"?>
<svg width="28px" height="28px" viewBox="0 0 28 28" version="1.1" xmlns="http://www.w3.org/2000/svg" xmlns:xlink="http://www.w3.org/1999/xlink">
    <title>user copy 2</title>
    <defs>
        <circle id="path-1" cx="14" cy="14" r="14"></circle>
    </defs>
    <g id="Page-1" stroke="none" stroke-width="1" fill="none" fill-rule="evenodd">
        <g id="dive-1-copy-19" transform="translate(-1152.000000, -656.000000)">
            <g id="user-copy-2" transform="translate(1152.000000, 656.000000)">
                <mask id="mask-2" fill="white">
                    <use xlink:href="#path-1"></use>
                </mask>
                <use id="Mask" fill="#E9BDFF" xlink:href="#path-1"></use>
                <g id="multiple-users-silhouette" mask="url(#mask-2)" fill="#FFFFFF" fill-rule="nonzero">
                    <g transform="translate(1.000000, 8.000000)" id="Shape">
                        <path d="M16.1183333,3.974 C17.3533333,4.74833333 18.2193333,6.05866667 18.377,7.57966667 C18.8806667,7.815 19.4396667,7.95033333 20.0323333,7.95033333 C22.196,7.95033333 23.9496667,6.19666667 23.9496667,4.03333333 C23.9496667,1.86966667 22.196,0.116 20.0323333,0.116 C17.8893333,0.116666667 16.151,1.839 16.1183333,3.974 Z M13.552,11.9946667 C15.7156667,11.9946667 17.4693333,10.2406667 17.4693333,8.07733333 C17.4693333,5.914 15.7153333,4.16033333 13.552,4.16033333 C11.3886667,4.16033333 9.634,5.91433333 9.634,8.07766667 C9.634,10.241 11.3886667,11.9946667 13.552,11.9946667 Z M15.2136667,12.2616667 L11.8896667,12.2616667 C9.124,12.2616667 6.874,14.512 6.874,17.2776667 L6.874,21.3426667 L6.88433333,21.4063333 L7.16433333,21.494 C9.80366667,22.3186667 12.0966667,22.5936667 13.984,22.5936667 C17.6703333,22.5936667 19.807,21.5426667 19.9386667,21.4756667 L20.2003333,21.3433333 L20.2283337,21.3433333 L20.2283337,17.2776667 C20.2293333,14.512 17.9793333,12.2616667 15.2136667,12.2616667 Z M21.6946667,8.21766667 L18.3963333,8.21766667 C18.3606667,9.53733333 17.7973333,10.7256667 16.9063333,11.5803333 C19.3646667,12.3113333 21.1633333,14.591 21.1633333,17.2836667 L21.1633333,18.5363333 C24.42,18.417 26.2966667,17.494 26.4203333,17.432 L26.682,17.2993333 L26.71,17.2993333 L26.71,13.233 C26.71,10.4676667 24.46,8.21766667 21.6946667,8.21766667 Z M6.67833333,7.951 C7.44466667,7.951 8.15766667,7.72733333 8.76166667,7.34633333 C8.95366667,6.094 9.625,4.99966667 10.584,4.25433333 C10.588,4.181 10.595,4.10833333 10.595,4.03433333 C10.595,1.87066667 8.841,0.117 6.67833333,0.117 C4.51433333,0.117 2.761,1.87066667 2.761,4.03433333 C2.761,6.197 4.51433333,7.951 6.67833333,7.951 Z M10.1963333,11.5803333 C9.30966667,10.73 8.74833333,9.548 8.70733333,8.23633333 C8.585,8.22733333 8.464,8.21766667 8.33933333,8.21766667 L5.01566667,8.21766667 C2.25,8.21766667 0,10.4676667 0,13.233 L0,17.2986667 L0.0103333333,17.3613333 L0.290333333,17.4496667 C2.40766667,18.1106667 4.29733333,18.4153333 5.93866667,18.5113333 L5.93866667,17.2836667 C5.93933333,14.591 7.73733333,12.312 10.1963333,11.5803333 Z"></path>
                    </g>
                </g>
            </g>
        </g>
    </g>
</svg>