<svg xmlns="http://www.w3.org/2000/svg" xmlns:xlink="http://www.w3.org/1999/xlink" width="614" height="606" viewBox="0 0 614 606">
    <defs>
        <path id="c8jtnhm1ua" d="M0 0.124L255.719 0.124 255.719 254.235 0 254.235z"/>
    </defs>
    <g fill="none" fill-rule="evenodd">
        <g>
            <g>
                <path fill="#FDE5B4" d="M572.952 137.886c-1.768-13.641-5.4-27.354-11.933-39.466-6.466-11.987-15.692-22.08-26.806-29.72-20.687-14.217-46.718-19.328-71.306-19.516-29.292-.225-58.804 5.657-85.772 17.3-12.973 5.602-24.966 12.919-36.554 21.04-11.422 8.005-22.552 16.505-34.62 23.498-2.763 1.6-5.57 3.12-8.432 4.527-1.592.783-3.2 1.532-4.824 2.24-.65.285-1.304.563-1.96.834-.584.241-1.17.477-1.757.707l-.33.12c-6.681 2.416-13.605 4.122-20.605 5.243-6.402 1.026-11.72 1.405-18.996 1.51-7.166.102-14.334-.218-21.48-.77-28.95-2.237-57.632-8.324-86.756-8.007-1.207.014-2.413.044-3.618.081-4.185 4.985-12.04 6.144-17.644 2.908-.453-.261-.911-.508-1.374-.744-.399-.136-.8-.259-1.204-.376-7.643 1.112-15.206 2.705-22.655 4.753-6.7 3.373-13.06 7.407-19.32 11.548-7.726 5.112-15.414 10.285-22.785 15.907-9.003 7.147-17.332 15.07-24.491 24.1-6.227 8.408-11.402 17.514-15.583 27.118-5.144 12.795-8.527 26.215-10.499 39.866-2.603 21.234-1.946 42.751.736 63.948.825 5.912 1.804 11.801 2.923 17.663 1.043 3.3 2.187 6.567 3.44 9.793 6.588 14.557 14.605 28.45 24.12 41.236 8.423 10.862 17.957 20.83 28.64 29.414 8.63 6.577 17.936 12.205 27.819 16.615 6.29 2.576 12.777 4.66 19.289 6.573 13.134 3.86 26.47 7.02 39.445 11.428 2.07.702 4.132 1.438 6.183 2.208 10.155 2.409 20.31 4.857 30.513 7.137 7.699 1.72 15.424 3.324 23.19 4.704 3.88.69 7.77 1.308 11.667 1.889l.707.105c.698.092 1.396.183 2.094.27 1.957.241 3.916.464 5.877.666 15.154 1.565 30.435 2.284 45.633 3.336 30.468 2.108 61.031 3.852 91.58 2.732 7.712-.282 15.418-.747 23.105-1.437 3.838-.345 7.67-.745 11.495-1.208.85-.103 1.699-.213 2.548-.318l.501-.06.245-.038c1.905-.288 3.811-.554 5.714-.856 14.853-2.36 29.555-5.745 43.876-10.377 1.977-.64 3.953-1.292 5.912-1.985.807-.286 1.61-.58 2.41-.888l.081-.032c.38-.17 1.68-.707 1.785-.756.621-.288 1.24-.584 1.855-.885 1.232-.605 2.45-1.239 3.654-1.898 2.724-1.493 5.378-3.116 7.959-4.848 1.3-.872 2.582-1.774 3.846-2.699.382-.28.783-.552 1.174-.836l.59-.487c9.838-8.085 18.632-17.245 26.762-27.058 2.18-2.631 4.294-5.313 6.41-7.997l.353-.45.725-.959c.856-1.13 1.707-2.266 2.553-3.405 3.71-4.993 7.33-10.052 10.931-15.125 8.383-11.805 15.338-24.106 21.31-37.308l.05-.118c.142-.347.285-.693.424-1.041.304-.755.603-1.512.898-2.27.662-1.705 1.301-3.418 1.918-5.14 1.095-3.053 2.117-6.133 3.072-9.233 2.14-6.955 3.936-14.017 5.411-21.145 1.512-7.3 2.351-14.726 3.992-21.996.226-1.001.464-1.999.711-2.994 1.882-15.731 3.3-31.526 4.554-47.26 2.403-30.15 4.527-61.2.624-91.311" transform="translate(-107 -837) translate(107.38 837)"/>
                <g>
                    <path fill="#6F99FF" d="M236.627 605.536l-3.5-62.427c-.35-6.426-1.552-16.427-3.05-26.756-.065-.47-.13-.94-.207-1.42-1.18-8.165-2.525-16.44-3.727-23.249-.076-.426-.142-.83-.219-1.235-.284-1.585-.557-3.082-.809-4.46-.218-1.103-.415-2.141-.6-3.092-8.504-42.802-14.822-29.227-24.364-27.5l-121.89 21.969-5.094 31.686-1.42 8.864-.176 1.082-13.91 86.538h178.966z" transform="translate(-107 -837) translate(107.38 837) translate(62.62)"/>
                    <path fill="#45414F" d="M62.494 197.554c.594 1.819 12.794 26.194 28.722 41.966 14.938 14.79-9.436-50.562-9.436-50.562l-19.286 8.596z" transform="translate(-107 -837) translate(107.38 837) translate(62.62)"/>
                    <path fill="#FC906B" d="M108.79 269.942c11.072.4 21.445-2.881 31.671-6.677.27-3.867.55-8.318.817-12.749.3-5.04.575-10.05.797-14.15.305-5.61.502-9.532.502-9.532s-1.58-5.657-.625-9.908c.42-1.843 4.198-1.42 2.965-2.324-.272-.341-.63-.655-1.093-.928l-28.917-16.822c-3.282-1.912-6.675 1.35-6.167 4.121-.295.438-13.863-8.864-13.924-8.259-1.91 18.948-3.517 58.92-4.115 75.072 6.412 1.69 13.72 1.998 18.09 2.156" transform="translate(-107 -837) translate(107.38 837) translate(62.62)"/>
                    <path fill="#263238" d="M159.43 346.185c7.23 1.91 14.693.887 21.143-2.9.649-.381 1.243.625.594 1.005-6.711 3.941-14.516 5.011-22.042 3.022-.725-.192-.424-1.32.305-1.127" transform="translate(-107 -837) translate(107.38 837) translate(62.62)"/>
                    <g transform="translate(-107 -837) translate(107.38 837) translate(62.62) translate(0 257.454)">
                        <mask id="g0gsgdipab" fill="#fff">
                            <use xlink:href="#c8jtnhm1ua"/>
                        </mask>
                        <path fill="#FF4202" d="M212.738 161.393c-5.99 8.91 26.687 60.247 8.674 67.45-47.261 18.901-142.015 37.059-151.502 15.88-4.263-9.515-29.897-56.687-45.592-82.11C-6.778 112.218-24.184 45.636 75.272 9.607c4.135-1.498 8.46-3.056 13.072-4.471l37.305-1.912 14.307 2.56s.212-6.196 8.901-5.624c12.253.788 41.68 3.436 59.823 23.199 13.996 15.245 42.128 70.459 46.5 86.832 6.067 22.734-41.097 49.214-42.442 51.201" mask="url(#g0gsgdipab)"/>
                    </g>
                    <path fill="#FC9972" d="M267.306 417.033c-3.261-32.4-12.126-49.387-12.126-49.387l-42.946 26.25 3.308 10.816-48.894 21.65-9.746 4.839s-42.755 8.935-59.475 14.705c-3.271 1.13-5.55 2.138-6.31 2.935-1.311 1.373-2.172 3.248-2.575 5.205-.001.008-.005.021-.006.033-1.01 4.964.929 10.422 5.881 9.426l.139.166c.243.275.786.862 1.553 1.52 0 0 0 .002.004.002.78.667 1.793 1.402 2.966 1.953.006 0 .01.002.016.004.97.46 2.049.787 3.193.849.027.035.05.067.08.1.264.312 1.238 1.313 3.592 2.333l.003-.001c.175.077.352.152.541.226 2.292.913 6.115.167 6.115.167s3.018 3.605 8.624 1.355c.448-.178 1.184-.485 2.102-.869 2.294-.964 5.718-2.43 8.54-3.705.254-.114.5-.226.742-.337.16-.072.316-.145.47-.215 1.902-.879 3.348-1.595 3.666-1.888 7.511-6.87 20.225-6.193 20.225-6.193s.67-.035 1.905-.114c6.67-.437 33.251 1.706 55.65-3.703 2.523-.608 5.036-1.263 7.513-1.968 23.573-6.69 47.107-17.698 45.25-36.154M151.5 177.328c-1.832-3.12-3.718-6.302-5.73-9.408-.392-.594-.783-1.191-1.178-1.776-5.54-8.238-12.114-15.753-21.085-19.99-11.447-5.4-24.979-4.684-35.553 1.685-11.926 7.175-18.411 21.275-17.807 35.451.089 2 1.278 3.122 2.711 3.467 1.42 14 10.327 18.648 18.437 30.32 6.558 9.432 11.347 15.94 27 18.348.217.034-.316 1.75-.102 1.788 6.942 1.263 13.267.95 16.99.134 1.246-.272 2.485-.591 3.709-.96 3.833-1.155 7.504.195 11.263-.906 5.39-1.58 10.966-6.578 13.178-12.533 6.054-16.296-4.71-33.47-11.833-45.62" transform="translate(-107 -837) translate(107.38 837) translate(62.62)"/>
                    <path fill="#FC9972" d="M96.261 214.807c2.644 4.602 1.056 10.476-3.547 13.12-4.602 2.644-10.476 1.056-13.12-3.546-2.643-4.603-1.055-10.477 3.547-13.12 4.602-2.644 10.477-1.056 13.12 3.546" transform="translate(-107 -837) translate(107.38 837) translate(62.62)"/>
                    <path fill="#263238" d="M136.107 190.863c-1.386-2.23-2.834-4.415-4.36-6.555-.652-.914-2.223-.091-1.561.836 1.724 2.418 3.355 4.89 4.902 7.425.292.48.948.64 1.382.23 3.146-2.961 6.444 3.163 1.836 3.884-1.125.176-.716 1.9.407 1.724 2.833-.444 4.758-3.252 3.393-6.003-1.196-2.412-3.942-2.787-5.999-1.541M121.923 195.782c.886 1.543.815 3.247-.16 3.806-.973.56-2.481-.237-3.367-1.78-.886-1.542-.815-3.246.16-3.806.973-.56 2.481.238 3.367 1.78M145.592 182.187c.886 1.542.814 3.246-.16 3.806s-2.482-.237-3.368-1.78c-.886-1.542-.814-3.246.16-3.806s2.482.237 3.368 1.78" transform="translate(-107 -837) translate(107.38 837) translate(62.62)"/>
                    <path fill="#FC906B" d="M152.346 263.225c-4.58 4.624-10.845 12.133-33.645 15.489-21.28 3.137-34.68-4.919-41.829-11.575 3.554-2.452 14.576-7.032 19.189-8.463l31.188 2.004 14.307 2.59s2.1-.624 10.79-.045" transform="translate(-107 -837) translate(107.38 837) translate(62.62)"/>
                    <path fill="#263238" d="M135.955 211.049c-2.321 1.812-5.389 1.978-7.904.455-.81-.49-1.439.844-.632 1.331 2.923 1.77 6.677 1.531 9.367-.568.744-.58-.081-1.803-.83-1.218" transform="translate(-107 -837) translate(107.38 837) translate(62.62)"/>
                    <path fill="#FC9972" d="M122.717 287.156l-3.76 99.545-15.292-17.937-37.398 51.518s48.125 53.15 80.886 47.622c57.724-9.742 3.662-172.998 3.662-172.998s5.477-17.743 3.56-45.528c0 0-.589 5.483 1.888 3.591 2.477-1.89 3.26-11.865-2.191-13.388 0 0-.127-8.153-7.349-6.878 0 0-2.682-7.465-8.525-6.14 0 0-3.04-6.401-7.028-5.72-3.387.579-10.696 6.8-13.146 15.097 0 0-11.164-4.493-12.537-4.412-2.007.12-5.32 1.119-3.324 3.671 1.997 2.553 9.587 11.631 12.446 18.315 2.859 6.685 1.478 23.209 8.108 33.642" transform="translate(-107 -837) translate(107.38 837) translate(62.62)"/>
                    <path fill="#263238" d="M146.17 231.753c-1.47-2.776-3.64-6.303-7.307-5.883-.069.008-.137.02-.205.03-.007-.028-.017-.058-.031-.088-1.076-2.29-2.674-5.187-5.546-5.289-1.74-.061-3.325.998-4.707 1.938-1.437.978-2.77 2.106-3.982 3.35-2.682 2.753-4.758 6.045-6.097 9.615-.003-.001-.006-.003-.01-.003-6.657-1.27-12.854-4.186-18.096-8.479-.444-.363-.96.36-.519.722 5.314 4.351 11.595 7.284 18.33 8.6-.85 2.511-1.345 5.144-1.43 7.817-.017.569.866.666.884.094.187-5.9 2.368-11.597 6.131-16.147 1.884-2.279 4.204-4.35 6.8-5.788 1.829-1.014 3.688-1.138 5.225.42.96.972 1.597 2.221 2.173 3.445-1.311.417-2.5 1.248-3.614 2.017-1.915 1.318-3.717 2.783-5.425 4.36-.418.386.145 1.073.567.684 2.339-2.159 5.018-4.564 7.941-5.894 3.997-1.818 6.468 1.747 8.11 4.85.267.503 1.077.136.808-.371M154.47 239.425c-.001-.016 0-.032-.003-.048-.377-2.794-1.157-6.254-4.395-6.91-1.503-.304-3.052.14-4.486.564-1.847.547-3.655 1.202-5.434 1.94-.527.219-.157 1.027.372.807 2.461-1.02 5.2-2.218 7.871-2.48 3.722-.364 4.72 2.947 5.154 5.926-2.323.238-4.554.802-6.72 1.692-.529.217-.158 1.025.371.807 2.242-.922 4.552-1.47 6.965-1.67.354-.03.431-.379.304-.628M153.848 248.188l.813 4.967c.093.565.97.422.877-.143l-.813-4.968c-.092-.564-.97-.421-.877.144M145.403 293.032c-.992 1.317-2.235 2.344-3.717 3.07-.512.25-.144 1.059.371.807 1.616-.791 2.986-1.922 4.068-3.359.344-.457-.377-.975-.722-.518M110.64 241.825l-4.476-3.743c-.846-.708-5.477-3.888-3.522-5.064.484-.291.12-1.103-.371-.807-1.642.987-.982 2.81.183 3.902 2.42 2.272 5.12 4.303 7.667 6.434.44.367.955-.356.518-.722M85.818 214.487c-2.696-.467-4.457 2.512-4.375 4.883.093 2.693 2.225 4.722 4.832 5.042.569.07.662-.813.095-.883-1.96-.24-3.66-1.62-3.986-3.63-.317-1.955.949-4.943 3.339-4.529.565.098.655-.786.095-.883M123.587 463.578c-8.826-4.33-16.896-10.065-23.885-16.977-.402-.398-1.092.163-.684.566 7.104 7.026 15.28 12.84 24.25 17.24.515.252.829-.58.32-.83M142.127 468.074c-4.688.277-9.295-.684-13.499-2.769-.513-.254-.827.578-.319.83 4.355 2.16 9.112 3.102 13.961 2.816.57-.034.423-.91-.143-.877M172.995 428.738c-.265 4.388-.852 8.737-1.762 13.037-.119.56.766.65.883.095.91-4.3 1.498-8.65 1.762-13.038.034-.569-.85-.665-.883-.094M238.624 401.84c-5.82-.622-11.638-.011-17.21 1.778-.543.175-.169.98.371.807 5.417-1.74 11.089-2.306 16.745-1.701.57.06.663-.823.094-.884M96.77 449.928c-.857.645-1.86 1.01-2.935 1.035-.196.004-.334.114-.41.254-.136.082-.233.228-.208.43.081.683-.042 1.327-.34 1.945-.25.515.582.83.83.318.317-.658.45-1.365.413-2.086 1.179-.093 2.254-.487 3.216-1.212.456-.344-.11-1.029-.567-.684" transform="translate(-107 -837) translate(107.38 837) translate(62.62)"/>
                    <path fill="#263238" d="M122.783 470.726c-2.901 1.772-6.46 1.946-9.471.46l.525-.09c.562-.1.42-.977-.144-.877-3.877.688-8.774 1.346-11.405-2.22.605-.167 1.203-.421 1.777-.771.482-.295.117-1.106-.372-.808-3.193 1.949-7.058.661-8.443-2.702 1.284-.396 2.538-1.063 3.624-1.715.485-.29.12-1.102-.371-.807-1.11.666-2.443 1.407-3.786 1.772-.067.003-.134.02-.198.053-1.597.39-3.193.215-4.432-1.283-2.063-2.494-1.13-5.973-.342-8.758.154-.547-.674-.87-.83-.319-.911 3.223-1.848 7.225.76 9.95 1.367 1.43 3.036 1.663 4.707 1.328 1.124 2.976 4.034 4.604 6.959 4.245 2.333 3.644 6.657 3.744 10.551 3.22l.038.03c3.427 2.143 7.763 2.214 11.224.099.482-.294.117-1.106-.371-.807M118.974 375.47c-1.053 15.629.118 31.347 3.486 46.645.122.556 1 .417.876-.143-3.35-15.224-4.526-30.854-3.479-46.407.039-.57-.845-.666-.883-.095M80.367 325.144c-3.982-7.033-10.222-12.668-17.697-15.782-8.203-3.417-17.51-3.567-25.883-.674-.54.186-.166.993.371.807 16.049-5.544 34.042 1.256 42.402 16.02.28.494 1.09.128.807-.37M94.51 350.921l-9.254-17.986c-.261-.506-1.07-.139-.808.372l9.255 17.986c.26.506 1.07.138.807-.372M44.008 414.211c-5.481-5.47-10.26-11.584-14.222-18.238-.29-.485-1.1-.12-.807.372 4.003 6.721 8.806 12.906 14.344 18.432.401.4 1.09-.161.685-.566" transform="translate(-107 -837) translate(107.38 837) translate(62.62)"/>
                    <path fill="#6F99FF" d="M82.337 75.072l1.426-.48c4.121-1.386 8.716 1.218 10.263 5.816l.294.87c1.547 4.6-.54 9.451-4.66 10.838l-1.427.48c-4.12 1.386-8.716-1.218-10.263-5.816l-.293-.87c-1.547-4.6.54-9.45 4.66-10.838m-39.546-62.98c3.257-4.527 8.01-7.833 14.261-9.936 8.216-2.764 15.782-2.87 22.68-.326 6.915 2.554 11.816 8.14 14.71 16.742 1.769 5.258 2.09 10.1.953 14.493-.636 2.654-2.344 6.352-5.1 11.068l-2.727 4.672c-1.474 2.527-2.152 5.127-2.018 7.796.014.256.038.53.074.82.495 4.055-1.682 7.742-5.168 8.915-4.566 1.536-9.61-1.82-10.598-7.092-.386-2.056-.564-3.73-.539-5.016.073-2.943 1.489-6.781 4.276-11.542l2.833-4.81c.933-1.543 1.594-3.08 1.954-4.668.714-2.698.622-5.38-.276-8.048-1.037-3.081-2.786-5.599-5.251-7.585-2.468-1.969-5.85-2.248-10.136-.805-4.232 1.423-6.692 3.975-7.417 7.684-.31 1.599-.45 3.165-.416 4.698.08 3.681-2.005 6.85-5.166 7.914l-.793.267c-5.048 1.699-10.508-2.57-10.762-8.452-.283-6.562 1.262-12.158 4.626-16.79M48.569 111.984l.513-.853c1.482-2.462 4.91-3.118 7.658-1.464l.52.313c2.748 1.653 3.775 4.99 2.293 7.453l-.513.852c-1.482 2.463-4.91 3.118-7.658 1.465l-.521-.314c-2.748-1.653-3.774-4.99-2.292-7.452M1.689 97.193c-.297-3.674.682-7.373 2.93-11.109 2.954-4.91 6.72-8.201 11.282-9.873 4.577-1.674 9.437-.958 14.576 2.135 3.142 1.89 5.377 4.191 6.685 6.89.815 1.61 1.538 4.203 2.17 7.759l.626 3.52c.34 1.904 1.112 3.503 2.321 4.79.117.123.246.25.389.382 1.985 1.83 2.467 4.619 1.213 6.702-1.642 2.728-5.619 3.197-8.373.965-1.075-.87-1.881-1.637-2.419-2.295-1.223-1.514-2.153-4.053-2.787-7.644l-.633-3.635c-.19-1.177-.515-2.234-1.014-3.188-.796-1.664-1.99-2.976-3.585-3.935-1.841-1.108-3.8-1.627-5.892-1.572-2.085.065-3.908 1.372-5.449 3.934-1.522 2.528-1.669 4.866-.446 7.045.528.938 1.129 1.787 1.802 2.544 1.616 1.82 1.923 4.309.786 6.198l-.285.474c-1.815 3.016-6.393 3.204-9.039.35-2.951-3.184-4.569-6.664-4.857-10.437" transform="translate(-107 -837) translate(107.38 837) translate(62.62)"/>
                    <path fill="#45414F" d="M118.764 176.9c-.394-.338-.813-.55-1.246-.672-.084-.05-.181-.083-.299-.094-.089-.007-.181-.01-.271-.017-.042-.004-.085-.005-.127-.008-4.73-.315-10.922.938-13.455 5.412-.746 1.318-.816 3.105.773 3.804.582.256 1.212.167 1.805.049 1.985-.394 3.66-1.779 5.746-2.129 2.394-.402 5.227.138 7.07-1.805 1.245-1.312 1.457-3.299.004-4.54M135.011 176.851c2.674-.138 4.105-2.642 5.967-4.2 1.621-1.357 3.763-1.73 5.352-2.983.476-.374.952-.795 1.136-1.404.502-1.661-.902-2.77-2.388-3.06-5.047-.982-10.023 2.91-12.858 6.708-.025.034-.053.067-.077.102-.053.073-.11.145-.163.217-.069.096-.106.193-.123.288-.188.409-.3.865-.3 1.384 0 1.91 1.647 3.041 3.454 2.948" transform="translate(-107 -837) translate(107.38 837) translate(62.62)"/>
                    <path fill="#263238" d="M226.143 491.684c-6.012 4.733-13.433 7.75-20.494 10.526-14.57 5.716-29.62 10.143-44.922 13.269l-1.792.36c-28.703 5.662-58.301 6.755-87.364 3.16l.175-1.083c11.487 1.432 23.04 2.143 34.615 2.099 17.03-.066 34.047-1.727 50.78-4.94 1.662-.318 3.324-.645 4.985-1.006 2.066-.427 4.12-.885 6.165-1.366l-.394-7.324-.066-1.311c-.032-.7 1.039-.874 1.083-.175l.065 1.235c.131 2.438.252 4.886.383 7.323 1.749-.415 3.497-.852 5.235-1.3 11.192-2.908 22.188-6.537 32.91-10.854 6.427-2.59 13.04-5.476 18.417-9.848.077.405.143.81.219 1.235" transform="translate(-107 -837) translate(107.38 837) translate(62.62)"/>
                    <path fill="#45414F" d="M135.913 122.978c-4.628-2.138-10-2.745-14.943-1.428-5.59 1.49-9.848 5.65-15.039 7.994-3.428-2.276-6.678-3.962-11.407-3.176-4.036.67-7.146 2.977-9.43 6.074-6.631-1.376-13.979 1.654-19.484 6.342-7.786 6.63-9.405 15.605-6.014 24.537-16.097 7.886-11.045 26.985-4.54 33.102 6.446 6.062 15.386 5.527 22.504 10.527 2.268 2.381 4.83 4.535 7.666 6.399 1.65 1.085 3.599.507 4.456-1.248 6.414-13.129 6.049-28.212-1.02-40.972 1.27-1.721 2.812-3.272 4.704-4.539 6.547-4.38 14.531-3.245 21.946-3.17 3.83.04 8.795.165 13.721-.287 1.07.043 2.148.045 3.238-.023 9.826-.621 17.725-6.836 17.882-17.133.142-9.34-5.72-19.063-14.24-22.999" transform="translate(-107 -837) translate(107.38 837) translate(62.62)"/>
                    <path fill="#263238" d="M114.464 133.966c-6.146-.093-11.297 4.13-12.553 10.024-9.532-4.307-19.876 3.112-18.666 13.752.106.933 1.527.589 1.422-.336-1.103-9.699 8.849-16.347 17.408-11.75.513.275 1.04-.039 1.115-.595.743-5.614 5.58-9.72 11.22-9.635.941.015.996-1.446.054-1.46M137.291 137.71c-2.238-4.045-6.836-6.139-11.358-5.195-.921.192-.584 1.614.337 1.422 3.884-.81 7.82 1.009 9.739 4.476.455.822 1.74.123 1.282-.702M65.414 171.898c-6.76 2.964-6.097 12.383.877 14.552.9.28 1.326-1.119.427-1.398-5.89-1.831-6.157-9.436-.601-11.872.86-.377.155-1.659-.703-1.282M98.623 522.755c-4.245 9.604-11.909 17.225-21.523 21.44-.644.282-.194 1.278.452.995 9.875-4.329 17.73-12.179 22.089-22.038.285-.645-.735-1.04-1.018-.397M230.078 516.353c-6.307-3.782-10.744-10.307-11.772-17.74-.098-.699.984-.863 1.082-.174.94 6.842 4.853 12.82 10.482 16.493.076.481.142.951.208 1.421M169.596 556.556c-.05-13.627-.115-27.254-.173-40.88-.003-.697-1.09-.825-1.087-.123l.142 33.25c.02 4.947.402 10.062-.258 14.98-.731 5.45-4.68 12.125-11.179 10.46-.674-.174-1.077.843-.397 1.018 3.837.983 7.519-.759 9.882-3.844 3.2-4.176 3.09-9.867 3.07-14.86M154.635 557.842v8.38c0 .697 1.086.824 1.086.122v-8.38c0-.696-1.086-.824-1.086-.122M153.906 541.811v8.745c0 .696 1.087.824 1.087.122v-8.745c0-.696-1.087-.824-1.087-.122M153.849 522.135l-.367 9.109c-.029.7 1.057.825 1.086.121l.367-9.108c.029-.7-1.058-.825-1.086-.122M160.42 507.408c-2.109-.864-4.338.808-4.47 2.983-.01.143.044.263.11.35.01.47.142.951.415 1.41.186.306.416.569.667.776.514.46 1.148.71 1.793.765.612.044 1.235-.076 1.792-.36.383-.197.732-.481 1.027-.842.154-.186.274-.372.372-.568.874-1.662.11-3.76-1.705-4.514M195.172 324.704c-5.986-16.237-14.331-31.477-24.774-45.275-.425-.561-1.27.131-.846.692 10.388 13.726 18.67 28.885 24.624 45.035.243.66 1.238.206.996-.452M197.51 331.52c-.216-.668-1.21-.212-.995.451 1.717 5.294 2.856 10.705 3.444 16.238.074.7 1.153.526 1.08-.172-.6-5.63-1.782-11.132-3.528-16.518" transform="translate(-107 -837) translate(107.38 837) translate(62.62)"/>
                    <path fill="#FECA64" d="M518.281 605.536h-215.85s2.597-14.114 7.527-34.297v-.003c.453-1.845.922-3.743 1.413-5.684 4.342-17.207 10.203-37.925 17.44-57.856.637-1.759 1.203-4.405 1.74-7.465.053-.307.109-.618.161-.931 1.075-6.337 2.06-14.148 3.34-19.457.431-1.792.897-3.301 1.41-4.37l.003-.003c.798-1.656 1.67-3.215 2.621-4.675v-.003c8.909-13.738 24.221-19.046 41.466-19.661 20.472-.73 43.665 5.153 62.072 11.387 4.202 1.419 8.153 2.86 11.766 4.243 1.686.646 3.298 1.28 4.83 1.891.21.084.419.168.624.252h.003c9.967 4.02 11.548-22.684 11.896-20.317 0 0 .845 1.233 2.308 3.562 4.811 7.654 16.313 27.16 26.523 53.751.643 1.68 1.283 3.389 1.916 5.128 9.694 26.588 17.705 59.534 16.791 94.508" transform="translate(-107 -837) translate(107.38 837) translate(62.62)"/>
                    <path fill="#263238" d="M421.333 233.438s20.219-24.084 20.851-55.104l-12.54-.304-9.724 37.773 1.413 17.635z" transform="translate(-107 -837) translate(107.38 837) translate(62.62)"/>
                    <path fill="#263238" d="M403.218 217.16c14.644 11.16 16.287 28.342 26.2 42.549 4.502 6.452 12.227 9.19 17.815 14.445 9.296 8.738 10.172 20.678 10.412 32.662.32 16.001 2.681 32.478 13.133 45.277 8.789 10.765 21.82 16.755 35.782 15.138 30.984-3.589 48.1-37.876 42.025-66.387-2.887-13.546-11.054-25.638-22.765-33.091-13.954-8.882-30.502-7.44-45.906-11.618-10.951-2.969-16.142-8.902-16.28-20.228-.076-6.202.736-12.593-1.045-18.647-4.818-16.359-24.105-10.584-37.08-9.891-.65.034-1.166.238-1.582.535-.483-.444-.985-.878-1.53-1.293-3.158-2.407-22.35 8.132-19.18 10.55" transform="translate(-107 -837) translate(107.38 837) translate(62.62)"/>
                    <path fill="#C06549" d="M410.664 270.525c-11.393 2.29-22.687.65-33.915-1.547-.936-3.957-1.98-8.517-3.006-13.059-1.164-5.166-2.298-10.306-3.222-14.513-1.266-5.755-2.134-9.78-2.134-9.78s.677-6.125-1.032-10.363c-.747-1.837-4.586-.758-3.462-1.904.223-.399.541-.785.974-1.146l27.083-22.311c3.074-2.536 7.14.266 7.082 3.22.38.404 12.848-11.524 13.015-10.907 5.187 19.29 13.622 60.395 16.977 77.013-6.351 2.836-13.863 4.393-18.36 5.297" transform="translate(-107 -837) translate(107.38 837) translate(62.62)"/>
                    <path fill="#FECA64" d="M424.975 245.477l9.692 21.29-57.918 2.211-2.438-10.55s29.01-2.51 50.664-12.951" transform="translate(-107 -837) translate(107.38 837) translate(62.62)"/>
                    <path fill="#FFF" d="M461.725 251.438c1.298 2.37 3.208 4.214 5.59 5.48.876.467.002 1.744-.87 1.28-2.61-1.389-4.687-3.482-6.106-6.072-.479-.875.908-1.559 1.386-.688M439.411 211.08c6.669-.907 13.575 2.363 16.48 8.601 3.852 8.274-.57 17.88 3.542 26.093.446.892-.94 1.579-1.385.688-2.944-5.879-1.767-12.164-2.018-18.479-.358-9.043-6.584-16.71-16.31-15.388-.982.134-1.295-1.38-.309-1.515" transform="translate(-107 -837) translate(107.38 837) translate(62.62)"/>
                    <path fill="#263238" d="M371.16 358.027c-7.16 3.202-15.06 3.408-22.377.58-.736-.285-1.18.857-.445 1.14 7.614 2.943 15.875 2.73 23.329-.605.718-.322.215-1.438-.506-1.115" transform="translate(-107 -837) translate(107.38 837) translate(62.62)"/>
                    <path fill="#FECA64" d="M492.1 408.484c-6.603 16.28-13.629 31.512-19.05 43.666-4.326 9.715-7.627 17.465-8.864 22.214-1.034 3.976-3.19 7.694-6.311 11.073-1.084 1.178-2.286 2.311-3.6 3.405-17.484 14.539-54.453 21.21-94.869 12.073-10.796-2.442-16.825-16.475-21.32-30.12v-.003c-3.78-11.47-6.473-22.665-10.008-26.46-1.73-1.858-42.916-21.382-40.537-46.228.615-6.404 4.072-19.177 8.893-33.71.565-1.718 1.155-3.46 1.76-5.222 8.564-24.913 20.439-53.243 28.642-63.438 9.974-12.393 49.911-26.755 49.911-26.755l14.369-5.104 38.944-4.308c21.286 2.386 37.353 9.222 49.079 19.096 1.512 1.27 2.95 2.594 4.32 3.964 29.89 29.914 26.262 82.407 8.641 125.857" transform="translate(-107 -837) translate(107.38 837) translate(62.62)"/>
                    <path fill="#C56C4E" d="M327.35 474.71c2.684.31 5.395.562 8.11.764 24.103 1.804 48.365-.227 55.344-.904 1.292-.127 1.991-.205 1.991-.205s13.046-2.854 21.985 2.985c.379.248 1.997.745 4.116 1.333.17.046.344.096.521.142.27.075.544.15.826.224 3.138.842 6.93 1.78 9.468 2.388 1.016.243 1.83.436 2.323.544 6.185 1.38 8.697-2.864 8.697-2.864s4.085.124 6.302-1.208c.184-.109.354-.217.522-.326h.003c2.265-1.454 3.103-2.656 3.324-3.022.025-.04.043-.078.065-.118 1.174-.258 2.236-.78 3.162-1.42.006-.003.01-.006.016-.006 1.12-.77 2.043-1.702 2.74-2.525.002 0 .002-.003.002-.003.684-.811 1.146-1.51 1.351-1.836l.115-.196c5.296.193 6.377-5.786 4.492-10.753-.003-.013-.01-.025-.013-.034-.748-1.957-1.957-3.752-3.547-4.951-.922-.696-3.45-1.354-7.029-1.97-18.285-3.14-64.057-5.146-64.057-5.146l-10.908-3.358-39.085-12.026 3.466-10.1-54.11-22.015s-4.083 19.323-5.083 47.088c-.705 19.444 19.357 26.586 44.891 29.518M349.357 223.168c3.075 5.762 7.986 9.766 13.71 12.325 3.678 1.646 7.694 2.693 11.778 3.227 1.305.17 2.615.289 3.926.357 3.917.208 10.393-.525 17.233-2.96.21-.074.419-.152.63-.23 8.853-3.276 18.192-9.427 23.287-20.084 6.299-13.188 14.632-23.966 13.75-38.403 1.398-.587 2.42-1.923 2.177-3.966-1.739-14.481-10.666-27.707-23.969-33.002-11.797-4.703-25.66-3.181-36.388 4.2-8.408 5.789-13.837 14.504-18.095 23.782-.305.659-.603 1.33-.901 1.998-1.529 3.484-2.917 7.026-4.259 10.495-5.218 13.508-10.098 28.731-2.879 42.261" transform="translate(-107 -837) translate(107.38 837) translate(62.62)"/>
                    <path fill="#C56C4E" d="M414.294 211.329c-1.958 5.212.682 11.023 5.893 12.98 5.213 1.957 11.024-.681 12.981-5.894 1.957-5.212-.682-11.023-5.894-12.98-5.212-1.957-11.024.682-12.98 5.894" transform="translate(-107 -837) translate(107.38 837) translate(62.62)"/>
                    <path fill="#263238" d="M368.99 193.293c1.057-2.544 2.187-5.05 3.403-7.523.52-1.058 2.286-.472 1.758.6-1.375 2.796-2.645 5.63-3.816 8.517-.221.546-.874.823-1.393.473-3.758-2.534-6.134 4.364-1.242 4.33 1.194-.008 1.063 1.845-.129 1.853-3.008.021-5.477-2.56-4.53-5.638.83-2.7 3.609-3.554 5.95-2.612M384.506 195.983c-.656 1.746-.293 3.498.81 3.912 1.103.414 2.529-.666 3.185-2.412.656-1.747.293-3.5-.81-3.913-1.103-.415-2.529.666-3.185 2.413M357.703 185.919c-.656 1.747-.294 3.498.81 3.912 1.103.415 2.528-.666 3.184-2.412.657-1.747.294-3.499-.81-3.913-1.103-.414-2.528.666-3.184 2.413M372.567 214.163c2.71 1.483 5.914 1.134 8.26-.868.755-.645 1.632.63.88 1.271-2.727 2.327-6.653 2.716-9.793.998-.868-.474-.222-1.88.653-1.4M425.545 204.964s-14.703-13.292-12.666-39.42c0 0-33.141-14.219-55.482 2.871 0 0 17.025-50.582 62.54-27.882 12.948 6.458 21.886 19.222 22.346 33.684.32 10.049-3.273 21.458-16.738 30.747" transform="translate(-107 -837) translate(107.38 837) translate(62.62)"/>
                    <path fill="#FFF" d="M373.124 154.16c15.815-8.667 32.739 7.105 48.766.45.913-.379 1.64.986.72 1.368-16.113 6.69-33.198-8.982-48.765-.45-.875.478-1.594-.89-.72-1.369M405.485 148.515c3.494 1.224 7.134 1.2 10.589-.164.917-.362 1.646 1.002.72 1.368-3.834 1.513-7.87 1.637-11.767.272-.937-.328-.484-1.806.458-1.476" transform="translate(-107 -837) translate(107.38 837) translate(62.62)"/>
                    <path fill="#263238" d="M360.817 174.066c1.2.739 2.64.713 3.524 1.962.936 1.325 1.457 3.704 3.424 3.873 1.715.147 2.309-1.8 2.031-3.24-.213-1.11-1.034-3.104-4.446-4.133-3.69-1.111-5.605-.774-5.644-.578-.179.905.357 1.653 1.11 2.116M397.232 190.25c.161-.118-.673-2.363-4.524-5.213-2.865-2.12-5.005-2.41-6.101-2.136-1.424.354-2.458 1.555-1.603 3.048.981 1.714 3.358 1.185 4.954 1.477 1.505.275 3.149 1.746 4.323 2.524.738.488 2.205.843 2.951.3" transform="translate(-107 -837) translate(107.38 837) translate(62.62)"/>
                    <path fill="#C56C4E" d="M397.25 281.264l22.67 111.847 15.963-18.015 40.45 40.068s-37.043 68.617-71.843 66.78c-47.093-2.484-32.348-190.11-32.348-190.11s-6.668-4.358-12.149-34.874c0 0 1.539 5.576-1.346 4.038-2.884-1.539-5.384-11.73 0-14.23 0 0-1.25-8.462 6.442-8.366 0 0 1.512-8.181 7.785-7.799 0 0 2.061-7.141 6.306-7.112 3.604.025 12.224 5.228 16.166 13.4 0 0 10.795-6.542 12.23-6.69 2.098-.217 5.697.256 4.063 3.237-1.635 2.98-7.704 6.791-9.532 14.195-1.826 7.404.24 21.708-4.856 33.63" transform="translate(-107 -837) translate(107.38 837) translate(62.62)"/>
                    <path fill="#263238" d="M365.5 237.325c1.052-3.122 2.702-7.14 6.568-7.327.073-.003.145-.003.217-.004.003-.03.008-.063.018-.096.725-2.553 1.889-5.823 4.844-6.414 1.792-.36 3.611.47 5.2 1.208 1.654.769 3.225 1.71 4.691 2.793 3.243 2.395 5.949 5.451 7.94 8.92l.01-.004c6.676-2.443 12.596-6.51 17.296-11.843.397-.45 1.054.21.659.66-4.764 5.404-10.768 9.503-17.518 12.008 1.306 2.454 2.264 5.096 2.805 7.848.114.586-.783.837-.9.248-1.192-6.077-4.415-11.604-9.081-15.677-2.336-2.039-5.089-3.79-8.02-4.84-2.064-.739-4.01-.552-5.337 1.32-.828 1.17-1.277 2.57-1.666 3.936 1.428.208 2.799.868 4.083 1.474 2.205 1.04 4.319 2.253 6.354 3.595.498.329.032 1.136-.47.805-2.788-1.839-5.969-3.875-9.22-4.757-4.445-1.205-6.399 2.904-7.574 6.395-.19.565-1.09.323-.898-.248M358.21 246.673c-.003-.017-.006-.033-.007-.05-.082-2.956.14-6.67 3.38-7.897 1.504-.57 3.183-.372 4.739-.176 2.004.252 3.987.625 5.953 1.087.584.137.337 1.036-.247.899-2.721-.64-5.759-1.416-8.569-1.234-3.914.253-4.386 3.85-4.33 7.007 2.444-.146 4.85.058 7.242.613.584.135.337 1.034-.247.898-2.477-.574-4.962-.75-7.494-.55-.371.03-.51-.317-.42-.597M360.337 255.639v5.28c0 .6-.932.6-.932 0v-5.28c0-.6.932-.6.932 0M376.957 290.165c1.25 1.196 2.712 2.048 4.369 2.548.572.172.328 1.072-.248.899-1.807-.545-3.416-1.484-4.78-2.788-.434-.415.226-1.074.66-.66M403.987 241.733l3.998-4.633c.756-.876 5.011-4.953 2.788-5.84-.55-.219-.31-1.12.248-.898 1.867.744 1.492 2.742.472 4.07-2.122 2.763-4.572 5.323-6.847 7.96-.393.454-1.05-.207-.66-.66M425.05 209.228c2.712-.94 5.039 1.846 5.355 4.314.36 2.803-1.503 5.265-4.147 6.038-.577.169-.824-.73-.248-.899 1.988-.58 3.514-2.296 3.511-4.432-.003-2.077-1.82-4.956-4.223-4.123-.568.197-.812-.702-.248-.898M428.15 473.474c8.403-5.976 15.785-13.28 21.85-21.62.348-.48 1.157-.016.803.47-6.163 8.477-13.642 15.88-22.182 21.955-.49.348-.956-.46-.47-.805M409.72 481.27c4.9-.508 9.506-2.283 13.505-5.154.488-.35.953.458.47.805-4.141 2.973-8.907 4.756-13.974 5.28-.596.062-.592-.87 0-.931M377.904 444.667c1.016 4.497 2.362 8.9 4.032 13.197.217.56-.684.801-.899.247-1.67-4.296-3.015-8.7-4.032-13.197-.132-.583.766-.833.899-.247M304.312 427.761c5.92-1.63 12.046-1.983 18.117-1.075.591.089.34.986-.248.899-5.902-.884-11.869-.51-17.621 1.075-.58.16-.826-.74-.248-.899M453.599 454.801c.995.523 2.095.731 3.213.575.203-.029.364.061.466.193.155.062.28.197.29.41.03.721.267 1.367.68 1.956.346.491-.461.957-.804.47-.44-.627-.698-1.337-.782-2.09-1.236.104-2.415-.122-3.534-.71-.53-.278-.06-1.083.47-.804" transform="translate(-107 -837) translate(107.38 837) translate(62.62)"/>
                    <path fill="#263238" d="M430.194 480.737c3.303 1.343 7.016.92 9.882-1.127l-.559-.005c-.6-.008-.601-.94 0-.932 4.13.055 9.31-.093 11.43-4.231-.655-.07-1.316-.232-1.97-.497-.548-.222-.308-1.125.248-.899 3.635 1.477 7.419-.51 8.282-4.227-1.396-.192-2.807-.67-4.042-1.161-.55-.219-.31-1.12.248-.899 1.263.502 2.768 1.043 4.22 1.194.069-.009.142-.002.213.02 1.72.133 3.342-.317 4.37-2.078 1.714-2.932.158-6.374-1.129-9.124-.253-.54.55-1.014.805-.47 1.489 3.182 3.137 7.164.9 10.428-1.174 1.712-2.862 2.235-4.648 2.172-.66 3.271-3.397 5.45-6.485 5.573-1.798 4.167-6.257 5.003-10.377 5.12-.011.013-.02.025-.034.038-3.185 2.798-7.66 3.607-11.602 2.003-.548-.222-.309-1.124.248-.898M418 381.488c3.737 16 5.188 32.469 4.293 48.875-.032.597-.964.6-.932 0 .89-16.326-.54-32.705-4.26-48.627-.136-.584.762-.833.899-.248M444.06 325.663c2.93-7.955 8.434-14.845 15.644-19.334 7.913-4.927 17.522-6.659 26.68-5.083.59.101.34 1-.248.899-17.552-3.02-35.026 7.067-41.179 23.766-.205.558-1.106.317-.898-.248M433.785 354.743l6.534-20.186c.183-.568 1.083-.326.898.248l-6.533 20.186c-.184.568-1.084.325-.899-.248M330.272 360.171c6.904-9.283 12.21-19.274 14.825-30.616 1.425-6.182 2.057-12.519 1.918-18.86-.013-.598.914-.498.927.094.238 10.826-1.825 21.65-6.042 31.627-2.07 4.896-4.654 9.564-7.692 13.924-3.306 4.747-7.07 9.193-9.948 14.229-3.224 5.642-5.241 12.24-3.675 18.715.141.584-.779.734-.919.155-2.673-11.05 4.38-20.896 10.606-29.268M322.107 394.573c3.276 5.65 9.13 9.468 15.634 10.137.59.06.597.993 0 .932-6.838-.703-12.986-4.645-16.438-10.598-.301-.52.504-.99.804-.47M409.586 266.994c6.211-.709 12.15-2.767 17.481-6.026.514-.314.982.492.47.804-5.48 3.35-11.57 5.427-17.95 6.153-.596.068-.59-.864 0-.931M483.997 407.406c4.747-6.59 8.657-13.73 11.632-21.287.217-.552 1.119-.312.899.248-3.006 7.635-6.93 14.85-11.727 21.51-.347.482-1.156.017-.804-.47" transform="translate(-107 -837) translate(107.38 837) translate(62.62)"/>
                    <path fill="#FF4202" d="M442.122 275.753c-1.592 0-3.072.896-3.263 2.604-.161 1.446 1 3.262 2.603 3.262 1.592 0 3.073-.895 3.263-2.603.161-1.446-1-3.263-2.603-3.263M356.399 345.636c-1.592 0-3.072.896-3.263 2.604-.161 1.446 1 3.262 2.603 3.262 1.592 0 3.072-.895 3.263-2.603.161-1.446-1-3.263-2.603-3.263M431.872 313.024c-1.591 0-3.072.895-3.262 2.604-.162 1.446 1 3.262 2.603 3.262 1.592 0 3.072-.895 3.263-2.603.16-1.446-1-3.263-2.604-3.263M409.51 285.537c-1.592 0-3.072.895-3.263 2.604-.161 1.446 1 3.262 2.603 3.262 1.592 0 3.073-.895 3.263-2.603.161-1.447-1-3.263-2.603-3.263M354.07 286.469c-1.593 0-3.073.895-3.263 2.603-.162 1.447 1 3.263 2.603 3.263 1.592 0 3.072-.895 3.262-2.604.162-1.446-1-3.262-2.603-3.262M324.718 324.206c-1.591 0-3.072.895-3.262 2.603-.161 1.446 1 3.262 2.603 3.262 1.592 0 3.072-.895 3.263-2.603.161-1.446-1-3.262-2.604-3.262M301.233 362.409c-.193 1.708-1.671 2.603-3.265 2.603-.584 0-1.109-.242-1.534-.618.565-1.718 1.155-3.46 1.76-5.221.144-.02.29-.025.436-.025 1.602 0 2.764 1.817 2.603 3.261M331.707 375.453c-1.592 0-3.072.895-3.263 2.604-.161 1.446 1 3.262 2.603 3.262 1.592 0 3.072-.895 3.263-2.603.161-1.446-1-3.263-2.603-3.263M452.837 354.022c-1.591 0-3.072.896-3.263 2.604-.16 1.446 1 3.262 2.604 3.262 1.591 0 3.072-.895 3.263-2.603.16-1.446-1.001-3.263-2.604-3.263M477.995 315.354c-1.592 0-3.072.895-3.263 2.603-.16 1.446 1 3.263 2.604 3.263 1.591 0 3.072-.895 3.262-2.604.162-1.446-1-3.262-2.603-3.262M495.954 363.016c-.085-.525-.295-.995-.63-1.408l-.55-.518c-.42-.303-.89-.485-1.405-.545h-.466c-.406-.06-.796-.016-1.17.132-.385.079-.728.251-1.029.517-.31.237-.543.53-.699.88-.213.322-.334.68-.364 1.074l.018.791c.085.526.295.995.631 1.408l.55.518c.42.303.889.485 1.404.546h.466c.406.06.797.016 1.17-.132.385-.08.728-.252 1.029-.518.31-.237.544-.53.7-.88.212-.322.334-.68.364-1.074l-.019-.79M362.921 414.122c-1.592 0-3.072.895-3.263 2.603-.161 1.446 1 3.263 2.604 3.263 1.592 0 3.072-.896 3.262-2.604.162-1.446-1-3.262-2.603-3.262M355.467 486.8c-1.592 0-3.072.895-3.263 2.603-.16 1.447 1 3.263 2.603 3.263 1.592 0 3.073-.895 3.263-2.603.161-1.447-1-3.263-2.603-3.263M396.93 511.492c-1.59 0-3.071.895-3.262 2.604-.161 1.446 1 3.262 2.603 3.262 1.592 0 3.073-.895 3.263-2.603.161-1.446-1-3.263-2.603-3.263M457.496 485.402c-1.592 0-3.072.896-3.263 2.604-.16 1.446 1 3.262 2.604 3.262 1.591 0 3.072-.895 3.262-2.603.162-1.446-1-3.263-2.603-3.263M501.49 511.028c-.606.491-1.416.74-2.258.74h-.289c-1.603 0-2.764-1.818-2.603-3.262.19-1.696 1.653-2.594 3.234-2.606.642 1.68 1.282 3.389 1.916 5.128M463.087 538.513c-1.592 0-3.073.896-3.263 2.604-.161 1.446 1 3.263 2.603 3.263 1.592 0 3.073-.896 3.263-2.604.161-1.446-1-3.263-2.603-3.263M356.188 544.712c-.085-.526-.295-.995-.63-1.408l-.55-.518c-.42-.303-.889-.485-1.405-.545h-.465c-.407-.06-.798-.017-1.171.132-.385.079-.728.25-1.029.517-.31.237-.544.53-.698.88-.214.322-.335.68-.365 1.074l.018.791c.085.526.296.995.631 1.408l.55.518c.42.303.888.485 1.404.546h.466c.407.06.797.016 1.17-.133.385-.079.728-.25 1.03-.517.31-.237.543-.53.698-.88.213-.322.335-.68.365-1.074l-.019-.79zM314.744 568.798v.466c-.062.515-.242.984-.547 1.404-.174.183-.344.366-.518.55-.413.335-.882.546-1.407.63l-.792.019c-.395-.031-.752-.152-1.075-.363-.162-.072-.31-.162-.447-.265v-.003c.453-1.845.922-3.743 1.413-5.684l.767-.019c.395.031.752.153 1.075.367.35.155.643.388.879.699.267.301.44.643.519 1.028.149.373.192.764.133 1.17M406.248 572.99c-1.591 0-3.072.894-3.262 2.603-.162 1.446 1 3.262 2.603 3.262 1.592 0 3.072-.895 3.263-2.603.161-1.447-1-3.263-2.604-3.263M499.426 570.66c-1.592 0-3.072.895-3.263 2.603-.161 1.446 1 3.263 2.603 3.263 1.592 0 3.073-.896 3.263-2.604.162-1.446-1-3.262-2.603-3.262M353.137 593.022c-1.591 0-3.072.895-3.262 2.604-.162 1.446 1 3.262 2.603 3.262 1.592 0 3.072-.895 3.263-2.603.161-1.446-1-3.263-2.604-3.263M458.428 590.693c-1.592 0-3.072.895-3.263 2.603-.161 1.446 1 3.263 2.603 3.263 1.592 0 3.073-.895 3.263-2.604.161-1.446-1-3.262-2.603-3.262M483.46 282.627c-.619.565-1.488.857-2.399.857-1.602 0-2.764-1.817-2.603-3.264.072-.63.317-1.15.68-1.556 1.514 1.27 2.952 2.593 4.321 3.963" transform="translate(-107 -837) translate(107.38 837) translate(62.62)"/>
                    <path fill="#263238" d="M435.81 560.82c-22.504-2.792-43.886-12.943-60.44-28.421-4.675-4.37-8.932-9.173-12.74-14.315-.476-.642-1.438.145-.962.788 13.663 18.448 33.298 32.266 55.198 39.113 6.132 1.918 12.429 3.278 18.805 4.07.795.098.932-1.137.14-1.236M393.882 564.55c-5.64-.97-10.753-3.802-14.572-8.063-.532-.594-1.497.19-.961.787 4.041 4.51 9.427 7.484 15.394 8.51.79.136.923-1.1.139-1.234" transform="translate(-107 -837) translate(107.38 837) translate(62.62)"/>
                    <path fill="#6F99FF" d="M462.532 106.253l.992 1.23c2.867 3.556 1.931 8.997-2.09 12.153l-.762.598c-4.022 3.156-9.606 2.832-12.473-.723l-.993-1.23c-2.867-3.556-1.93-8.997 2.09-12.153l.762-.598c4.022-3.156 9.607-2.832 12.474.723m48.462-61.26c5.682 1.589 10.689 5.083 15.038 10.476 5.717 7.088 8.55 14.484 8.505 22.165-.05 7.703-3.847 14.506-11.369 20.409-4.599 3.61-9.304 5.647-14.09 6.093-2.873.32-7.172-.043-12.863-1.073l-5.636-1.016c-3.049-.55-5.882-.29-8.492.79-.25.106-.514.227-.79.365-3.86 1.93-8.317 1.102-10.743-1.905-3.177-3.94-1.653-10.09 3.24-12.936 1.91-1.11 3.511-1.881 4.802-2.313 2.957-.976 7.29-.95 13.037.094l5.812 1.071c1.874.369 3.642.471 5.354.26 2.944-.259 5.583-1.304 7.916-3.135 2.695-2.115 4.571-4.73 5.66-7.858 1.071-3.124.13-6.546-2.854-10.245-2.944-3.65-6.372-5.16-10.327-4.553-1.704.264-3.315.685-4.83 1.263-3.637 1.388-7.545.468-9.745-2.26l-.552-.684c-3.512-4.355-1.23-11.238 4.536-13.58 6.434-2.613 12.564-3.086 18.39-1.428M418.05 89.867l1.033.2c2.987.58 4.877 3.716 4.221 7.004l-.124.622c-.656 3.288-3.609 5.484-6.596 4.904l-1.034-.201c-2.986-.58-4.876-3.715-4.22-7.003l.124-.623c.656-3.288 3.609-5.483 6.595-4.903m-2.177-51.32c3.552-1.599 7.59-1.954 12.12-1.074 5.956 1.156 10.592 3.684 13.902 7.571 3.319 3.901 4.358 8.93 3.132 15.08-.75 3.76-2.236 6.774-4.453 9.02-1.308 1.373-3.63 3.007-6.944 4.891l-3.28 1.868c-1.773 1.011-3.088 2.339-3.933 3.985-.08.159-.16.331-.24.518-1.106 2.6-3.71 4.067-6.237 3.576-3.31-.642-5.21-4.383-3.981-7.883.48-1.365.951-2.43 1.414-3.193 1.066-1.74 3.259-3.558 6.607-5.458l3.392-1.915c1.103-.606 2.038-1.301 2.81-2.13 1.37-1.374 2.245-3.014 2.625-4.922.44-2.203.25-4.312-.56-6.348-.816-2.026-2.775-3.352-5.882-3.955-3.067-.595-5.449.093-7.177 2.069-.744.852-1.373 1.744-1.885 2.676-1.23 2.234-3.597 3.422-5.888 2.977l-.575-.112c-3.659-.71-5.497-5.14-3.609-8.755 2.106-4.033 4.988-6.86 8.642-8.486" transform="translate(-107 -837) translate(107.38 837) translate(62.62)"/>
                </g>
            </g>
        </g>
    </g>
</svg>
