<svg xmlns="http://www.w3.org/2000/svg" xmlns:xlink="http://www.w3.org/1999/xlink" width="188" height="196" viewBox="0 0 188 196">
    <defs>
        <path id="s1a8ivri3c" d="M0 0L42 0 42 28 0 28z"/>
        <path id="7asvrgw7qe" d="M0.614 0.227L34.614 0.227 34.614 21.227 0.614 21.227z"/>
        <path id="hvl1029zvg" d="M0.485 0.71L27.485 0.71 27.485 17.71 0.485 17.71z"/>
        <path id="k7s1884zii" d="M0.337 0.632L21.337 0.632 21.337 13.632 0.337 13.632z"/>
        <ellipse id="ya9uv85zxa" cx="87" cy="98.19" rx="87" ry="97.543"/>
    </defs>
    <g fill="none" fill-rule="evenodd">
        <g>
            <g>
                <g transform="translate(-497 -227) translate(497 227) translate(5)">
                    <circle cx="87" cy="111.732" r="83" fill="#FFF"/>
                    <g>
                        <mask id="63y60dvwzb" fill="#fff">
                            <use xlink:href="#ya9uv85zxa"/>
                        </mask>
                        <g mask="url(#63y60dvwzb)">
                            <g>
                                <path fill="#263238" d="M421.333 233.438s20.219-24.084 20.851-55.104l-12.54-.304-9.724 37.773 1.413 17.635z" transform="translate(-314 -130)"/>
                                <path fill="#263238" d="M403.218 217.16c14.644 11.16 16.287 28.342 26.2 42.549 4.502 6.452 12.227 9.19 17.815 14.445 9.296 8.738 10.172 20.678 10.412 32.662.32 16.001 2.681 32.478 13.133 45.277 8.789 10.765 21.82 16.755 35.782 15.138 30.984-3.589 48.1-37.876 42.025-66.387-2.887-13.546-11.054-25.638-22.765-33.091-13.954-8.882-30.502-7.44-45.906-11.618-10.951-2.969-16.142-8.902-16.28-20.228-.076-6.202.736-12.593-1.045-18.647-4.818-16.359-24.105-10.584-37.08-9.891-.65.034-1.166.238-1.582.535-.483-.444-.985-.878-1.53-1.293-3.158-2.407-22.35 8.132-19.18 10.55" transform="translate(-314 -130)"/>
                                <path fill="#C06549" d="M410.664 270.525c-11.393 2.29-22.687.65-33.915-1.547-.936-3.957-1.98-8.517-3.006-13.059-1.164-5.166-2.298-10.306-3.222-14.513-1.266-5.755-2.134-9.78-2.134-9.78s.677-6.125-1.032-10.363c-.747-1.837-4.586-.758-3.462-1.904.223-.399.541-.785.974-1.146l27.083-22.311c3.074-2.536 7.14.266 7.082 3.22.38.404 12.848-11.524 13.015-10.907 5.187 19.29 13.622 60.395 16.977 77.013-6.351 2.836-13.863 4.393-18.36 5.297" transform="translate(-314 -130)"/>
                                <path fill="#FECA64" d="M424.975 245.477l9.692 21.29-57.918 2.211-2.438-10.55s29.01-2.51 50.664-12.951" transform="translate(-314 -130)"/>
                                <path fill="#FFF" d="M461.725 251.438c1.298 2.37 3.208 4.214 5.59 5.48.876.467.002 1.744-.87 1.28-2.61-1.389-4.687-3.482-6.106-6.072-.479-.875.908-1.559 1.386-.688M439.411 211.08c6.669-.907 13.575 2.363 16.48 8.601 3.852 8.274-.57 17.88 3.542 26.093.446.892-.94 1.579-1.385.688-2.944-5.879-1.767-12.164-2.018-18.479-.358-9.043-6.584-16.71-16.31-15.388-.982.134-1.295-1.38-.309-1.515" transform="translate(-314 -130)"/>
                                <path fill="#FECA64" d="M492.1 408.484c-6.603 16.28-13.629 31.512-19.05 43.666-4.326 9.715-7.627 17.465-8.864 22.214-1.034 3.976-3.19 7.694-6.311 11.073-1.084 1.178-2.286 2.311-3.6 3.405-17.484 14.539-54.453 21.21-94.869 12.073-10.796-2.442-16.825-16.475-21.32-30.12v-.003c-3.78-11.47-6.473-22.665-10.008-26.46-1.73-1.858-42.916-21.382-40.537-46.228.615-6.404 4.072-19.177 8.893-33.71.565-1.718 1.155-3.46 1.76-5.222 8.564-24.913 20.439-53.243 28.642-63.438 9.974-12.393 49.911-26.755 49.911-26.755l14.369-5.104 38.944-4.308c21.286 2.386 37.353 9.222 49.079 19.096 1.512 1.27 2.95 2.594 4.32 3.964 29.89 29.914 26.262 82.407 8.641 125.857" transform="translate(-314 -130)"/>
                                <path fill="#C56C4E" d="M349.357 223.168c3.075 5.762 7.986 9.766 13.71 12.325 3.678 1.646 7.694 2.693 11.778 3.227 1.305.17 2.615.289 3.926.357 3.917.208 10.393-.525 17.233-2.96.21-.074.419-.152.63-.23 8.853-3.276 18.192-9.427 23.287-20.084 6.299-13.188 14.632-23.966 13.75-38.403 1.398-.587 2.42-1.923 2.177-3.966-1.739-14.481-10.666-27.707-23.969-33.002-11.797-4.703-25.66-3.181-36.388 4.2-8.408 5.789-13.837 14.504-18.095 23.782-.305.659-.603 1.33-.901 1.998-1.529 3.484-2.917 7.026-4.259 10.495-5.218 13.508-10.098 28.731-2.879 42.261" transform="translate(-314 -130)"/>
                                <path fill="#C56C4E" d="M414.294 211.329c-1.958 5.212.682 11.023 5.893 12.98 5.213 1.957 11.024-.681 12.981-5.894 1.957-5.212-.682-11.023-5.894-12.98-5.212-1.957-11.024.682-12.98 5.894" transform="translate(-314 -130)"/>
                                <path fill="#263238" d="M368.99 193.293c1.057-2.544 2.187-5.05 3.403-7.523.52-1.058 2.286-.472 1.758.6-1.375 2.796-2.645 5.63-3.816 8.517-.221.546-.874.823-1.393.473-3.758-2.534-6.134 4.364-1.242 4.33 1.194-.008 1.063 1.845-.129 1.853-3.008.021-5.477-2.56-4.53-5.638.83-2.7 3.609-3.554 5.95-2.612M384.506 195.983c-.656 1.746-.293 3.498.81 3.912 1.103.414 2.529-.666 3.185-2.412.656-1.747.293-3.5-.81-3.913-1.103-.415-2.529.666-3.185 2.413M357.703 185.919c-.656 1.747-.294 3.498.81 3.912 1.103.415 2.528-.666 3.184-2.412.657-1.747.294-3.499-.81-3.913-1.103-.414-2.528.666-3.184 2.413M372.567 214.163c2.71 1.483 5.914 1.134 8.26-.868.755-.645 1.632.63.88 1.271-2.727 2.327-6.653 2.716-9.793.998-.868-.474-.222-1.88.653-1.4M425.545 204.964s-14.703-13.292-12.666-39.42c0 0-33.141-14.219-55.482 2.871 0 0 17.025-50.582 62.54-27.882 12.948 6.458 21.886 19.222 22.346 33.684.32 10.049-3.273 21.458-16.738 30.747" transform="translate(-314 -130)"/>
                                <path fill="#FFF" d="M373.124 154.16c15.815-8.667 32.739 7.105 48.766.45.913-.379 1.64.986.72 1.368-16.113 6.69-33.198-8.982-48.765-.45-.875.478-1.594-.89-.72-1.369M405.485 148.515c3.494 1.224 7.134 1.2 10.589-.164.917-.362 1.646 1.002.72 1.368-3.834 1.513-7.87 1.637-11.767.272-.937-.328-.484-1.806.458-1.476" transform="translate(-314 -130)"/>
                                <path fill="#263238" d="M360.817 174.066c1.2.739 2.64.713 3.524 1.962.936 1.325 1.457 3.704 3.424 3.873 1.715.147 2.309-1.8 2.031-3.24-.213-1.11-1.034-3.104-4.446-4.133-3.69-1.111-5.605-.774-5.644-.578-.179.905.357 1.653 1.11 2.116M397.232 190.25c.161-.118-.673-2.363-4.524-5.213-2.865-2.12-5.005-2.41-6.101-2.136-1.424.354-2.458 1.555-1.603 3.048.981 1.714 3.358 1.185 4.954 1.477 1.505.275 3.149 1.746 4.323 2.524.738.488 2.205.843 2.951.3" transform="translate(-314 -130)"/>
                                <path fill="#C56C4E" d="M397.25 281.264l22.67 111.847 15.963-18.015 40.45 40.068s-37.043 68.617-71.843 66.78c-47.093-2.484-32.348-190.11-32.348-190.11s-6.668-4.358-12.149-34.874c0 0 1.539 5.576-1.346 4.038-2.884-1.539-5.384-11.73 0-14.23 0 0-1.25-8.462 6.442-8.366 0 0 1.512-8.181 7.785-7.799 0 0 2.061-7.141 6.306-7.112 3.604.025 12.224 5.228 16.166 13.4 0 0 10.795-6.542 12.23-6.69 2.098-.217 5.697.256 4.063 3.237-1.635 2.98-7.704 6.791-9.532 14.195-1.826 7.404.24 21.708-4.856 33.63" transform="translate(-314 -130)"/>
                                <path fill="#263238" d="M365.5 237.325c1.052-3.122 2.702-7.14 6.568-7.327.073-.003.145-.003.217-.004.003-.03.008-.063.018-.096.725-2.553 1.889-5.823 4.844-6.414 1.792-.36 3.611.47 5.2 1.208 1.654.769 3.225 1.71 4.691 2.793 3.243 2.395 5.949 5.451 7.94 8.92l.01-.004c6.676-2.443 12.596-6.51 17.296-11.843.397-.45 1.054.21.659.66-4.764 5.404-10.768 9.503-17.518 12.008 1.306 2.454 2.264 5.096 2.805 7.848.114.586-.783.837-.9.248-1.192-6.077-4.415-11.604-9.081-15.677-2.336-2.039-5.089-3.79-8.02-4.84-2.064-.739-4.01-.552-5.337 1.32-.828 1.17-1.277 2.57-1.666 3.936 1.428.208 2.799.868 4.083 1.474 2.205 1.04 4.319 2.253 6.354 3.595.498.329.032 1.136-.47.805-2.788-1.839-5.969-3.875-9.22-4.757-4.445-1.205-6.399 2.904-7.574 6.395-.19.565-1.09.323-.898-.248M358.21 246.673c-.003-.017-.006-.033-.007-.05-.082-2.956.14-6.67 3.38-7.897 1.504-.57 3.183-.372 4.739-.176 2.004.252 3.987.625 5.953 1.087.584.137.337 1.036-.247.899-2.721-.64-5.759-1.416-8.569-1.234-3.914.253-4.386 3.85-4.33 7.007 2.444-.146 4.85.058 7.242.613.584.135.337 1.034-.247.898-2.477-.574-4.962-.75-7.494-.55-.371.03-.51-.317-.42-.597M360.337 255.639v5.28c0 .6-.932.6-.932 0v-5.28c0-.6.932-.6.932 0M376.957 290.165c1.25 1.196 2.712 2.048 4.369 2.548.572.172.328 1.072-.248.899-1.807-.545-3.416-1.484-4.78-2.788-.434-.415.226-1.074.66-.66M403.987 241.733l3.998-4.633c.756-.876 5.011-4.953 2.788-5.84-.55-.219-.31-1.12.248-.898 1.867.744 1.492 2.742.472 4.07-2.122 2.763-4.572 5.323-6.847 7.96-.393.454-1.05-.207-.66-.66M425.05 209.228c2.712-.94 5.039 1.846 5.355 4.314.36 2.803-1.503 5.265-4.147 6.038-.577.169-.824-.73-.248-.899 1.988-.58 3.514-2.296 3.511-4.432-.003-2.077-1.82-4.956-4.223-4.123-.568.197-.812-.702-.248-.898M444.06 325.663c2.93-7.955 8.434-14.845 15.644-19.334 7.913-4.927 17.522-6.659 26.68-5.083.59.101.34 1-.248.899-17.552-3.02-35.026 7.067-41.179 23.766-.205.558-1.106.317-.898-.248M330.272 360.171c6.904-9.283 12.21-19.274 14.825-30.616 1.425-6.182 2.057-12.519 1.918-18.86-.013-.598.914-.498.927.094.238 10.826-1.825 21.65-6.042 31.627-2.07 4.896-4.654 9.564-7.692 13.924-3.306 4.747-7.07 9.193-9.948 14.229-3.224 5.642-5.241 12.24-3.675 18.715.141.584-.779.734-.919.155-2.673-11.05 4.38-20.896 10.606-29.268M409.586 266.994c6.211-.709 12.15-2.767 17.481-6.026.514-.314.982.492.47.804-5.48 3.35-11.57 5.427-17.95 6.153-.596.068-.59-.864 0-.931" transform="translate(-314 -130)"/>
                                <path fill="#FF4202" d="M442.122 275.753c-1.592 0-3.072.896-3.263 2.604-.161 1.446 1 3.262 2.603 3.262 1.592 0 3.073-.895 3.263-2.603.161-1.446-1-3.263-2.603-3.263M431.872 313.024c-1.591 0-3.072.895-3.262 2.604-.162 1.446 1 3.262 2.603 3.262 1.592 0 3.072-.895 3.263-2.603.16-1.446-1-3.263-2.604-3.263M409.51 285.537c-1.592 0-3.072.895-3.263 2.604-.161 1.446 1 3.262 2.603 3.262 1.592 0 3.073-.895 3.263-2.603.161-1.447-1-3.263-2.603-3.263M354.07 286.469c-1.593 0-3.073.895-3.263 2.603-.162 1.447 1 3.263 2.603 3.263 1.592 0 3.072-.895 3.262-2.604.162-1.446-1-3.262-2.603-3.262M324.718 324.206c-1.591 0-3.072.895-3.262 2.603-.161 1.446 1 3.262 2.603 3.262 1.592 0 3.072-.895 3.263-2.603.161-1.446-1-3.262-2.604-3.262M477.995 315.354c-1.592 0-3.072.895-3.263 2.603-.16 1.446 1 3.263 2.604 3.263 1.591 0 3.072-.895 3.262-2.604.162-1.446-1-3.262-2.603-3.262M483.46 282.627c-.619.565-1.488.857-2.399.857-1.602 0-2.764-1.817-2.603-3.264.072-.63.317-1.15.68-1.556 1.514 1.27 2.952 2.593 4.321 3.963" transform="translate(-314 -130)"/>
                            </g>
                        </g>
                    </g>
                </g>
                <g transform="translate(-497 -227) translate(497 227) translate(145 38)">
                    <mask id="vwqfcjz11d" fill="#fff">
                        <use xlink:href="#s1a8ivri3c"/>
                    </mask>
                    <path fill="#44A4D8" d="M0 24.266L8.186 28s3.204-11.574 11.39-13.067C27.762 13.44 37.73 17.173 42 2.987L34.526 0s-1.069 5.6-8.187 7.093C19.221 8.587 8.543 4.48 0 24.266" mask="url(#vwqfcjz11d)"/>
                </g>
                <g transform="translate(-497 -227) translate(497 227) rotate(75 2.62 20.561)">
                    <mask id="0nwq45ogqf" fill="#fff">
                        <use xlink:href="#7asvrgw7qe"/>
                    </mask>
                    <path fill="#8D5690" d="M.614 17.868l6.557 3.359s2.682-9.047 9.286-9.843c6.603-.797 14.593 2.646 18.157-8.427l-5.99-2.73s-.91 4.4-6.653 5.247C16.227 6.322 7.667 2.548.614 17.868" mask="url(#0nwq45ogqf)"/>
                </g>
                <g transform="translate(-497 -227) translate(497 227) rotate(58 -83.49 74.485)">
                    <mask id="vp0iz31yhh" fill="#fff">
                        <use xlink:href="#hvl1029zvg"/>
                    </mask>
                    <path fill="#8D5690" d="M.485 14.991l5.207 2.719s2.13-7.324 7.374-7.969c5.244-.644 11.588 2.143 14.419-6.82L22.728.71s-.722 3.562-5.284 4.248C12.883 5.644 6.086 2.588.485 14.99" mask="url(#vp0iz31yhh)"/>
                </g>
                <g transform="translate(-497 -227) translate(497 227) rotate(28 -186.63 106.77)">
                    <mask id="pbqqovuhyj" fill="#fff">
                        <use xlink:href="#k7s1884zii"/>
                    </mask>
                    <path fill="#FFF" d="M.337 11.553l4.05 2.079s1.656-5.6 5.735-6.093c4.078-.493 9.013 1.638 11.215-5.217l-3.7-1.69s-.562 2.724-4.11 3.249C9.98 4.405 4.693 2.069.337 11.553" mask="url(#pbqqovuhyj)"/>
                </g>
            </g>
        </g>
    </g>
</svg>
