<svg xmlns="http://www.w3.org/2000/svg" xmlns:xlink="http://www.w3.org/1999/xlink" width="560" height="487" viewBox="0 0 560 487">
    <defs>
        <path id="k3ls7zngra" d="M0.097 0.083L59.323 0.083 59.323 65.099 0.097 65.099z"/>
    </defs>
    <g fill="none" fill-rule="evenodd">
        <g>
            <g>
                <path fill="#CBCBCD" d="M465.522 286.078c-.159 9.46-8.21 16.996-17.983 16.832-9.772-.164-17.567-7.965-17.408-17.425.158-9.46 8.21-16.997 17.983-16.833 9.773.164 17.567 7.966 17.408 17.426" transform="translate(-160 -149) translate(160 149)"/>
                <path fill="#47BDEB" d="M361.84 209.09l-10.105 4.614c-.477-2.26-.795-4.554-.941-6.864-.066-1.05-.725-1.988-1.859-2.04-.964-.044-2.106.801-2.04 1.859.186 2.937.602 5.84 1.243 8.687l-7.019 3.205c-2.29 1.046-.524 4.527 1.755 3.486l6.274-2.865c.825 2.715 1.862 5.369 3.12 7.94 1.108 2.26 4.59.499 3.486-1.756-1.231-2.514-2.253-5.128-3.048-7.809l10.89-4.972c2.29-1.046.524-4.527-1.756-3.486" transform="translate(-160 -149) translate(160 149)"/>
                <path fill="#EA5152" d="M364.834 241.765c-.758-.85-1.901-.785-2.755-.162l-5.825 4.252c-.283-.655-.536-1.324-.755-2.007-.32-1.002-1.212-1.736-2.315-1.5-.951.202-1.824 1.306-1.501 2.314.387 1.21.848 2.385 1.382 3.522l-4.255 3.106c-.851.621-.815 2.022-.163 2.755.758.851 1.901.786 2.755.162l3.571-2.607c.704 1.074 1.484 2.101 2.346 3.076 1.667 1.884 4.582-.712 2.918-2.593-.774-.875-1.484-1.803-2.122-2.777l6.556-4.786c.851-.62.815-2.021.163-2.755" transform="translate(-160 -149) translate(160 149)"/>
                <path fill="#47BDEB" d="M389.84 233.89l-6.338-.298.972-4.292c.233-1.027-.207-2.111-1.272-2.45-.94-.297-2.215.24-2.449 1.273l-1.196 5.283-2.852-.134c-2.507-.118-2.697 3.78-.18 3.898l2.156.101-1.628 7.192c-.232 1.027.208 2.111 1.272 2.449.941.298 2.216-.24 2.45-1.272l1.852-8.183 7.032.331c2.507.118 2.696-3.78.18-3.898M79.046 274.57l.182 11.109c-2.262-.469-4.491-1.095-6.667-1.887-.988-.36-2.11-.131-2.613.887-.426.866-.109 2.25.887 2.613 2.765 1.006 5.592 1.787 8.458 2.34l.127 7.715c.042 2.518 3.938 2.293 3.897-.213l-.114-6.896c2.818.332 5.665.443 8.525.32 2.515-.11 2.295-4.006-.213-3.897-2.797.121-5.602.01-8.376-.334l-.197-11.97c-.041-2.518-3.937-2.292-3.896.214" transform="translate(-160 -149) translate(160 149)"/>
                <path fill="#EA5152" d="M110.187 284.91c-1.083.354-1.481 1.428-1.252 2.46l1.565 7.04c-.714-.003-1.428-.038-2.142-.112-1.047-.107-2.076.416-2.302 1.52-.195.954.467 2.195 1.52 2.303 1.264.13 2.525.177 3.78.144l1.143 5.142c.229 1.03 1.527 1.557 2.46 1.252 1.083-.353 1.481-1.427 1.252-2.46l-.96-4.315c1.266-.215 2.52-.519 3.758-.919 2.393-.772 1.182-4.483-1.208-3.711-1.111.359-2.246.637-3.394.832l-1.76-7.923c-.23-1.03-1.527-1.557-2.46-1.252" transform="translate(-160 -149) translate(160 149)"/>
                <path fill="#47BDEB" d="M112.982 258.843l-2.81 5.688-3.544-2.61c-.848-.623-2.018-.654-2.754.186-.65.743-.667 2.126.186 2.754l4.362 3.21-1.265 2.56c-1.112 2.25 2.384 3.985 3.5 1.727l.956-1.936 5.938 4.371c.848.625 2.018.656 2.754-.185.65-.743.667-2.126-.186-2.754l-6.756-4.973 3.119-6.311c1.112-2.25-2.384-3.985-3.5-1.727" transform="translate(-160 -149) translate(160 149)"/>
                <path fill="#98BFE0" d="M288.92 479.609c-37.203.143-74.405.072-111.606-.218-37.086-.29-74.17-.794-111.25-1.514-20.907-.406-41.814-.881-62.718-1.424-4.24-.11-4.568 6.484-.306 6.595 37.19.965 74.385 1.716 111.583 2.248 37.083.53 74.169.846 111.255.945 20.912.057 41.824.043 62.735-.037 4.232-.016 4.57-6.612.306-6.595M496.09 476.06l-125.277 2.346-35.299.661c-1.78.034-3.366 1.276-3.454 3.14-.08 1.692 1.35 3.489 3.14 3.455l125.276-2.347 35.299-.661c1.78-.033 3.366-1.276 3.454-3.14.08-1.692-1.35-3.488-3.14-3.455M556.803 475.097l-36.145.96c-1.78.048-3.365 1.272-3.45 3.145-.078 1.683 1.354 3.498 3.144 3.45l36.145-.96c1.78-.048 3.364-1.272 3.45-3.145.078-1.683-1.354-3.498-3.144-3.45M96.423 428.163l-76.47 1.355c-4.226.075-4.57 6.67-.306 6.595l76.47-1.355c4.225-.075 4.569-6.67.306-6.595M516.225 418.61l-89.487 1.316-25.223.37c-4.226.063-4.57 6.658-.305 6.596 29.829-.44 59.658-.878 89.487-1.316l25.223-.371c4.226-.062 4.569-6.658.305-6.595" transform="translate(-160 -149) translate(160 149)"/>
                <path fill="#9B2F27" d="M441.212 301.417c-7.336-3.673-10.96-13.244-7.963-20.911 1.24-3.172 3.497-5.704 6.26-7.388 1.285-1.079 2.743-1.947 4.327-2.492 4.693-1.615 9.852-.652 13.91 2.215 6.882 4.864 8.71 14.935 4.61 22.142-4.037 7.108-13.799 10.11-21.144 6.434m42.399 24.2c-2.892-4.453-6.4-8.55-9.645-12.75-1.893-2.445-3.887-4.789-5.955-7.09-1.086-1.211-2.282-2.33-3.448-3.465 3.289-3.714 5.473-8.372 5.795-13.23.767-11.574-8.772-23.8-20.402-24.005-12.351-.218-18.495 6.114-20.892 9.223-3.401 4.412-5.015 10.171-4.486 15.705 1.122 11.738 12.279 20.692 23.805 20.347 2.716-.08 5.386-.75 7.88-1.878.48.932.992 1.838 1.462 2.703 1.43 2.65 3.012 5.331 4.7 7.825 2.982 4.41 5.849 8.958 9.048 13.213 2.32 3.08 5.326 7.155 9.672 6.437 3.374-.56 5.711-3.792 5.26-7.189-.264-1.99-1.73-4.206-2.794-5.845" transform="translate(-160 -149) translate(160 149)"/>
                <path fill="#9B2F27" d="M433.955 290.242l.026.08-.028-.088.002.008" transform="translate(-160 -149) translate(160 149)"/>
                <path fill="#47BDEB" d="M492.98 181.007c-.052-.228-.395-.57-.983-1.016-7.247-5.442-52.294-26.29-55.626-26.915.003-.02-.01-.032-.037-.035-.243-.045-1.645.582-2.367 1.063-6.383 4.302-29.206 24.953-34.057 31.058l-.22.29c-.502.667-.47 1.417-.147 2.041.267.54.75.986 1.3 1.227 13.999 6.052 27.993 12.106 41.988 18.163l20.995 9.082c1.514.655 3.577 1.965 5.542 2.381 1.296.277 2.555.165 3.579-.785.03-.031.065-.06.095-.1 1.057-1.03 1.734-2.62 2.48-3.864 1.034-1.702 2.062-3.404 3.086-5.103 3.886-6.443 7.793-12.871 11.633-19.344 1.046-1.76 2.403-3.74 2.775-5.84.135-.753.145-1.522-.037-2.303" transform="translate(-160 -149) translate(160 149)"/>
                <path fill="#5432F6" d="M481.375 185.488c-3.947.735-7.897 1.473-11.848 2.214.019.09.038.18.042.277.175 3.752.87 7.548 1.312 11.278.426 3.55.848 7.106 1.27 10.659.296 2.496.72 5.021.89 7.545-.029.04-.064.068-.094.1-1.024.95-2.283 1.062-3.58.785-.51-2.95-.65-6.005-.964-8.964-.728-6.97-1.905-14.058-2.182-21.064-2.584.485-5.171.967-7.755 1.452-1.978.37-3.96.75-5.94 1.109-1.148.207-2.23.37-3.323-.146-2.406-1.138-3.6-4.907-4.727-7.139-.75-1.493-1.475-2.998-2.172-4.517-1.73.668-3.68.873-5.475 1.25l-6.764 1.426c-4.229.887-8.455 1.774-12.68 2.668-4.203.885-8.442 2.033-12.716 2.516-1.705.195-3.415.382-5.126.556-.324-.624-.354-1.374.147-2.042.069-.089.143-.186.22-.29 1.375-.42 2.75-.84 4.13-1.251 4.113-1.23 8.47-1.833 12.68-2.669 4.238-.84 8.48-1.684 12.714-2.525l6.78-1.344c1.594-.316 3.251-.8 4.895-.958-1.659-3.791-3.165-7.656-4.511-11.57-1.14-3.318-2.043-6.487-2.53-9.968-.034-.26-.07-.516-.101-.771.722-.482 2.124-1.11 2.367-1.065.017.021.029.033.037.036.53 1.342 1.07 2.675 1.615 4.017 1.528 3.763 2.512 7.759 3.961 11.561 1.36 3.572 2.861 7.093 4.49 10.547.873 1.845 1.78 3.669 2.722 5.477.327.615.868 2.294 1.472 2.652.584.344 1.768-.118 2.432-.24 12.974-2.365 25.951-4.729 38.934-7.099.588.446.931.788.982 1.016.182.781.172 1.55.037 2.303l-11.64 2.178z" transform="translate(-160 -149) translate(160 149)"/>
                <path fill="#CBCBCD" d="M392.064 20.542c-7.53-8.57-19.735-12.66-30.472-15.4-5.852-1.493-11.775-2.608-17.793-3.154-3.945-.358-8.431-.87-12.602-.359-4.687.226-9.238 1.341-13.399 4.153-7.237 4.893-11.51 13.802-12.55 22.294-.593 4.826.05 9.823 2.492 14.08 2.295 4 5.641 7.248 9.398 9.885 11.199 7.86 25.217 11.743 38.978 11.333 1.044 1.137 2.076 2.285 3.066 3.47 1.064 1.275 1.991 2.628 2.986 3.953.966 1.287 2.255 2.303 3.334 3.51.182.204.6.158.658-.133.237.048.496-.042.612-.334 1.292-3.246 2.71-6.433 4.068-9.651.453-1.075.842-2.182 1.203-3.302 8.294-2.375 16.832-6.294 22-13.438 6.04-8.351 4.686-19.32-1.979-26.907" transform="translate(-160 -149) translate(160 149)"/>
                <path fill="#FFF" d="M375.128 23.422c-9.78-3.225-19.762-5.795-29.883-7.696-1.268-.238-1.9 1.697-.613 1.938 10.122 1.901 20.102 4.472 29.883 7.696 1.242.41 1.859-1.527.613-1.938M377.089 31.144l-34.251-9.665c-1.255-.354-1.877 1.582-.613 1.938l34.25 9.666c1.256.353 1.877-1.582.614-1.939M369.36 35.889l-26.794-7.755c-1.254-.363-1.875 1.573-.614 1.938l26.795 7.755c1.253.363 1.875-1.573.613-1.938" transform="translate(-160 -149) translate(160 149)"/>
                <path fill="#47BDEB" d="M446.217 91.164c-1.672-5.506-5.243-9.928-11.13-10.911-5.557-.928-11.761-.375-15.52 4.262-3.299 4.068-4.946 9.717-4.053 14.903 1.035 6.013 5.948 10.397 11.843 11.509.203.038.407.072.61.103.867.242 1.73.422 2.571.53 5.241.677 10.848-1.31 13.962-5.694 2.988-4.205 3.176-9.898 1.717-14.702" transform="translate(-160 -149) translate(160 149)"/>
                <path fill="#FFF" d="M426.232 93.947s.13-1.294 2.994-2.425c2.863-1.131 1.831-4.803-4.701-6.68 0 0-4.401 1.458-4.916 6.047-.514 4.589 4.279 12.332 13.636 15.436 0 0 7.51 2.248 10.908-4.65 0 0-1.999-4.75-6.676-6.36 0 0-.762-.249-1.467 2.686-.706 2.936-1.571 2.332-1.571 2.332s-4.904-1.143-8.207-6.386" transform="translate(-160 -149) translate(160 149)"/>
                <path fill="#47BDEB" d="M413.402 84.04c-2.943 5.24-3.793 11.375-2.302 17.206.323 1.266 2.312.847 1.988-.424-1.357-5.304-.666-10.895 2.02-15.675.637-1.135-1.064-2.25-1.706-1.106M409.104 96.978c-.66-1.97-.77-3.962-.242-5.978.33-1.26-1.606-1.884-1.939-.613-.611 2.337-.575 4.72.193 7.015.411 1.228 2.403.817 1.988-.424M449.147 101.242c-1.038 5.381-4.678 9.846-9.754 11.921-1.214.497-.29 2.308.914 1.816 5.515-2.254 9.65-7.271 10.779-13.124.244-1.268-1.69-1.9-1.939-.613M450.464 107.859c-.597 2.016-1.66 3.758-3.198 5.194-.957.892.393 2.413 1.35 1.52 1.796-1.676 3.09-3.745 3.787-6.101.37-1.252-1.566-1.872-1.939-.613" transform="translate(-160 -149) translate(160 149)"/>
                <path fill="#5C1F62" d="M55.569 107.482c-8.625 7.964-17.268 15.907-25.913 23.85-.408.375-1.564 1.362-.939 2.724 1.406 3.065 3.636 5.68 5.615 8.41 1.988 2.741 4.53 5.143 6.953 7.5 4.73 4.602 9.8 8.856 15.155 12.713 5.584 4.023 11.49 7.498 17.684 10.494 3.294 1.593 6.777 3.436 10.499 3.596 3.34.143 6.344-1.312 8.534-3.8 2.314-2.63 10.884-20.408 9.353-21.573-16.246-12.354-30.558-27.061-42.42-43.671-1.165-1.632-3.173-1.488-4.521-.243" transform="translate(-160 -149) translate(160 149)"/>
                <path fill="#7AC0EF" d="M56.438 113.806c-7.067 6.526-14.15 13.034-21.232 19.542-.335.307-1.207 1.102-.77 2.231.999 2.577 2.98 4.654 4.601 6.891 1.629 2.247 3.712 4.214 5.697 6.145 3.875 3.77 8.03 7.256 12.417 10.417 4.576 3.296 9.414 6.143 14.49 8.598 2.7 1.306 5.552 2.815 8.602 2.946 2.736.117 5.199-1.075 6.993-3.114 1.896-2.154 8.918-16.72 7.662-17.675-13.31-10.122-25.037-22.173-34.756-35.782-.954-1.337-2.6-1.22-3.704-.199M90.762 163.573c-.413.524-.652 1.148-.602 1.828.048.643.378 1.298.867 1.718.246.228.527.38.846.459.31.134.638.182.982.144.647-.078 1.303-.341 1.719-.867.413-.525.653-1.149.602-1.829-.048-.642-.378-1.297-.867-1.718-.245-.227-.527-.38-.846-.458-.31-.135-.638-.183-.982-.144-.647.077-1.303.34-1.719.867" transform="translate(-160 -149) translate(160 149)"/>
                <path fill="#FFF" d="M61.741 156.576c-8.124-6.16-15.432-13.303-21.792-21.27-.819-1.026-2.352.309-1.538 1.329 6.468 8.102 13.926 15.36 22.186 21.622 1.045.792 2.183-.893 1.144-1.68M77.88 165.91c-4.324-1.457-8.24-3.763-12.136-6.097-1.119-.67-2.267 1.008-1.144 1.681 4.048 2.424 8.132 4.827 12.624 6.339 1.24.417 1.898-1.506.657-1.924" transform="translate(-160 -149) translate(160 149)"/>
                <path fill="#47BDEB" d="M157.96 135.365c-.27-1.164-1.222-1.69-2.26-1.95-.002-.315-.02-.634-.068-.961-.157-1.066-.546-2.06-1.106-2.949.317-.304.658-.541 1.095-.739.615-.277.578-1.076.222-1.517-.447-.552-.928-1.069-1.467-1.531-.43-.37-.952-.905-1.523-1.036-.977-.226-1.773.589-2.266 1.448-.774-.346-1.595-.587-2.433-.701-.115-.766-.266-1.646-.908-2.027-.42-.248-.903-.211-1.37-.21l-1.734.003c-.598.001-1.114.582-.936 1.187.134.455.317.867.54 1.26l.13.49c-.927.537-1.622 1.325-2.097 2.244l-.5-.202c-.456-.185-.95-.47-1.448-.507-1.073-.08-1.593 1.079-1.956 1.898-.412.93-.58 1.81.326 2.5.534.408 1.138.725 1.766.983-.074.713-.018 1.386.135 2.018-.658.45-1.394.964-1.64 1.624-.376 1.011.587 1.693 1.257 2.247.09.076.187.161.287.251.005.008.007.016.011.025.105.185.283.328.485.411.498.419 1.062.795 1.635.727.545-.064.987-.543 1.363-1.05.714.404 1.488.717 2.292.915-.08.957-.173 2.098.725 2.582.858.464 2.044.23 2.958-.104.554.068 1.2-.26 1.135-.906-.057-.573-.161-1.129-.312-1.676 1.385-.418 2.632-1.175 3.581-2.181.32.23.626.476.918.754.457.436 1.178.37 1.524-.17.68-1.063 1.987-1.644 1.639-3.15" transform="translate(-160 -149) translate(160 149)"/>
                <path fill="#FFF" d="M148.653 130.997c-1.012-.584-2.401-.53-3.309.233-.968.813-1.175 2.314-.277 3.263.685.723 2.328 1.24 3.262.74.084-.046.162-.103.236-.166.458-.241.849-.613 1.087-1.098.546-1.113.044-2.37-1-2.972" transform="translate(-160 -149) translate(160 149)"/>
                <path fill="#47BDEB" d="M168.29 153.366c.538-.706.387-1.5.044-2.22.179-.15.353-.311.517-.494.536-.596.92-1.29 1.162-2.033.325.037.622.12.943.276.45.22.89-.18.973-.594.104-.517.172-1.038.18-1.566.008-.421.066-.974-.13-1.363-.335-.667-1.179-.736-1.905-.61-.17-.607-.42-1.191-.754-1.724.384-.43.816-.934.729-1.483-.057-.357-.307-.617-.53-.883l-.825-.991c-.285-.341-.862-.361-1.124.028-.197.293-.345.593-.465.908l-.218.306c-.747-.275-1.528-.3-2.28-.134l-.122-.383c-.11-.348-.182-.765-.397-1.068-.464-.652-1.374-.4-2.015-.219-.728.206-1.31.528-1.276 1.374.02.5.126.996.276 1.477-.443.296-.801.648-1.09 1.036-.57-.163-1.214-.34-1.708-.167-.757.264-.69 1.14-.69 1.786 0 .087-.003.183-.007.283l-.009.018c-.056.148-.053.317-.005.473-.003.484.05.985.36 1.28.296.282.78.307 1.248.282.108.6.297 1.192.565 1.746-.586.408-1.282.897-1.133 1.64.142.712.839 1.28 1.464 1.644.224.35.719.562 1.057.22.3-.305.57-.63.811-.975.897.594 1.922.948 2.949 1.014.02.292.025.584.004.883-.032.469.348.85.82.79.932-.115 1.885.357 2.581-.557" transform="translate(-160 -149) translate(160 149)"/>
                <path fill="#FFF" d="M166.371 145.966c-.146-.856-.838-1.625-1.704-1.782-.925-.168-1.882.426-1.999 1.39-.088.736.395 1.921 1.126 2.218.066.027.135.044.206.057.356.148.754.194 1.145.1.896-.215 1.377-1.1 1.226-1.983" transform="translate(-160 -149) translate(160 149)"/>
                <path fill="#47BDEB" d="M524.2 348.304c.392-1.062-.09-1.971-.776-2.718.162-.25.314-.512.445-.796.43-.925.638-1.914.655-2.908.41-.077.802-.087 1.251-.017.631.1 1.016-.552.963-1.086-.067-.669-.18-1.328-.366-1.974-.149-.515-.284-1.21-.668-1.61-.657-.687-1.71-.455-2.546-.03-.433-.677-.958-1.294-1.562-1.819.306-.666.644-1.441.333-2.076-.203-.414-.605-.636-.976-.878l-1.374-.897c-.474-.31-1.184-.118-1.358.453-.13.43-.198.852-.227 1.28l-.15.453c-1.013-.055-1.973.208-2.826.689l-.292-.42c-.264-.383-.507-.864-.882-1.152-.809-.62-1.822.026-2.534.487-.81.523-1.399 1.131-1.04 2.149.211.6.524 1.164.888 1.694-.429.527-.734 1.089-.941 1.669-.754.014-1.604.04-2.141.435-.823.604-.415 1.644-.172 2.43.033.108.065.225.097.348 0 .009-.003.017-.004.025-.014.202.053.407.17.578.177.59.429 1.181.918 1.425.464.232 1.063.082 1.623-.124.356.69.806 1.34 1.34 1.914-.56.716-1.225 1.571-.766 2.421.439.812 1.499 1.243 2.396 1.453.404.341 1.085.416 1.369-.128.252-.483.459-.977.623-1.489 1.314.389 2.694.436 3.968.132.134.348.249.702.336 1.074.135.582.74.905 1.294.656 1.09-.489 2.427-.27 2.933-1.643" transform="translate(-160 -149) translate(160 149)"/>
                <path fill="#FFF" d="M519.1 340.013c-.498-.987-1.627-1.665-2.741-1.533-1.189.142-2.132 1.222-1.913 2.44.167.929 1.199 2.19 2.199 2.279.09.008.181.003.272-.008.489.047.99-.045 1.431-.306 1.01-.597 1.265-1.853.752-2.872" transform="translate(-160 -149) translate(160 149)"/>
                <path fill="#47BDEB" d="M511.031 392.43c.495-1.346-.114-2.5-.984-3.445.206-.316.397-.649.564-1.009.544-1.172.808-2.426.83-3.686.52-.096 1.016-.11 1.585-.02.8.126 1.288-.7 1.22-1.377-.084-.847-.227-1.683-.463-2.502-.189-.652-.36-1.533-.847-2.04-.832-.87-2.167-.576-3.226-.038-.55-.857-1.215-1.64-1.98-2.304.388-.845.816-1.827.422-2.632-.257-.524-.766-.806-1.236-1.112-.58-.38-1.161-.758-1.742-1.137-.6-.392-1.5-.15-1.72.575-.166.544-.252 1.078-.288 1.62l-.191.575c-1.284-.07-2.5.263-3.581.873l-.369-.532c-.336-.485-.643-1.095-1.12-1.46-1.024-.786-2.307.034-3.21.617-1.026.663-1.772 1.434-1.318 2.723.268.761.665 1.476 1.125 2.148-.542.667-.93 1.38-1.192 2.114-.956.018-2.033.05-2.714.551-1.042.767-.525 2.085-.218 3.081.042.136.083.285.124.44 0 .012-.004.021-.005.032-.017.256.068.516.215.732.225.748.543 1.497 1.163 1.806.59.294 1.347.104 2.058-.158.45.876 1.022 1.7 1.698 2.426-.71.907-1.553 1.991-.972 3.068.557 1.03 1.9 1.576 3.038 1.842.51.433 1.374.527 1.734-.162.32-.613.581-1.24.79-1.887 1.664.492 3.414.553 5.028.167.17.441.315.89.425 1.361.172.738.938 1.146 1.64.831 1.383-.619 3.076-.342 3.717-2.081" transform="translate(-160 -149) translate(160 149)"/>
                <path fill="#FFF" d="M504.567 381.923c-.63-1.251-2.062-2.11-3.473-1.943-1.507.18-2.702 1.55-2.425 3.092.212 1.177 1.52 2.776 2.787 2.888.114.01.23.004.345-.01.619.059 1.255-.057 1.813-.387 1.28-.758 1.604-2.35.953-3.64" transform="translate(-160 -149) translate(160 149)"/>
                <path fill="#47BDEB" d="M523.035 367.92c.793-.28 1.086-.988 1.187-1.735.22-.026.442-.063.667-.123.733-.193 1.398-.544 1.975-1.006.238.198.43.417.603.708.243.408.799.319 1.079.035.35-.356.675-.733.956-1.147.224-.33.558-.737.604-1.147.081-.701-.552-1.194-1.192-1.47.182-.57.286-1.163.3-1.758.526-.141 1.13-.316 1.345-.795.141-.313.077-.648.04-.975l-.14-1.213c-.047-.418-.495-.733-.904-.561-.308.13-.581.29-.84.477l-.33.13c-.45-.607-1.056-1.031-1.736-1.29l.101-.367c.094-.333.254-.7.24-1.052-.028-.757-.88-1.03-1.48-1.219-.685-.215-1.312-.263-1.725.425-.243.406-.417.854-.547 1.313-.505.005-.972.097-1.402.254-.366-.425-.784-.9-1.266-1.019-.736-.183-1.138.544-1.472 1.056-.046.07-.098.144-.153.221l-.016.01c-.122.087-.207.223-.25.37-.253.383-.473.807-.38 1.203.088.376.458.647.842.87-.226.531-.384 1.097-.459 1.675-.676.02-1.48.045-1.75.711-.256.637.001 1.448.307 2.062-.004.393.277.818.723.722.397-.085.777-.202 1.148-.35.401.936 1.03 1.748 1.809 2.333-.136.242-.284.475-.456.702-.268.354-.166.853.24 1.052.797.392 1.307 1.26 2.332.898" transform="translate(-160 -149) translate(160 149)"/>
                <path fill="#FFF" d="M525.357 361.065c.33-.754.18-1.722-.424-2.296-.645-.613-1.711-.64-2.304.063-.452.537-.684 1.726-.26 2.34.038.056.084.106.134.152.205.302.496.546.854.674.822.295 1.662-.156 2-.933" transform="translate(-160 -149) translate(160 149)"/>
                <path fill="#461F62" d="M318.762 151.53c-.44.388-.684.827-.878 1.367l-2.85-1.353c.736-.716-.112-2.17-1.174-1.627-1.076.55-1.613 1.661-1.489 2.856.139 1.335 1.087 2.3 2.258 2.856 1.092.518 2.665.982 3.795.328.467-.27.784-.707.995-1.193.231-.532.248-1.322.693-1.715.982-.868-.37-2.386-1.35-1.52" transform="translate(-160 -149) translate(160 149)"/>
                <path fill="#FDBB44" d="M344.932 125.915c-3.252-8.938-17.484-14.72-25.895-10.253-3.96 2.103-6.704 5.923-7.336 10.378-.321 2.26-.162 4.537.958 6.552.46.828.993 1.53 1.619 2.233.326.366 2.303 2.01 2.92 3.418-.298.592-.524 1.211-.679 1.84-.102.043-.213.082-.338.116-.374.104-.284.648.06.716.04.008.077.012.117.02-.276 2.094.327 4.223 2.216 5.788 3.803 3.15 7.733.17 10.54-2.62 2.748-2.731 4.191-3.483 7.951-4.07 2.054-.32 3.945-.968 5.489-2.419 3.101-2.916 3.802-7.787 2.378-11.699" transform="translate(-160 -149) translate(160 149)"/>
                <path fill="#461F62" d="M329.71 132.366c-.397-.324-.857-.437-1.355-.382-.261.028-.742.35-1.147.572-.306-1.561-2.04-2.336-3.306-1.722-.482-1.044-1.345-1.843-2.65-1.355-1.624.608-1.997 3.203-1.013 4.436.71.89 2.065-.241 1.357-1.128-.379-.474-.275-1.35.483-1.043.623.25.503.566.55 1.2.06.857 1.483.97 1.694.142l1.157.203c-.123.437.045.984.527 1.128.831.248 1.096-.111 1.844-.288.453-.51.692-.405.716.317-.18.457-.4.894-.66 1.313-.402.675-.874 1.296-1.4 1.877-1.108 1.221-2.397 2.06-3.842 2.834-1.054.564-1.957 1.146-2.565 2.203-.55.954.848 1.96 1.407.999.986-1.693 3.378-2.261 4.874-3.487 1.468-1.203 2.675-2.727 3.513-4.427.526-1.066.895-2.508-.185-3.392" transform="translate(-160 -149) translate(160 149)"/>
                <path fill="#47BDEB" d="M325.687 145.488c-3.277-1.203-6.056-3.112-8.34-5.754-1.491-1.724-3.974.042-3.234 2.053.233.636-.75 2.992-.943 3.323-.601 1.026-1.164 2.093-1.166 3.311-.004 2.465 2.002 4.116 4.036 5.083 2.005.953 4.407 1.637 6.335.136 1.492-1.162 1.782-4.105 3.463-4.775 1.508-.601 1.276-2.853-.151-3.377M313.307 107.779l-2.985-5.695c-.608-1.16-2.424-.246-1.816.914l2.985 5.695c.608 1.16 2.424.246 1.816-.914M321.24 90.783c-.172-1.29-2.202-1.166-2.029.136l1.723 12.959c.172 1.29 2.202 1.165 2.029-.136l-1.723-12.959zM333.013 98.231l-2.302 7.367c-.39 1.246 1.547 1.865 1.939.613l2.301-7.367c.39-1.247-1.547-1.865-1.938-.613" transform="translate(-160 -149) translate(160 149)"/>
                <path fill="#FDBB44" d="M166.125 197.997c-5.077-5.044-12.45-6.032-19.292-6.017-3.941.009-7.89.177-11.833.456-4.119-.133-8.242.167-12.106 1.183-.405.05-.81.096-1.214.146-.5.063-.86.273-1.099.562-4.243 1.491-8.086 3.973-11.143 7.859-3.398 4.319-4.7 10.126-3.339 15.47 1.452 5.703 5.786 9.768 11.518 11.038 3.102.687 6.274.716 9.434.588 3.701-.149 7.401-.364 11.101-.55 3.732-.186 7.466-.35 11.196-.563 1.287-.073 2.574-.163 3.853-.31 3.08 2.655 6.429 4.98 10.02 6.919 1.201.648 2.882.034 2.912-1.496l.226-11.348c2.031-2.147 3.533-4.79 4.251-7.717 1.399-5.696-.303-12.065-4.485-16.22" transform="translate(-160 -149) translate(160 149)"/>
                <path fill="#5C1F62" d="M124.995 211.486c-2.423-.04-2.611 3.66-.173 3.702 2.424.04 2.612-3.66.173-3.702M138.534 211.03c-.349-.353-.811-.613-1.324-.621l-.435-.007c-.484-.008-.977.146-1.342.465-.202.164-.348.365-.437.602-.127.212-.192.445-.194.697-.001.47.13.97.475 1.317.348.351.811.611 1.324.62l.435.007c.484.008.976-.147 1.342-.465.202-.165.348-.365.437-.602.127-.213.192-.445.194-.697.001-.47-.13-.97-.475-1.317M148.11 209.737c-2.423-.04-2.611 3.66-.173 3.7 2.424.041 2.612-3.66.174-3.7" transform="translate(-160 -149) translate(160 149)"/>
                <path fill="#F1584C" d="M253.682 114.849c-1.53-1.137-3.863-1.094-5.11.46-.073.09-.137.184-.2.278l-.045.063c-.016.025-.03.052-.045.077-.06.097-.116.195-.166.296l-.028.06c-.045.096-.087.194-.124.293-.02.053-.037.107-.055.161-.017.055-.035.11-.05.164-.462 1.642.17 3.493 1.716 4.444.171.106.357.173.547.21 1.393.486 3.07.057 4.09-1.089 1.476-1.658 1.25-4.094-.53-5.417" transform="translate(-160 -149) translate(160 149)"/>
                <path fill="#F1584C" d="M260.714 111.81c-4.576-4.043-11.172-4.883-16.615-2.118-2.171 1.103-.267 4.364 1.891 3.268 3.889-1.976 8.809-1.347 12.077 1.541 1.813 1.603 4.472-1.078 2.647-2.69" transform="translate(-160 -149) translate(160 149)"/>
                <path fill="#F1584C" d="M268.413 107.277c-8.144-7.878-21.334-9.431-31.066-3.605-2.086 1.249-.194 4.516 1.892 3.268 8.3-4.97 19.565-3.706 26.527 3.029 1.745 1.688 4.396-1 2.647-2.692" transform="translate(-160 -149) translate(160 149)"/>
                <path fill="#5C1F62" d="M160.859 83.232L205.014 68.266 248.428 56.815 229.098 6.382 193.04 29.808 141.08 25.727 132.925 28.003z" transform="translate(-160 -149) translate(160 149)"/>
                <path fill="#47BDEB" d="M242.634 51.617L243.635 55.202 204.181 65.282 162.265 77.921 191.998 46.287z" transform="translate(-160 -149) translate(160 149)"/>
                <path fill="#B8E1FF" d="M183.408 24.956s-29.883-21.873-46.812-1.319l25.669 54.284s32.189-18.152 41.916-12.639l-20.773-40.326z" transform="translate(-160 -149) translate(160 149)"/>
                <g transform="translate(-160 -149) translate(160 149) translate(183.311 .183)">
                    <mask id="pche244gvb" fill="#fff">
                        <use xlink:href="#k3ls7zngra"/>
                    </mask>
                    <path fill="#B8E1FF" d="M40.003.084S10.629-.412.097 24.774L20.87 65.099s18.498-16.093 38.453-13.665L40.003.084z" mask="url(#pche244gvb)"/>
                </g>
                <path fill="#9B2F27" d="M210.245 55.888c-3.187-2.905-6.611-5.535-9.64-8.613-3.043-3.092-5.766-6.493-8.091-10.156-2.69-4.239-4.874-8.782-6.476-13.54-.77-2.286-4.442-1.403-3.664.907 3.465 10.293 9.365 19.717 17.304 27.155 3.932 3.683 8.399 6.825 11.865 10.986 3.085 3.705 5.308 8.708 4.04 13.57-.612 2.345 3.006 3.421 3.621 1.065 2.188-8.388-3.041-15.982-8.959-21.374" transform="translate(-160 -149) translate(160 149)"/>
                <path fill="#47BDEB" d="M217.537 9.7c-9.207 1.406-17.813 5.555-24.682 11.84-.967.885.429 2.362 1.394 1.48 6.63-6.067 14.897-9.991 23.776-11.347 1.292-.197.798-2.17-.488-1.973M214.778 19.292c-6.665 1.354-12.986 4-18.62 7.812-1.075.727-.111 2.518.974 1.785 5.504-3.724 11.622-6.3 18.135-7.623 1.282-.26.794-2.234-.489-1.974M214.907 27.238c-5.577.752-10.877 2.78-15.533 5.94-1.074.73-.11 2.52.973 1.785 4.532-3.077 9.62-5.02 15.049-5.752 1.293-.174.798-2.147-.489-1.973M173.791 23.95c-8.252-1.775-16.84-1.182-24.741 1.81-1.208.458-.736 2.438.488 1.974 7.56-2.864 15.769-3.536 23.68-1.835 1.27.273 1.855-1.674.573-1.95M179.56 32.447c-8.852-2.193-18.184-1.778-26.786 1.265-1.221.432-.747 2.41.489 1.973 8.27-2.926 17.203-3.4 25.723-1.288 1.266.313 1.847-1.635.574-1.95M182.794 40.988c-8.063-2.544-16.813-1.937-24.47 1.632-1.187.554-.209 2.336.973 1.785 7.173-3.344 15.383-3.846 22.923-1.467 1.248.394 1.822-1.556.574-1.95M186.666 48.918c-8.296-1.852-16.91-1.003-24.69 2.421-1.198.528-.217 2.309.974 1.785 7.257-3.194 15.405-3.984 23.142-2.256 1.27.283 1.854-1.664.574-1.95" transform="translate(-160 -149) translate(160 149)"/>
                <path fill="#FFF" d="M442.913 295.764c-4.612-2.054-6.685-7.22-5.053-11.943.427-1.236-1.51-1.851-1.939-.613-2.023 5.854.774 11.998 6.38 14.494 1.191.53 1.798-1.41.612-1.938M453.198 295.833c-1.488 1.383-3.466 1.98-5.466 1.528-1.265-.287-1.893 1.648-.613 1.938 2.688.609 5.399-.058 7.43-1.946.958-.891-.392-2.411-1.351-1.52" transform="translate(-160 -149) translate(160 149)"/>
                <path fill="#5C1F62" d="M401.328 339.058c-1.891-3.07-3.846-6.006-5.86-8.816-6.584-9.182-13.794-17.014-21.413-23.673l-.009-.008c-2.175-1.901-4.38-3.707-6.62-5.423-1.952-1.496-3.927-2.923-5.916-4.284-.893-.61-1.79-1.206-2.688-1.787-.029-.021-.044-.03-.044-.03-22.632-14.667-47.383-21.05-69.438-23.22-1.983-.196-3.946-.357-5.881-.485-25.562-1.721-46.719 1.978-55.412 4.284-14.43 3.826-28.594 8.892-42.106 15.298-3.768 1.784-7.488 3.673-11.146 5.676-5.061 2.756-10.013 5.722-14.826 8.9-21.034 13.874-53.773 56.206-64.963 85.887-4.738 12.567-6.64 22.288-6.472 29.76.053 2.373.316 4.52.763 6.462 6.591 28.602 53.295 12.1 61.6 12.173 21.257.185 41.573 4.216 62.831 3.998 38.875-.397 77.744-.997 116.615-1.57h.003l11.614-.172c12.034-.176 24.075-.21 36.1-.702 6.019-.244 52.656-4.48 52.425-6.788-4.113-41.044-14.75-72.093-29.157-95.48" transform="translate(-160 -149) translate(160 149)"/>
                <path fill="#9B2F27" d="M180.023 429.624c-9.16-17.778-29.052-27.603-49.552-20.863-9.328 3.066-17.29 5.882-20.365 18.841-3.512 14.804 11.768 29.731 12.215 30.14 4.28 3.905 9.03 2.657 9.499-5.05.002-.034 0-.069 0-.103 3.218 2.242 8.947 5.839 12.728 7.228 2.153.79 4.485-1.659 3.791-3.63-.522-1.481-3.228-4.738-3.75-6.22 5.394 3.59 12.525 8.26 14.09 8.71 2.165.621 4.513-1.543 3.791-3.63l-6.97-12.58c4.063 2.595 10.886 5.827 15.695 6.844 1.774.376 4.12-.894 3.895-2.88-.414-3.64-8.75-10.854-10.248-14.107 3.457.402 9.031 1.321 12.488 1.723 2.497.29 3.597-2.667 2.693-4.423" transform="translate(-160 -149) translate(160 149)"/>
                <path fill="#621913" d="M133.558 414.51c-7.774.98-14.585 5.133-18.536 11.64-1.43 2.356 2.404 4.468 3.837 2.108 3.097-5.103 8.534-8.747 14.712-9.526 2.792-.353 2.82-4.58-.013-4.223" transform="translate(-160 -149) translate(160 149)"/>
                <path fill="#461F62" d="M170.09 350.013c-.923-13.057-4.728-25.761-11.29-37.102-1.213-2.098-4.59-.407-3.371 1.699 6.22 10.75 10.013 22.827 10.89 35.229.168 2.393 3.942 2.6 3.77.174" transform="translate(-160 -149) translate(160 149)"/>
                <path fill="#36A2EB" d="M171.947 374.443c-.17-2.392-3.944-2.6-3.771-.174.538 7.544-.547 15.019-3.235 22.09-.863 2.27 2.738 3.407 3.6 1.138 2.79-7.337 3.965-15.223 3.406-23.054" transform="translate(-160 -149) translate(160 149)"/>
                <path fill="#5C1F62" d="M461.945 425.82c-.358 20.839-17.092 37.686-37.917 38.577-19.326.826-52.81-1.87-93.682-22.198h-.003c-4.173-2.074-8.427-4.334-12.748-6.794l6.617-47.152 75.894 3.975-37.111-87.276-1.459-3.428v-.003l-2.758-6.484s.015.009.044.03c.204.145 1.142.806 2.685 1.935 1.455 1.064 3.448 2.54 5.874 4.388 1.959 1.49 4.2 3.224 6.666 5.17l.008.01c6.337 5.008 14.16 11.452 22.506 18.922 1.648 1.474 3.318 2.989 5 4.541 21.294 19.655 44.652 45.222 54.97 70.332.98 2.374 1.838 4.744 2.568 7.105 1.923 6.215 2.95 12.363 2.846 18.35" transform="translate(-160 -149) translate(160 149)"/>
                <path fill="#461F62" d="M342.246 321.07c-1.62-8.857-4.933-17.356-9.767-24.955-1.294-2.035-4.675-.35-3.372 1.698 4.678 7.353 7.88 15.472 9.447 24.045.438 2.395 4.129 1.602 3.692-.787M434.96 407.15c-10.268-7.2-22.564-11.402-35.084-12.066-3.593-.19-7.19-.064-10.766.319-1.837.196-1.223 3.002.599 2.807.281-.03.563-.054.844-.08.173.117.379.204.62.243 11.87 1.96 23.067 7.642 31.688 16.025 1.318 1.283 3.471-.618 2.146-1.907-6.701-6.517-14.757-11.422-23.527-14.422 11.4.925 22.524 4.903 31.918 11.49 1.514 1.06 3.074-1.35 1.562-2.41" transform="translate(-160 -149) translate(160 149)"/>
                <path fill="#F66C65" d="M316.336 331.808c-.955-.839-2.29-.827-3.277-.122-.14.075-.273.162-.402.262-1.14.896-1.255 2.361-1.36 3.704-.164 2.082-.204 4.176-.134 6.263.082 2.475-.474 6.995 1.896 8.468 6.266 3.897 4.387-17.6 3.277-18.575M267.597 330.17c-.77-1.012-2.081-1.264-3.188-.768-.151.045-.3.105-.445.178-1.296.652-1.698 2.066-2.067 3.362-.572 2.008-1.025 4.053-1.369 6.113-.408 2.442-1.846 6.763.185 8.675 5.373 5.059 7.78-16.385 6.884-17.56M349.453 337.226c-1.193.44-1.82 1.618-1.67 2.821-.001.158.011.318.039.478.242 1.43 1.476 2.23 2.605 2.964 1.752 1.137 3.573 2.17 5.44 3.105 2.215 1.109 5.922 3.754 8.347 2.375 6.414-3.648-13.374-12.254-14.76-11.743M395.604 435.584c-1.148.547-1.664 1.778-1.405 2.963.013.157.04.315.082.472.373 1.402 1.674 2.086 2.866 2.712 1.85.972 3.757 1.835 5.703 2.594 2.307.9 6.24 3.195 8.529 1.6 6.052-4.22-14.44-10.976-15.775-10.341M199.2 320.07c-1.198-.428-2.435.074-3.092 1.094-.102.12-.195.25-.276.391-.732 1.253-.298 2.658.1 3.945.614 1.996 1.35 3.957 2.183 5.871.989 2.27 2.138 6.677 4.883 7.174 7.262 1.313-2.407-17.978-3.799-18.475M106.566 394.637c-.003 1.271.884 2.268 2.064 2.547.148.056.302.1.462.13 1.425.27 2.604-.609 3.684-1.413 1.676-1.248 3.278-2.595 4.804-4.022 1.809-1.691 5.577-4.247 5.127-7-1.19-7.283-16.138 8.28-16.141 9.758M147.275 328.373c-2.422 1.394-6.142-1.23-8.366-2.323-.515-.256-1.028-.518-1.537-.787 1.706-1.505 3.445-2.974 5.205-4.409 4.427 2.54 7.941 5.649 4.698 7.52M387.793 419.418c-.088-1.268-1.044-2.2-2.242-2.394-.15-.045-.308-.077-.47-.096-1.44-.168-2.553.792-3.573 1.672-1.582 1.363-3.085 2.822-4.505 4.353-1.684 1.816-5.26 4.635-4.615 7.35 1.707 7.178 15.507-9.411 15.405-10.885M143.756 386.045c-1.265-.125-2.343.663-2.733 1.812-.07.14-.128.29-.173.447-.405 1.393.357 2.65 1.054 3.802 1.082 1.787 2.27 3.511 3.544 5.166 1.51 1.962 3.695 5.958 6.479 5.773 7.363-.49-6.7-16.856-8.171-17M100.005 421.44c-.522 2.74-4.94 3.846-7.221 4.812-1.147.486-2.31.937-3.487 1.347-.447-1.941-.71-4.089-.763-6.462 5.577-2.355 12.308-4.072 11.471.302M386.804 369.084c-1.19-.45-2.435.032-3.11 1.04-.104.119-.199.248-.284.387-.752 1.24-.343 2.652.032 3.946.58 2.006 1.281 3.98 2.082 5.908.95 2.287 2.022 6.713 4.758 7.257 7.238 1.438-2.096-18.017-3.478-18.538M124.559 360.501c.481 1.177 1.682 1.761 2.88 1.57.157-.005.316-.024.475-.056 1.421-.294 2.176-1.555 2.869-2.71 1.074-1.791 2.042-3.648 2.91-5.548 1.029-2.252 3.54-6.051 2.075-8.426-3.874-6.28-11.769 13.803-11.21 15.17M321.57 305.704c.696-1.065.496-2.385-.342-3.262-.093-.127-.198-.248-.316-.36-1.047-1.004-2.515-.91-3.859-.825-2.084.132-4.163.389-6.219.752-2.438.432-6.991.52-8.115 3.073-2.973 6.754 18.042 1.858 18.851.622M193.64 295.065c-.701 1.072-16.484 4.87-18.845 1.525 3.658-2.003 7.378-3.892 11.145-5.676 1.06-.127 2.118-.229 3.182-.295 1.343-.085 2.812-.18 3.858.825.117.113.222.234.316.36.84.876 1.038 2.198.343 3.261M268.697 301.245c-.268-1.242-1.348-2.027-2.56-2.048-.157-.023-.317-.033-.48-.029-1.45.04-2.414 1.15-3.298 2.167-1.37 1.575-2.649 3.234-3.835 4.953-1.407 2.038-4.544 5.338-3.517 7.933 2.716 6.86 14.001-11.531 13.69-12.976M440.671 425.679c-.698-1.063-1.988-1.406-3.127-.988-.153.034-.306.083-.456.146-1.338.56-1.838 1.942-2.296 3.209-.711 1.964-1.306 3.972-1.794 6.002-.578 2.408-2.315 6.617-.422 8.668 5.006 5.42 8.906-15.802 8.095-17.037M459.099 407.47c-1.813-.466-3.607-1.021-5.362-1.666-1.264-.463-2.644-.97-3.196-2.313-.062-.15-.112-.301-.144-.456-.413-1.142-.064-2.432 1.005-3.122.367-.238 2.478-.054 5.13.452.98 2.374 1.837 4.744 2.567 7.105M225.864 290.076c-1.086-.662-2.399-.42-3.249.445-.124.097-.241.206-.35.327-.97 1.079-.83 2.542-.702 3.883.198 2.08.52 4.148.948 6.192.508 2.424.74 6.972 3.327 8.015 6.845 2.757 1.288-18.093.026-18.862M286.725 286.763c-2.506-1.223-2.415-5.775-2.748-8.23-.285-2.069-.459-4.157-.508-6.246-.007-.314-.016-.633-.01-.955 1.935.128 3.898.289 5.88.484 1.332 6.194 2.332 17.36-2.614 14.947M367.426 301.138c-.013.084-.029.168-.045.252-.596 3.199-1.839 5.237-4.14 3.744-.086-.057-.169-.116-.246-.182-.923-.75-1.311-2.028-1.459-3.428-.166-1.547-.038-3.241-.029-4.522l.003-.148c1.99 1.36 3.964 2.788 5.916 4.284M401.328 339.058c-.545 3.586-1.797 6.031-4.259 4.433-2.338-1.517-1.696-6.025-1.73-8.503-.023-1.58.018-3.165.129-4.746.031-.505.075-1.007.124-1.51.109-1.137.23-2.361.969-3.24 1.648 1.474 3.318 2.989 5 4.541.188 2.797.189 6.253-.233 9.025M429.46 373.35c.158-1.263-.602-2.36-1.74-2.78-.139-.074-.286-.136-.441-.186-1.382-.441-2.66.287-3.83.954-1.814 1.034-3.57 2.177-5.257 3.406-2.002 1.458-6.054 3.537-5.942 6.324.295 7.374 17.027-6.253 17.21-7.719" transform="translate(-160 -149) translate(160 149)"/>
                <path fill="#5432F6" d="M170.008 351.287c37.171-.192 168.496-.553 193.065 3.746 28.684 5.019-25.485 105.372-25.485 105.372l-148.342 1.064s-34.432-63.88-32.27-97.901c.437-6.882 6.137-12.246 13.032-12.281z" transform="translate(-160 -149) translate(160 149)"/>
                <path fill="#474783" d="M189.245 461.47l148.342-1.065c-.067 4.029-3.344 7.263-7.373 7.278l-134.337.504c-3.702.014-6.693-3.016-6.632-6.718" transform="translate(-160 -149) translate(160 149)"/>
                <path fill="#B8E1FF" d="M263.667 402.605c-1.802-1.518-4.31-2.305-6.636-1.702-.111.03-8.044.665-7.748 8.68.145 3.906 2.985 7.13 6.739 8.018 3.783.895 7.698-.694 9.492-4.217 1.837-3.606 1.33-8.1-1.847-10.779M360.686 366.128c-.698 13.08-3.95 25.926-9.428 37.82-.313.68.255 1.515.897 1.727.783.257 1.411-.229 1.727-.898 5.703-12.063 8.885-25.2 9.478-38.525.077-1.72-2.582-1.85-2.674-.124M346.92 416.004c-2.1 4.891-4.134 9.814-6.1 14.76-.656 1.654 1.945 2.447 2.625.83 2.061-4.904 4.057-9.839 5.984-14.797.619-1.592-1.851-2.328-2.51-.793" transform="translate(-160 -149) translate(160 149)"/>
                <path fill="#5C1F62" d="M224.774 267.526s-.505-10.878 30.232-11.445c30.738-.568 41.349-1.974 48.87 9.44l-79.102 2.005z" transform="translate(-160 -149) translate(160 149)"/>
                <path fill="#CBCBCD" d="M250.992 180.327l-.05-.01c-.206-.133-.443-.245-.717-.325-5.102-1.49-10.793-2.854-15.835-.4-4.59 2.233-7.155 7.018-9.03 11.528-4.148 9.974-4.583 21.43-1.41 31.734.708 2.302 3.6 2.29 4.676.863.498-.395.848-1 .891-1.818.453-8.55 1.318-17.548 4.034-25.716 1.112-3.344 2.808-6.617 5.664-8.796 2.894-2.207 6.795-2.974 10.323-2.179 3.176.716 4.663-4.157 1.454-4.88M274.04 181.86l.05-.01c.207-.133.444-.245.718-.325 5.103-1.491 10.793-2.854 15.835-.4 4.591 2.233 7.155 7.018 9.03 11.528 4.149 9.974 4.584 21.43 1.41 31.734-.708 2.302-3.6 2.29-4.676.863-.498-.396-.848-1-.89-1.818-.454-8.55-1.318-17.549-4.034-25.716-1.112-3.344-2.809-6.617-5.665-8.796-2.894-2.207-6.795-2.974-10.323-2.179-3.176.716-4.663-4.158-1.454-4.88" transform="translate(-160 -149) translate(160 149)"/>
                <path fill="#9B2F27" d="M287.556 276.954c-3.459-4.921-5.888-10.257-7.325-15.778-.254-.989-.48-1.982-.672-2.982-.059-.306-.113-.615-.168-.92-.145-.83-.265-1.659-.363-2.488-.037-.287-.07-.578-.102-.87-.084-.846-.15-1.694-.19-2.545-.16-3.131-.01-6.281.43-9.405.225-1.597-1.164-2.9-2.866-3.201-3.735-.673-7.442-1.4-11.151-2.208-3.688-.803-7.38-1.847-11.13-2.382-3.28-.473-5.044 3.433-3.142 5.26-1.811 6.655-1.979 13.547-3.019 20.338-1.095 7.164-2.648 14.293-4.572 21.302-.327 1.189.873 2.894 2.208 3.24 13.37 3.495 28.558 3.066 40.738-2.848 2.015-.974 2.575-2.738 1.324-4.513" transform="translate(-160 -149) translate(160 149)"/>
                <path fill="#9B2F27" d="M297.79 209.698c-2.346-9.635-8.822-26.479-16.221-31.93-8.12-5.981-18.383-8.687-27.916-6.437-23.12 5.455-28.422 39.183-28.652 48.747-.456 19.047 11.247 37.647 27.83 42.04 8.294 2.197 17.072 1.164 24.86-2.783 8.146-4.129 14.403-11.448 18.082-20.595 3.592-8.93 4.311-19.613 2.016-29.042" transform="translate(-160 -149) translate(160 149)"/>
                <path fill="#621913" d="M265.985 234.239c-.983 3.084-5.133 3.48-6.539.487-.3-.638-1.314-.22-1.013.42 1.784 3.799 7.276 3.562 8.57-.5.214-.669-.803-1.082-1.018-.407" transform="translate(-160 -149) translate(160 149)"/>
                <path fill="#CBCBCD" d="M263.277 224.739c.072-.232.053-.48-.104-.68-.058-.323-.13-.645-.217-.967-.284-1.04-1.81-.775-1.804.16-2.897-.511-5.697 1.158-7.838 3.22-1.583 1.525-3.03 3.32-5.02 4.335-2.347 1.197-5.122 1.133-7.466-.028-.267-.132-.529-.128-.754-.041-.501.147-.9.678-.582 1.272 2.963 5.525 11.006 6.762 16.484 4.74 4.986-1.84 7.917-6.88 7.3-12.011" transform="translate(-160 -149) translate(160 149)"/>
                <path fill="#CBCBCD" d="M269.465 236.75c5.48 2.022 13.522.784 16.485-4.74.319-.594-.08-1.125-.582-1.272-.226-.087-.487-.091-.754.041-2.344 1.161-5.119 1.225-7.466.028-1.99-1.015-3.437-2.81-5.02-4.335-2.14-2.062-4.94-3.731-7.838-3.22.006-.935-1.52-1.2-1.804-.16-.088.322-.159.644-.217.967-.157.2-.176.448-.104.68-.616 5.13 2.315 10.171 7.3 12.011" transform="translate(-160 -149) translate(160 149)"/>
                <path fill="#9B2F27" d="M230.678 231.833c-.133-.573-.245-1.146-.337-1.72.081-.245.078-.517-.053-.767-.02-.037-.045-.071-.07-.106-.169-1.383-.22-2.777-.152-4.195.02-.405-.147-.689-.385-.847-.05-.207-.16-.403-.354-.558-3.115-2.492-7.041-4.15-10.874-2.803-3.244 1.14-5.68 4.36-5.412 8.237.255 3.688 3.247 6.111 6.362 6.665 3.334.593 6.783-.828 8.968-3.652.112-.145.176-.3.208-.458l.162-.113c.051.257.105.513.165.769.29 1.251 2.063.803 1.772-.452M306.783 219.744c-3.014-1.011-6.257-.414-9.054 1.068-.194-.06-.416-.052-.648.065-1.084.545-1.948 1.315-2.588 2.216-.705.642-1.341 1.337-1.89 2.067-.448.598.023 1.204.602 1.32-.244 2.109.397 4.336 1.992 6.02 3.758 3.97 10.1 3.226 13.62-.665 3.362-3.715 3.365-10.278-2.034-12.09" transform="translate(-160 -149) translate(160 149)"/>
                <path fill="#621913" d="M267.03 221.226l-.306-10.339c-.083-2.82-2.858-4.866-5.31-4.531-2.753.376-4.36 3.012-4.276 5.84l.306 10.339c.083 2.821 2.858 4.867 5.31 4.532 2.753-.376 4.36-3.013 4.276-5.84" transform="translate(-160 -149) translate(160 149)"/>
                <path fill="#000" d="M279.408 209.303c-3.228-.294-5.355 2.787-4.52 5.752.318 1.126 1.994.416 1.68-.697-.524-1.863 1.112-3.558 2.979-3.202 1.907.362 2.536 2.435 1.804 4.046-.484 1.066 1.206 1.74 1.69.675 1.29-2.844-.416-6.281-3.633-6.574M249.006 214.685c-.066-3.042-2.832-5.343-5.842-4.682-2.987.656-4.368 3.815-3.354 6.568.406 1.101 2.084.399 1.68-.697-.671-1.821.328-3.875 2.338-4.148 1.977-.27 3.337 1.36 3.377 3.207.025 1.17 1.826.91 1.801-.248" transform="translate(-160 -149) translate(160 149)"/>
                <path fill="#000" d="M243.29 197.507c-.128 0-.255.002-.383.006-3.562.103-6.87 1.641-9.316 4.331-2.454 2.699-3.747 6.232-3.64 9.949.109 3.717 1.603 7.17 4.21 9.721 2.598 2.544 5.991 3.888 9.552 3.785 7.365-.214 13.177-6.62 12.955-14.28-.108-3.717-1.602-7.17-4.209-9.722-2.504-2.452-5.748-3.79-9.17-3.79m.04 29.54c-3.88 0-7.554-1.513-10.387-4.288-2.93-2.87-4.61-6.746-4.731-10.915-.121-4.17 1.332-8.138 4.09-11.172 2.768-3.043 6.517-4.783 10.556-4.9 4.04-.121 7.882 1.403 10.821 4.28 2.93 2.87 4.61 6.746 4.732 10.916.25 8.621-6.321 15.83-14.647 16.072-.145.004-.29.006-.434.006M280.855 195.99c-.126 0-.251.003-.378.006-7.365.214-13.177 6.62-12.955 14.28.222 7.66 6.407 13.717 13.76 13.506 7.367-.214 13.178-6.62 12.956-14.28-.218-7.529-6.185-13.511-13.383-13.511m.05 29.539c-8.136 0-14.879-6.73-15.124-15.203-.25-8.621 6.32-15.83 14.646-16.072 8.332-.242 15.303 6.575 15.553 15.196.25 8.621-6.321 15.83-14.647 16.072-.143.004-.286.007-.428.007" transform="translate(-160 -149) translate(160 149)"/>
                <path fill="#000" d="M266.649 206.694c-2.792-1.994-7.02-1.939-9.655.316-1.158.99-.47 2.814.69 1.822 1.592-1.363 6.377-1.864 8.14-.605 1.239.885 2.072-.642.825-1.533" transform="translate(-160 -149) translate(160 149)"/>
                <path fill="#CBCBCD" d="M257.382 175.65c-1.704.271.384-2.186.446-2.256.044-.05.091-.099.137-.149v.018c-.011.158-.35 2.35-.583 2.388m12.623-7.435c-1.638-.382-3.244.251-4.48 1.319-.466-.7-1.18-1.168-2.253-1.16-1.529.013-3.119.748-4.489 1.73-.534-.615-1.306-1.034-2.371-1.116-3.267-.248-5.064 2.671-6.281 5.242-.495 1.045 1.04 2.021 1.542.964.682-1.442 1.424-3.202 2.894-4.011 1.057-.582 2.1-.475 2.749.139-.326.31-.627.626-.894.938-1.186 1.384-3.107 4.222-1.013 5.746 2.323 1.69 3.782-1.697 4.161-3.402.208-.939.238-1.93.037-2.814.527-.376 1.087-.706 1.676-.978.75-.347 2.057-1.019 2.82-.206.077.082.14.187.191.304-.09.132-.176.266-.256.402-.833 1.413-2.637 5.272-.935 6.652 2.258 1.83 3.092-2.714 3.188-3.957.06-.779.062-1.721-.09-2.611.295-.344.635-.651 1.037-.9 1.678-1.038 4.742-.3 3.949 2.185-.355 1.114 1.387 1.637 1.743.52.69-2.165-.713-4.47-2.925-4.986M250.635 187.322c-3.206-.86-6.5-.521-9.44 1.033-2.903 1.535-.532 6.042 2.366 4.51 1.778-.94 3.673-1.185 5.62-.662 3.156.847 4.63-4.028 1.454-4.881M277.066 187.677c-2.544-.718-5.163-.776-7.728-.126-3.177.804-2.039 5.767 1.145 4.961 1.734-.439 3.405-.44 5.13.046 3.147.887 4.619-3.989 1.453-4.881" transform="translate(-160 -149) translate(160 149)"/>
                <path fill="#621913" d="M280.231 261.176c-5.16 3.172-11.027 4.82-17.156 4.721-1.88-.033-1.785-2.942.088-2.91 5.83.095 11.558-1.545 16.396-4.793.192 1 .418 1.993.672 2.982" transform="translate(-160 -149) translate(160 149)"/>
                <path fill="#5C1F62" d="M303.875 265.521c-1.727-2.504-4.04-5.044-7.559-5.655-4.098-.712-7.61 1.356-10.89 3.144-6.755 3.68-14.596 5.773-22.612 5.959-4.374.101-8.746-.322-12.96-1.34-4.58-1.105-8.957-2.848-13.754-3.187-3.995-.283-7.14-2.795-9.99-.223-1.799 1.624-4.187 7.011-4.237 9.14-.158.7-.23 1.42-.2 2.147.281 6.814 6.603 11.495 13.402 14.068 15.307 5.794 33.714 6.382 49.81 2.9 6.954-1.503 15.107-3.604 19.88-8.494 5.469-5.602 3.042-12.759-.89-18.459" transform="translate(-160 -149) translate(160 149)"/>
                <path fill="#F66C65" d="M233.494 264.373c-5.5 3.42-8.08 9.502-6.74 15.159.535 2.254 4.599 1.447 4.066-.803-1.07-4.513 1.183-9.046 5.498-11.73 2.17-1.349-.677-3.96-2.824-2.626M243.808 268.367c-4.7 5.04-6.05 12.12-3.454 18.173.914 2.13 4.99 1.35 4.065-.803-2.273-5.296-1.187-11.068 2.926-15.48 1.671-1.792-1.88-3.667-3.537-1.89M261.36 287.112c-1.72-4.98-2.198-10.092-1.445-15.244.332-2.276-3.84-2.37-4.171-.106-.791 5.42-.258 10.914 1.55 16.152.758 2.195 4.827 1.405 4.065-.802M275.776 269.859c-1.306-2.007-5.002-.35-3.694 1.658 2.951 4.533 4.172 9.574 3.612 14.738-.248 2.286 3.923 2.387 4.17.105.622-5.723-.82-11.48-4.088-16.501M286.804 264.66c-2.153-1.373-4.352 1.66-2.21 3.024 4.75 3.027 7.371 7.978 7.116 13.01-.118 2.293 4.053 2.404 4.17.105.323-6.35-3.142-12.358-9.076-16.14M293.248 259.812c-2.465-.895-3.643 2.53-1.192 3.419 4.918 1.785 8.111 6.208 8.04 10.73-.037 2.292 4.134 2.409 4.17.105.1-6.249-4.339-11.83-11.018-14.254" transform="translate(-160 -149) translate(160 149)"/>
            </g>
        </g>
    </g>
</svg>
