<svg xmlns="http://www.w3.org/2000/svg" xmlns:xlink="http://www.w3.org/1999/xlink" width="76" height="34" viewBox="0 0 76 34">
    <defs>
        <path id="xmthhv1t4a" d="M0 0.092L21.57 0.092 21.57 27.161 0 27.161z"/>
        <path id="c3u1kkf2rc" d="M0.049 0.112L14.332 0.112 14.332 27.238 0.049 27.238z"/>
    </defs>
    <g fill="none" fill-rule="evenodd" opacity=".6">
        <g>
            <g>
                <g transform="translate(-1308 -38) translate(1308 38) translate(0 .099)">
                    <mask id="rvx0mmt5ab" fill="#fff">
                        <use xlink:href="#xmthhv1t4a"/>
                    </mask>
                    <path fill="#FFF" d="M15.963 16.519c0-2.75-2.107-4.964-5.035-4.964-2.786 0-5 2.071-5 4.964 0 3 2.107 5.107 4.964 5.107 2.893 0 5.071-2.179 5.071-5.107zm-.036 10v-2.143h-.071c-1.107 1.82-3.107 2.785-5.928 2.785-6 0-9.928-4.607-9.928-10.606C0 10.627 4.035 6.02 9.82 6.02c2.286 0 4.143.678 5.822 2.357V.092h5.928v26.426h-5.643z" mask="url(#rvx0mmt5ab)"/>
                </g>
                <path fill="#FFF" d="M41.354 26.617L34.247 6.797 40.39 6.797 44.175 19.153 44.247 19.153 48.032 6.797 54.174 6.797 47.032 26.617zM70.067 14.51c-.465-2.035-2.25-3.392-4.536-3.392-2.143 0-4 1.286-4.464 3.393h9zm-9.071 4c.321 2.25 2.214 3.75 4.642 3.75 1.607 0 2.643-.607 3.607-1.857h6.071c-1.892 4.321-5.5 6.857-9.678 6.857-5.714 0-10.499-4.607-10.499-10.5 0-5.713 4.571-10.642 10.392-10.642 5.928 0 10.464 4.679 10.464 10.821 0 .571-.036 1.036-.143 1.571H60.996z" transform="translate(-1308 -38) translate(1308 38)"/>
                <g transform="translate(-1308 -38) translate(1308 38) translate(23.429 5.051)">
                    <mask id="ddjlndbp0d" fill="#fff">
                        <use xlink:href="#c3u1kkf2rc"/>
                    </mask>
                    <path fill="#FFF" d="M14.332 23.877c0 1.856-1.505 3.361-3.361 3.361-1.857 0-3.361-1.505-3.361-3.361 0-1.856 1.504-3.361 3.36-3.361 1.857 0 3.362 1.505 3.362 3.361zM5.632.112l6.665 18.665-5.583 1.994L.05 2.105 5.633.112z" mask="url(#ddjlndbp0d)"/>
                </g>
            </g>
        </g>
    </g>
</svg>
