<svg xmlns="http://www.w3.org/2000/svg" xmlns:xlink="http://www.w3.org/1999/xlink" width="188" height="196" viewBox="0 0 188 196">
    <defs>
        <path id="zukx70kn2c" d="M0 0.124L255.719 0.124 255.719 254.235 0 254.235z"/>
        <path id="uwux84n8ze" d="M0 0L42 0 42 28 0 28z"/>
        <path id="4nltnpfeyg" d="M0.614 0.227L34.614 0.227 34.614 21.227 0.614 21.227z"/>
        <path id="7o9jl4b39i" d="M0.485 0.71L27.485 0.71 27.485 17.71 0.485 17.71z"/>
        <path id="m5za91e68k" d="M0.337 0.632L21.337 0.632 21.337 13.632 0.337 13.632z"/>
        <ellipse id="5dtlk6r6ca" cx="87" cy="98.19" rx="87" ry="97.543"/>
    </defs>
    <g fill="none" fill-rule="evenodd">
        <g>
            <g>
                <g transform="translate(-497 -227) translate(497 227) translate(5)">
                    <circle cx="87" cy="111.732" r="83" fill="#FFF"/>
                    <g>
                        <mask id="fssl405gsb" fill="#fff">
                            <use xlink:href="#5dtlk6r6ca"/>
                        </mask>
                        <g mask="url(#fssl405gsb)">
                            <g>
                                <path fill="#45414F" d="M62.494 197.554c.594 1.819 12.794 26.194 28.722 41.966 14.938 14.79-9.436-50.562-9.436-50.562l-19.286 8.596z" transform="translate(-24 -113)"/>
                                <path fill="#FC906B" d="M108.79 269.942c11.072.4 21.445-2.881 31.671-6.677.27-3.867.55-8.318.817-12.749.3-5.04.575-10.05.797-14.15.305-5.61.502-9.532.502-9.532s-1.58-5.657-.625-9.908c.42-1.843 4.198-1.42 2.965-2.324-.272-.341-.63-.655-1.093-.928l-28.917-16.822c-3.282-1.912-6.675 1.35-6.167 4.121-.295.438-13.863-8.864-13.924-8.259-1.91 18.948-3.517 58.92-4.115 75.072 6.412 1.69 13.72 1.998 18.09 2.156" transform="translate(-24 -113)"/>
                                <g transform="translate(-24 -113) translate(0 257.454)">
                                    <mask id="i5j6wej53d" fill="#fff">
                                        <use xlink:href="#zukx70kn2c"/>
                                    </mask>
                                    <path fill="#FF4202" d="M212.738 161.393c-5.99 8.91 26.687 60.247 8.674 67.45-47.261 18.901-142.015 37.059-151.502 15.88-4.263-9.515-29.897-56.687-45.592-82.11C-6.778 112.218-24.184 45.636 75.272 9.607c4.135-1.498 8.46-3.056 13.072-4.471l37.305-1.912 14.307 2.56s.212-6.196 8.901-5.624c12.253.788 41.68 3.436 59.823 23.199 13.996 15.245 42.128 70.459 46.5 86.832 6.067 22.734-41.097 49.214-42.442 51.201" mask="url(#i5j6wej53d)"/>
                                </g>
                                <path fill="#FC9972" d="M151.5 177.328c-1.832-3.12-3.718-6.302-5.73-9.408-.392-.594-.783-1.191-1.178-1.776-5.54-8.238-12.114-15.753-21.085-19.99-11.447-5.4-24.979-4.684-35.553 1.685-11.926 7.175-18.411 21.275-17.807 35.451.089 2 1.278 3.122 2.711 3.467 1.42 14 10.327 18.648 18.437 30.32 6.558 9.432 11.347 15.94 27 18.348.217.034-.316 1.75-.102 1.788 6.942 1.263 13.267.95 16.99.134 1.246-.272 2.485-.591 3.709-.96 3.833-1.155 7.504.195 11.263-.906 5.39-1.58 10.966-6.578 13.178-12.533 6.054-16.296-4.71-33.47-11.833-45.62" transform="translate(-24 -113)"/>
                                <path fill="#FC9972" d="M96.261 214.807c2.644 4.602 1.056 10.476-3.547 13.12-4.602 2.644-10.476 1.056-13.12-3.546-2.643-4.603-1.055-10.477 3.547-13.12 4.602-2.644 10.477-1.056 13.12 3.546" transform="translate(-24 -113)"/>
                                <path fill="#263238" d="M136.107 190.863c-1.386-2.23-2.834-4.415-4.36-6.555-.652-.914-2.223-.091-1.561.836 1.724 2.418 3.355 4.89 4.902 7.425.292.48.948.64 1.382.23 3.146-2.961 6.444 3.163 1.836 3.884-1.125.176-.716 1.9.407 1.724 2.833-.444 4.758-3.252 3.393-6.003-1.196-2.412-3.942-2.787-5.999-1.541M121.923 195.782c.886 1.543.815 3.247-.16 3.806-.973.56-2.481-.237-3.367-1.78-.886-1.542-.815-3.246.16-3.806.973-.56 2.481.238 3.367 1.78M145.592 182.187c.886 1.542.814 3.246-.16 3.806s-2.482-.237-3.368-1.78c-.886-1.542-.814-3.246.16-3.806s2.482.237 3.368 1.78" transform="translate(-24 -113)"/>
                                <path fill="#FC906B" d="M152.346 263.225c-4.58 4.624-10.845 12.133-33.645 15.489-21.28 3.137-34.68-4.919-41.829-11.575 3.554-2.452 14.576-7.032 19.189-8.463l31.188 2.004 14.307 2.59s2.1-.624 10.79-.045" transform="translate(-24 -113)"/>
                                <path fill="#263238" d="M135.955 211.049c-2.321 1.812-5.389 1.978-7.904.455-.81-.49-1.439.844-.632 1.331 2.923 1.77 6.677 1.531 9.367-.568.744-.58-.081-1.803-.83-1.218" transform="translate(-24 -113)"/>
                                <path fill="#FC9972" d="M122.717 287.156l-3.76 99.545-15.292-17.937-37.398 51.518s48.125 53.15 80.886 47.622c57.724-9.742 3.662-172.998 3.662-172.998s5.477-17.743 3.56-45.528c0 0-.589 5.483 1.888 3.591 2.477-1.89 3.26-11.865-2.191-13.388 0 0-.127-8.153-7.349-6.878 0 0-2.682-7.465-8.525-6.14 0 0-3.04-6.401-7.028-5.72-3.387.579-10.696 6.8-13.146 15.097 0 0-11.164-4.493-12.537-4.412-2.007.12-5.32 1.119-3.324 3.671 1.997 2.553 9.587 11.631 12.446 18.315 2.859 6.685 1.478 23.209 8.108 33.642" transform="translate(-24 -113)"/>
                                <path fill="#263238" d="M146.17 231.753c-1.47-2.776-3.64-6.303-7.307-5.883-.069.008-.137.02-.205.03-.007-.028-.017-.058-.031-.088-1.076-2.29-2.674-5.187-5.546-5.289-1.74-.061-3.325.998-4.707 1.938-1.437.978-2.77 2.106-3.982 3.35-2.682 2.753-4.758 6.045-6.097 9.615-.003-.001-.006-.003-.01-.003-6.657-1.27-12.854-4.186-18.096-8.479-.444-.363-.96.36-.519.722 5.314 4.351 11.595 7.284 18.33 8.6-.85 2.511-1.345 5.144-1.43 7.817-.017.569.866.666.884.094.187-5.9 2.368-11.597 6.131-16.147 1.884-2.279 4.204-4.35 6.8-5.788 1.829-1.014 3.688-1.138 5.225.42.96.972 1.597 2.221 2.173 3.445-1.311.417-2.5 1.248-3.614 2.017-1.915 1.318-3.717 2.783-5.425 4.36-.418.386.145 1.073.567.684 2.339-2.159 5.018-4.564 7.941-5.894 3.997-1.818 6.468 1.747 8.11 4.85.267.503 1.077.136.808-.371M154.47 239.425c-.001-.016 0-.032-.003-.048-.377-2.794-1.157-6.254-4.395-6.91-1.503-.304-3.052.14-4.486.564-1.847.547-3.655 1.202-5.434 1.94-.527.219-.157 1.027.372.807 2.461-1.02 5.2-2.218 7.871-2.48 3.722-.364 4.72 2.947 5.154 5.926-2.323.238-4.554.802-6.72 1.692-.529.217-.158 1.025.371.807 2.242-.922 4.552-1.47 6.965-1.67.354-.03.431-.379.304-.628M153.848 248.188l.813 4.967c.093.565.97.422.877-.143l-.813-4.968c-.092-.564-.97-.421-.877.144M145.403 293.032c-.992 1.317-2.235 2.344-3.717 3.07-.512.25-.144 1.059.371.807 1.616-.791 2.986-1.922 4.068-3.359.344-.457-.377-.975-.722-.518M110.64 241.825l-4.476-3.743c-.846-.708-5.477-3.888-3.522-5.064.484-.291.12-1.103-.371-.807-1.642.987-.982 2.81.183 3.902 2.42 2.272 5.12 4.303 7.667 6.434.44.367.955-.356.518-.722M85.818 214.487c-2.696-.467-4.457 2.512-4.375 4.883.093 2.693 2.225 4.722 4.832 5.042.569.07.662-.813.095-.883-1.96-.24-3.66-1.62-3.986-3.63-.317-1.955.949-4.943 3.339-4.529.565.098.655-.786.095-.883M80.367 325.144c-3.982-7.033-10.222-12.668-17.697-15.782-8.203-3.417-17.51-3.567-25.883-.674-.54.186-.166.993.371.807 16.049-5.544 34.042 1.256 42.402 16.02.28.494 1.09.128.807-.37" transform="translate(-24 -113)"/>
                                <path fill="#6F99FF" d="M48.569 111.984l.513-.853c1.482-2.462 4.91-3.118 7.658-1.464l.52.313c2.748 1.653 3.775 4.99 2.293 7.453l-.513.852c-1.482 2.463-4.91 3.118-7.658 1.465l-.521-.314c-2.748-1.653-3.774-4.99-2.292-7.452M1.689 97.193c-.297-3.674.682-7.373 2.93-11.109 2.954-4.91 6.72-8.201 11.282-9.873 4.577-1.674 9.437-.958 14.576 2.135 3.142 1.89 5.377 4.191 6.685 6.89.815 1.61 1.538 4.203 2.17 7.759l.626 3.52c.34 1.904 1.112 3.503 2.321 4.79.117.123.246.25.389.382 1.985 1.83 2.467 4.619 1.213 6.702-1.642 2.728-5.619 3.197-8.373.965-1.075-.87-1.881-1.637-2.419-2.295-1.223-1.514-2.153-4.053-2.787-7.644l-.633-3.635c-.19-1.177-.515-2.234-1.014-3.188-.796-1.664-1.99-2.976-3.585-3.935-1.841-1.108-3.8-1.627-5.892-1.572-2.085.065-3.908 1.372-5.449 3.934-1.522 2.528-1.669 4.866-.446 7.045.528.938 1.129 1.787 1.802 2.544 1.616 1.82 1.923 4.309.786 6.198l-.285.474c-1.815 3.016-6.393 3.204-9.039.35-2.951-3.184-4.569-6.664-4.857-10.437" transform="translate(-24 -113)"/>
                                <path fill="#45414F" d="M118.764 176.9c-.394-.338-.813-.55-1.246-.672-.084-.05-.181-.083-.299-.094-.089-.007-.181-.01-.271-.017-.042-.004-.085-.005-.127-.008-4.73-.315-10.922.938-13.455 5.412-.746 1.318-.816 3.105.773 3.804.582.256 1.212.167 1.805.049 1.985-.394 3.66-1.779 5.746-2.129 2.394-.402 5.227.138 7.07-1.805 1.245-1.312 1.457-3.299.004-4.54M135.011 176.851c2.674-.138 4.105-2.642 5.967-4.2 1.621-1.357 3.763-1.73 5.352-2.983.476-.374.952-.795 1.136-1.404.502-1.661-.902-2.77-2.388-3.06-5.047-.982-10.023 2.91-12.858 6.708-.025.034-.053.067-.077.102-.053.073-.11.145-.163.217-.069.096-.106.193-.123.288-.188.409-.3.865-.3 1.384 0 1.91 1.647 3.041 3.454 2.948" transform="translate(-24 -113)"/>
                                <path fill="#45414F" d="M135.913 122.978c-4.628-2.138-10-2.745-14.943-1.428-5.59 1.49-9.848 5.65-15.039 7.994-3.428-2.276-6.678-3.962-11.407-3.176-4.036.67-7.146 2.977-9.43 6.074-6.631-1.376-13.979 1.654-19.484 6.342-7.786 6.63-9.405 15.605-6.014 24.537-16.097 7.886-11.045 26.985-4.54 33.102 6.446 6.062 15.386 5.527 22.504 10.527 2.268 2.381 4.83 4.535 7.666 6.399 1.65 1.085 3.599.507 4.456-1.248 6.414-13.129 6.049-28.212-1.02-40.972 1.27-1.721 2.812-3.272 4.704-4.539 6.547-4.38 14.531-3.245 21.946-3.17 3.83.04 8.795.165 13.721-.287 1.07.043 2.148.045 3.238-.023 9.826-.621 17.725-6.836 17.882-17.133.142-9.34-5.72-19.063-14.24-22.999" transform="translate(-24 -113)"/>
                                <path fill="#263238" d="M114.464 133.966c-6.146-.093-11.297 4.13-12.553 10.024-9.532-4.307-19.876 3.112-18.666 13.752.106.933 1.527.589 1.422-.336-1.103-9.699 8.849-16.347 17.408-11.75.513.275 1.04-.039 1.115-.595.743-5.614 5.58-9.72 11.22-9.635.941.015.996-1.446.054-1.46M137.291 137.71c-2.238-4.045-6.836-6.139-11.358-5.195-.921.192-.584 1.614.337 1.422 3.884-.81 7.82 1.009 9.739 4.476.455.822 1.74.123 1.282-.702M65.414 171.898c-6.76 2.964-6.097 12.383.877 14.552.9.28 1.326-1.119.427-1.398-5.89-1.831-6.157-9.436-.601-11.872.86-.377.155-1.659-.703-1.282M195.172 324.704c-5.986-16.237-14.331-31.477-24.774-45.275-.425-.561-1.27.131-.846.692 10.388 13.726 18.67 28.885 24.624 45.035.243.66 1.238.206.996-.452" transform="translate(-24 -113)"/>
                            </g>
                        </g>
                    </g>
                </g>
                <g transform="translate(-497 -227) translate(497 227) translate(145 38)">
                    <mask id="o3kqjrvisf" fill="#fff">
                        <use xlink:href="#uwux84n8ze"/>
                    </mask>
                    <path fill="#44A4D8" d="M0 24.266L8.186 28s3.204-11.574 11.39-13.067C27.762 13.44 37.73 17.173 42 2.987L34.526 0s-1.069 5.6-8.187 7.093C19.221 8.587 8.543 4.48 0 24.266" mask="url(#o3kqjrvisf)"/>
                </g>
                <g transform="translate(-497 -227) translate(497 227) rotate(75 2.62 20.561)">
                    <mask id="uiavomol4h" fill="#fff">
                        <use xlink:href="#4nltnpfeyg"/>
                    </mask>
                    <path fill="#8D5690" d="M.614 17.868l6.557 3.359s2.682-9.047 9.286-9.843c6.603-.797 14.593 2.646 18.157-8.427l-5.99-2.73s-.91 4.4-6.653 5.247C16.227 6.322 7.667 2.548.614 17.868" mask="url(#uiavomol4h)"/>
                </g>
                <g transform="translate(-497 -227) translate(497 227) rotate(58 -83.49 74.485)">
                    <mask id="oym077uuoj" fill="#fff">
                        <use xlink:href="#7o9jl4b39i"/>
                    </mask>
                    <path fill="#8D5690" d="M.485 14.991l5.207 2.719s2.13-7.324 7.374-7.969c5.244-.644 11.588 2.143 14.419-6.82L22.728.71s-.722 3.562-5.284 4.248C12.883 5.644 6.086 2.588.485 14.99" mask="url(#oym077uuoj)"/>
                </g>
                <g transform="translate(-497 -227) translate(497 227) rotate(28 -186.63 106.77)">
                    <mask id="4rcwhnichl" fill="#fff">
                        <use xlink:href="#m5za91e68k"/>
                    </mask>
                    <path fill="#FFF" d="M.337 11.553l4.05 2.079s1.656-5.6 5.735-6.093c4.078-.493 9.013 1.638 11.215-5.217l-3.7-1.69s-.562 2.724-4.11 3.249C9.98 4.405 4.693 2.069.337 11.553" mask="url(#4rcwhnichl)"/>
                </g>
            </g>
        </g>
    </g>
</svg>
