<svg xmlns="http://www.w3.org/2000/svg" xmlns:xlink="http://www.w3.org/1999/xlink" width="600" height="428" viewBox="0 0 600 428">
    <defs>
        <path id="pmrvle0r8a" d="M0 426.274L599.992 426.274 599.992 0.033 0 0.033z"/>
    </defs>
    <g fill="none" fill-rule="evenodd">
        <g>
            <g>
                <path fill="#FDE5B4" d="M584.333 88.886c-1.768-13.641-5.4-27.354-11.933-39.466-6.466-11.987-15.692-22.08-26.806-29.72C524.907 5.483 498.876.372 474.287.184c-29.292-.225-58.804 5.657-85.772 17.3-12.973 5.602-24.965 12.919-36.553 21.04-11.422 8.005-22.552 16.505-34.62 23.498-2.763 1.6-5.57 3.12-8.433 4.527-1.59.783-3.199 1.532-4.823 2.24-.65.285-1.305.563-1.96.834-.584.241-1.17.477-1.757.707l-.33.12c-6.681 2.416-13.606 4.122-20.605 5.243-6.402 1.026-11.72 1.405-18.996 1.51-7.166.102-14.335-.218-21.48-.77-28.95-2.237-57.632-8.324-86.756-8.007-1.207.014-2.413.044-3.618.081-4.185 4.985-12.04 6.144-17.644 2.908-.453-.261-.911-.508-1.374-.744-.399-.136-.8-.259-1.204-.376-7.643 1.112-15.206 2.705-22.655 4.753-6.7 3.373-13.061 7.407-19.32 11.548-7.726 5.112-15.414 10.285-22.785 15.907-9.003 7.147-17.332 15.07-24.492 24.1-6.226 8.408-11.401 17.514-15.582 27.118-5.144 12.795-8.527 26.215-10.499 39.866-2.603 21.234-1.946 42.751.735 63.948.826 5.912 1.805 11.801 2.924 17.663 1.043 3.3 2.187 6.567 3.44 9.793 6.588 14.557 14.605 28.45 24.12 41.236 8.423 10.862 17.957 20.83 28.64 29.414 8.63 6.577 17.936 12.205 27.818 16.615 6.291 2.576 12.778 4.66 19.29 6.573 13.134 3.86 26.47 7.02 39.445 11.428 2.069.702 4.131 1.438 6.183 2.208 10.155 2.409 20.31 4.857 30.513 7.137 7.699 1.72 15.424 3.324 23.19 4.704 3.88.69 7.77 1.308 11.667 1.889l.707.105c.698.092 1.396.183 2.094.27 1.957.241 3.916.464 5.877.666 15.154 1.565 30.434 2.284 45.632 3.336 30.469 2.108 61.032 3.852 91.58 2.732 7.713-.282 15.419-.747 23.106-1.437 3.837-.345 7.67-.745 11.495-1.208.85-.103 1.698-.213 2.548-.318l.501-.06.245-.038c1.904-.288 3.811-.554 5.714-.856 14.853-2.36 29.555-5.745 43.876-10.377 1.977-.64 3.952-1.292 5.912-1.985.807-.286 1.61-.58 2.409-.888l.082-.032c.38-.17 1.68-.707 1.785-.756.621-.288 1.24-.584 1.855-.885 1.232-.605 2.45-1.239 3.654-1.898 2.724-1.493 5.378-3.116 7.959-4.848 1.3-.872 2.581-1.774 3.846-2.699.382-.28.783-.552 1.173-.836l.59-.487c9.84-8.085 18.633-17.245 26.763-27.058 2.18-2.631 4.294-5.313 6.41-7.997l.353-.45.725-.959c.856-1.13 1.707-2.266 2.553-3.405 3.71-4.993 7.33-10.052 10.931-15.125 8.383-11.805 15.338-24.106 21.31-37.308l.05-.118c.142-.347.285-.693.424-1.041.304-.755.603-1.512.897-2.27.663-1.705 1.302-3.418 1.92-5.14 1.094-3.053 2.116-6.133 3.07-9.233 2.141-6.955 3.937-14.017 5.412-21.145 1.512-7.3 2.351-14.726 3.992-21.996.225-1.001.464-1.999.71-2.994 1.883-15.731 3.3-31.526 4.555-47.26 2.403-30.15 4.527-61.2.624-91.311" transform="translate(-96 -166) translate(96 166)"/>
                <path fill="#2C2B3C" d="M249.238 426.419L256.071 426.419 256.071 248.648 249.238 248.648zM296.989 426.419L303.821 426.419 303.821 243.534 296.989 243.534zM15.131 426.419L21.964 426.419 21.964 243.534 15.131 243.534z" transform="translate(-96 -166) translate(96 166)"/>
                <path fill="#D0D0D0" d="M1.908 203.333L0 204.711 0 242.88 341.051 242.88 281.444 202.644z" transform="translate(-96 -166) translate(96 166)"/>
                <path fill="#C4C6C4" d="M0 256.686L341.051 256.686 341.051 242.88 0 242.88z" transform="translate(-96 -166) translate(96 166)"/>
                <g transform="translate(-96 -166) translate(96 166) translate(0 .145)">
                    <path fill="#2C2B3C" d="M287.889 242.466h-45.307c-.742 0-.78 1.21-.034 1.21h45.306c.742 0 .78-1.21.035-1.21M226.421 242.466h-19.335c-.74 0-.78 1.21-.034 1.21h19.335c.741 0 .78-1.21.034-1.21"/>
                    <path fill="#3E435D" d="M149.269 234.281L23.085 234.281 36.559 217.527 134.758 217.771z"/>
                    <mask id="9igkpjuf2b" fill="#fff">
                        <use xlink:href="#pmrvle0r8a"/>
                    </mask>
                    <path fill="#2C2B3C" d="M23.085 238.748L149.269 238.748 149.269 234.281 23.085 234.281zM95.798 231.25H57.122c-.236 0-.374-.167-.307-.374l.478-1.482c.067-.207.307-.375.537-.375h37.617c.23 0 .444.168.477.375l.24 1.482c.034.207-.13.374-.366.374M105.14 231.25h-5.475c-.237 0-.462-.167-.503-.374l-.295-1.482c-.041-.207.112-.375.342-.375h5.325c.23 0 .463.168.52.375l.41 1.482c.057.207-.088.374-.324.374M114.328 231.25h-5.475c-.237 0-.48-.167-.545-.374l-.462-1.482c-.065-.207.07-.375.3-.375h5.325c.23 0 .481.168.562.375l.577 1.482c.08.207-.046.374-.282.374M132.78 231.25h-5.474c-.237 0-.519-.167-.63-.374l-.797-1.482c-.112-.207-.015-.375.215-.375h5.325c.23 0 .52.168.647.375l.912 1.482c.128.207.04.374-.197.374M124.91 231.25h-5.476c-.236 0-.502-.167-.593-.374l-.304-.688c-.091-.207.023-.375.255-.375h5.379c.232 0 .507.168.615.375l.357.688c.107.207.003.374-.234.374M140.89 231.25h-5.476c-.236 0-.534-.167-.666-.374l-.439-.688c-.132-.207-.05-.375.182-.375h5.379c.232 0 .54.168.688.375l.492.688c.148.207.076.374-.16.374M136.123 224.86h-5.046c-.218 0-.501-.167-.632-.374l-.748-1.178c-.13-.207-.065-.375.147-.375h4.917c.212 0 .504.168.651.375l.839 1.178c.147.207.09.375-.128.375M119.202 224.709h-5.037c-.217 0-.462-.168-.547-.375l-.483-1.178c-.085-.207.018-.375.23-.375h4.907c.211 0 .465.168.566.375l.574 1.178c.101.207.007.375-.21.375M103.364 224.709h-5.036c-.217 0-.427-.168-.468-.375l-.235-1.178c-.04-.207.097-.375.31-.375h4.906c.212 0 .43.168.487.375l.326 1.178c.057.207-.072.375-.29.375M86.39 224.709h-5.035c-.218 0-.39-.168-.384-.375l.032-1.178c.006-.207.182-.375.394-.375h4.907c.211 0 .392.168.402.375l.06 1.178c.01.207-.158.375-.375.375M70.103 224.709h-5.037c-.217 0-.352-.168-.302-.375l.288-1.178c.05-.207.263-.375.475-.375h4.907c.212 0 .356.168.32.375l-.195 1.178c-.035.207-.239.375-.456.375M53.651 224.709h-5.036c-.217 0-.316-.168-.22-.375l.546-1.178c.096-.207.345-.375.557-.375h4.907c.212 0 .319.168.239.375l-.455 1.178c-.08.207-.32.375-.538.375M42.769 221.666h-4.832c-.209 0-.272-.168-.142-.375l.744-1.178c.13-.207.401-.375.604-.375h4.703c.203 0 .274.168.16.375l-.652 1.178c-.115.207-.377.375-.585.375M45.366 224.709h-10.34c-.217 0-.285-.168-.151-.375l.759-1.178c.133-.207.413-.375.625-.375h10.073c.212 0 .3.168.198.375l-.585 1.178c-.103.207-.362.375-.58.375M127.937 224.709H122.9c-.218 0-.482-.168-.591-.375l-.62-1.178c-.11-.207-.026-.375.185-.375h4.907c.212 0 .485.168.61.375l.712 1.178c.125.207.05.375-.167.375M111.034 224.709h-5.036c-.217 0-.444-.168-.506-.375l-.355-1.178c-.063-.207.058-.375.27-.375h4.907c.212 0 .447.168.526.375l.446 1.178c.079.207-.034.375-.252.375M94.771 224.709h-5.036c-.218 0-.408-.168-.425-.375l-.1-1.178c-.018-.207.14-.375.352-.375h4.907c.211 0 .41.168.444.375l.19 1.178c.035.207-.115.375-.332.375M78.224 224.709h-5.037c-.217 0-.37-.168-.342-.375l.16-1.178c.028-.207.223-.375.434-.375h4.907c.212 0 .374.168.362.375l-.069 1.178c-.012.207-.198.375-.415.375M61.676 224.709H56.64c-.217 0-.334-.168-.26-.375l.42-1.178c.074-.207.305-.375.517-.375h4.907c.212 0 .337.168.279.375l-.329 1.178c-.057.207-.28.375-.498.375M112.272 221.682h-4.754c-.209 0-.434-.167-.504-.374l-.395-1.179c-.069-.207.04-.374.242-.374h4.627c.203 0 .437.167.522.374l.485 1.179c.085.207-.015.374-.223.374M97.289 221.682h-4.754c-.209 0-.4-.167-.426-.374l-.15-1.179c-.026-.207.117-.374.32-.374h4.627c.203 0 .402.167.444.374l.24 1.179c.042.207-.093.374-.301.374M81.23 221.682h-4.753c-.209 0-.362-.167-.342-.374l.113-1.179c.02-.207.2-.374.403-.374h4.627c.203 0 .364.167.36.374l-.022 1.179c-.004.207-.177.374-.385.374M65.821 221.682h-4.754c-.208 0-.326-.167-.261-.374l.364-1.179c.065-.207.281-.374.484-.374h4.627c.203 0 .328.167.28.374l-.275 1.179c-.048.207-.256.374-.465.374M50.257 221.682h-4.754c-.209 0-.29-.167-.18-.374l.619-1.179c.109-.207.362-.374.565-.374h4.626c.203 0 .293.167.2.374l-.53 1.179c-.093.207-.337.374-.546.374M120.536 221.682h-4.754c-.209 0-.453-.167-.546-.374l-.53-1.179c-.094-.207-.005-.374.198-.374h4.627c.203 0 .456.167.565.374l.62 1.179c.11.207.028.374-.18.374M104.545 221.682h-4.754c-.209 0-.416-.167-.463-.374l-.269-1.179c-.047-.207.08-.374.283-.374h4.626c.203 0 .419.167.482.374l.359 1.179c.063.207-.055.374-.264.374M89.159 221.682h-4.754c-.209 0-.38-.167-.383-.374l-.017-1.179c-.003-.207.16-.374.362-.374h4.627c.203 0 .383.167.402.374l.107 1.179c.018.207-.135.374-.344.374M73.504 221.682H68.75c-.208 0-.343-.167-.301-.374l.239-1.179c.042-.207.24-.374.444-.374h4.626c.203 0 .347.167.32.374l-.149 1.179c-.026.207-.216.374-.425.374M57.85 221.682h-4.755c-.208 0-.307-.167-.22-.374l.496-1.179c.087-.207.322-.374.525-.374h4.626c.204 0 .31.167.24.374l-.406 1.179c-.071.207-.298.374-.507.374M108.087 227.92h-5.252c-.227 0-.452-.167-.503-.374l-.293-1.179c-.051-.207.086-.374.307-.374h5.123c.221 0 .455.167.522.374l.384 1.179c.068.207-.061.374-.288.374M125.553 227.92H120.3c-.227 0-.49-.167-.587-.374l-.556-1.179c-.097-.207.003-.374.224-.374h5.122c.221 0 .493.167.607.374l.646 1.179c.114.207.023.374-.204.374M116.95 227.92h-5.252c-.227 0-.471-.167-.546-.374l-.426-1.179c-.075-.207.044-.374.265-.374h5.123c.22 0 .474.167.565.374l.517 1.179c.09.207-.02.374-.246.374M90.387 227.92h-5.252c-.226 0-.414-.167-.418-.374l-.026-1.179c-.005-.207.17-.374.392-.374h5.122c.221 0 .417.167.438.374l.117 1.179c.021.207-.146.374-.373.374M73.402 227.92H68.15c-.227 0-.378-.167-.337-.374l.23-1.179c.04-.207.252-.374.473-.374h5.122c.221 0 .381.167.357.374l-.139 1.179c-.024.207-.227.374-.454.374M56.246 227.92h-5.251c-.227 0-.341-.167-.256-.374l.488-1.179c.086-.207.335-.374.556-.374h5.122c.221 0 .344.167.275.374l-.397 1.179c-.07.207-.31.374-.537.374M47.014 227.92h-14.83c-.227 0-.3-.167-.165-.374l.77-1.179c.136-.207.425-.374.646-.374H47.9c.221 0 .324.167.23.374l-.535 1.179c-.094.207-.354.374-.581.374M99.126 227.92h-5.252c-.227 0-.433-.167-.46-.374l-.158-1.179c-.028-.207.13-.374.35-.374h5.123c.22 0 .435.167.48.374l.248 1.179c.044.207-.104.374-.331.374M81.87 227.92H76.62c-.227 0-.396-.167-.378-.374l.102-1.179c.018-.207.212-.374.433-.374h5.122c.221 0 .4.167.397.374l-.01 1.179c-.003.207-.188.374-.415.374M64.615 227.92h-5.252c-.227 0-.359-.167-.295-.374l.362-1.179c.063-.207.294-.374.515-.374h5.123c.22 0 .362.167.314.374l-.27 1.179c-.048.207-.27.374-.497.374M53.438 231.099h-5.466c-.235 0-.354-.168-.263-.375l.512-1.178c.09-.207.35-.375.58-.375h5.336c.23 0 .357.168.283.375L54 230.724c-.074.207-.326.375-.561.375M35.174 231.099H29.71c-.236 0-.316-.168-.18-.375l.778-1.178c.136-.207.433-.375.664-.375h5.335c.23 0 .32.168.2.375l-.686 1.178c-.12.207-.41.375-.646.375M44.294 231.099h-5.465c-.236 0-.336-.168-.222-.375l.645-1.178c.113-.207.392-.375.622-.375h5.336c.23 0 .338.168.24.375l-.553 1.178c-.097.207-.367.375-.603.375M139.004 228.072h-10.011c-.227 0-.51-.167-.63-.375l-.861-1.482c-.12-.207-.04-.374.182-.374h9.726c.22 0 .52.167.669.374l1.066 1.482c.15.208.086.375-.141.375M133.326 221.649h-9.532c-.208 0-.472-.168-.588-.375l-.643-1.145c-.116-.207-.046-.375.157-.375h9.281c.203 0 .486.168.632.375l.806 1.145c.146.207.095.375-.113.375M231.994 214.833c.101.412-1.575 8.334 19.865 13.25 21.442 4.917 12.403-9.013 8.501-11.837-3.901-2.823-28.366-1.413-28.366-1.413" mask="url(#9igkpjuf2b)"/>
                    <path fill="#3E435D" d="M262.234 220.753c-.879 3.651-8.356 4.983-16.7 2.974-8.344-2.009-14.396-6.597-13.517-10.249.88-3.651 8.356-4.983 16.7-2.974 8.345 2.009 14.396 6.597 13.517 10.249" mask="url(#9igkpjuf2b)"/>
                    <path fill="#2C2B3C" d="M239.776 212.79c-1.063-.917-2.376-1.474-3.77-1.63-.749-.084-.867 1.083-.115 1.167 1.199.134 2.276.62 3.188 1.406.572.494 1.266-.453.697-.943" mask="url(#9igkpjuf2b)"/>
                    <path fill="#3E435D" d="M264.067 35.542v139.16c0 4.383-3.626 7.938-8.098 7.938H54.708c-4.472 0-8.098-3.555-8.098-7.939V35.542c0-4.383 3.626-7.938 8.098-7.938h201.26c4.473 0 8.099 3.555 8.099 7.938" mask="url(#9igkpjuf2b)"/>
                    <path fill="#2C2B3C" d="M264.067 35.542v120.209l-.108.001H46.716l-.106-.001V35.542c0-4.383 3.626-7.938 8.098-7.938h201.26c4.473 0 8.099 3.555 8.099 7.938" mask="url(#9igkpjuf2b)"/>
                    <path fill="#3E435D" d="M129.637 177.785c-.03.194.557 16.04.557 16.04l-5.947 11.863c-1.508 3.008.73 6.524 4.15 6.517l54.16-.102c3.286-.006 5.512-3.282 4.252-6.257l-5.613-12.643v-15.418h-51.56z" mask="url(#9igkpjuf2b)"/>
                    <path fill="#2C2B3C" d="M159.054 182.18H132.45c-.995 0-1.047 1.52-.046 1.52h26.605c.995 0 1.047-1.52.046-1.52M167.556 207.614H140.95c-.995 0-1.047 1.519-.046 1.519h26.605c.995 0 1.047-1.52.046-1.52M174.552 182.18h-9.557c-.995 0-1.047 1.52-.046 1.52h9.557c.996 0 1.048-1.52.046-1.52" mask="url(#9igkpjuf2b)"/>
                    <path fill="#94B9FE" d="M134.589 91.063L215.482 91.063 215.482 33.824 134.589 33.824z" mask="url(#9igkpjuf2b)"/>
                    <path fill="#FFF" d="M131.636 33.824v57.24H50.744V41.988c0-4.51 3.426-8.165 7.653-8.165h73.24z" mask="url(#9igkpjuf2b)"/>
                    <path fill="#E2C0FF" d="M134.7 151.179L215.594 151.179 215.594 93.94 134.7 93.94z" mask="url(#9igkpjuf2b)"/>
                    <path fill="#FFCBB8" d="M50.807 151.069L131.701 151.069 131.701 93.829 50.807 93.829z" mask="url(#9igkpjuf2b)"/>
                    <path fill="#2C2B3C" d="M194.386 56.514c-.258-2.474-1.602-4.75-3.57-6.074 1.156-1.325 1.668-3.05 1.607-4.773.228-1.84-.13-3.752-1.196-5.44-1.212-1.915-3.137-3.271-5.425-3.478-1.011-.091-2.01.078-2.909.464-1.356-1.424-3.097-2.423-5.281-2.689-2.29-.278-4.57.29-6.702 1.083-.168.062-.34.126-.512.192-1.459-.54-3.043-.76-4.642-.589-3.844.411-8.252 3.48-8.495 7.498-2.276.377-4.358 1.89-5.402 4.108-1.14 2.416-.938 5.33.393 7.595-2.856 1.138-3.93 4.784-2.938 7.731 1.155 3.426 4.19 5.355 7.293 6.428-.754.75-1.02 1.967-.681 3.03.471 1.48 1.867 2.368 3.25 2.623 1.717.318 3.583-.09 5.24-.58 1.389-.41 2.727-.98 3.999-1.697l.001-.001c.304-.171.604-.35.899-.538.05-.031.084-.07.106-.114 1.363-.185 2.725-.371 4.088-.558.224-.031.45-.06.675-.09 1.207-.16 2.415-.332 3.566-.77.01-.005.018-.01.025-.016.1.052.2.1.302.146l.003.002c.087.044.174.084.262.124 2.612 1.178 5.525 1.535 8.326.972 2.747-.554 6.078-2.178 6.502-5.494.17-1.33-.181-2.715-1.087-3.632 1.887-.852 2.515-3.43 2.303-5.463" mask="url(#9igkpjuf2b)"/>
                    <path fill="#A85856" d="M215.35 87.555v3.507h-80.76V89.44c6.76-5.248 15.62-9.869 27.67-11.8.23-.04.46-.073.695-.107l.013-.001c.053-.01.108-.017.162-.024.053-.009.108-.016.16-.024.032-.005.061-.01.092-.013.207-.03.413-.06.62-.088.126-.018.251-.034.378-.05l.018-.002c.13-.017.259-.035.389-.051.032-.003.066-.008.1-.01.006-.002.013-.004.02-.004.105-.011.21-.025.316-.038l.053-.006.006-.001h.006c.148-.02.302-.036.453-.052.024-.003.046-.006.068-.007.255-.028.51-.058.77-.083l.092-.009.142-.013c.193-.019.387-.037.583-.054.037-.005.073-.006.11-.01l.086-.007.01-.001c.307-.027.617-.052.928-.075.237-.018.476-.034.716-.049.074-.006.149-.01.224-.015.017-.001.032-.004.047-.009.009-.001.019-.005.028-.01.04-.019.074-.05.12-.09.011-.007.021-.017.033-.026.01-.01.024-.02.037-.03.027-.02.056-.041.091-.064.018-.01.037-.023.058-.034l.066-.036c.024-.013.05-.025.077-.037l.075-.03c.009-.005.018-.008.026-.01.027-.013.056-.023.086-.033.641-.223 2.011-.442 5.208-.382.38.006 1.205-.004 2.378.007h.106l.048.002.166.001.318.005.165.003.102.003.1.001h.022l.125.002.04.001.238.006.097.003h.023l.266.007c.592.017 1.234.039 1.92.073l.27.011.571.031.286.016c.094.005.19.01.284.018.005.002.01.002.014.002.091.004.184.01.277.016.028.003.057.004.085.006l.31.02.233.018c.007.002.014.002.022.002.085.005.17.011.258.019l.026.001h.002c.406.031.82.066 1.248.103 2.721.245 5.797.646 8.987 1.303 4.194.862 8.586 2.17 12.632 4.147.089.042.177.085.264.13.175.086.35.176.525.266.372.192.742.39 1.11.597.097.053.194.109.29.165.005.001.01.004.016.007.598.342 1.186.702 1.76 1.079.113.074.225.147.335.223.11.072.217.145.324.22.749.516 1.474 1.065 2.171 1.647.307.255.607.515.902.784.203.184.407.37.613.554" mask="url(#9igkpjuf2b)"/>
                    <path fill="#A85856" d="M177.968 63.992l.955 15.664c-1.715 2.897-6.564 2.924-9.574 2.625-1.374-.135-2.347-1.52-2.117-3.002.356-2.28.88-5.587 1.297-8.002.08-.466.155-.891.226-1.277.18-.992.32-1.68.39-1.835l8.823-4.173z" mask="url(#9igkpjuf2b)"/>
                    <path fill="#A85856" d="M182.327 60.288c-.195-1.892-.858-2.949-1.074-3.527-3.456-9.248-16.68-6.209-16.928 3.567-.117.016-.234.035-.352.062-1.308.305-2.546 1.312-2.985 2.725-.501 1.616.126 3.348 1.39 4.306 1.438 1.09 3.177.876 4.766.378 1.394 1.487 3.21 2.502 5.232 2.75 3.244.396 6.777-1.312 8.64-4.16 1.832.693 4.392-.278 4.809-2.432.459-2.373-1.592-3.895-3.498-3.669" mask="url(#9igkpjuf2b)"/>
                    <path fill="#2C2B3C" d="M170.181 59.547c-.948-.353-1.57 1.21-.618 1.564.947.353 1.57-1.21.618-1.564M177.636 59.342c-.37-.152-.886-.005-1.027.446l-.032.1c-.132.42-.006.949.41 1.12.37.152.885.005 1.027-.446l.031-.1c.132-.42.007-.949-.409-1.12M184.52 63.139c-.315-1.008-1.55-1.4-2.333-.801-.322.247.016.803.338.556.433-.331 1.13-.176 1.376.357.306.663-.351 1.442-.974 1.351-.389-.056-.506.599-.114.656 1.035.15 2.064-.975 1.706-2.12M164.79 65.077c-.492.227-1.156.03-1.36-.554-.22-.633.369-1.324.954-1.22.389.068.505-.587.115-.656-.964-.17-1.9.818-1.7 1.887.192 1.032 1.328 1.57 2.186 1.175.362-.166.168-.799-.195-.632M170.797 55.557c-1.032-.326-2.096.012-2.866.805-.574.592.334 1.488.904.9.468-.482 1.099-.592 1.704-.401.758.239 1.012-1.066.258-1.304M178.958 56.39c-.711-.877-1.776-1.213-2.816-.992-.776.165-.45 1.451.32 1.288.633-.134 1.22.14 1.637.655.522.644 1.379-.31.86-.951M174.869 65.579c-1.609.799-3.382.239-4.352-1.36-.24-.396-.83-.025-.588.374 1.19 1.96 3.327 2.597 5.283 1.626.398-.198.052-.837-.343-.64M174.583 62.116c-.585-.558-.888-1.3-.853-2.138.017-.393-.556-.412-.573-.018-.041.98.317 1.913 1.004 2.57.273.26.697-.152.422-.414" mask="url(#9igkpjuf2b)"/>
                    <path fill="#2C2B3C" d="M182.498 57.295c-.149-.201-.329-.395-.525-.585.17-.22.197-.56-.101-.731-1.394-.798-2.278-2.201-3.123-3.6-.192-.316-.55-.285-.752-.098-.038-.27-.043-.554.006-.86.04-.24-.064-.431-.214-.541.048-.135.085-.276.1-.426.028-.265-2.578-.548-2.756-.601.016-.082.039-.16.052-.245.099-.638-.799-.928-.899-.281-.036.233-.09.446-.155.648l-1.265.802c-.457.044-1.022.222-1.35.556-.127-.185-.368-.292-.602-.18l-.954.454c-.008.005-.015.004-.021.01l-.005.002-.083.04c-.16-.126-.38-.157-.57.032-.143.142-.275.292-.414.437l-2.374 1.131c-.182.087-.253.256-.245.428-.073.019-.143.057-.202.132-.626.799-.912 1.576-.902 2.51-.137.272-.268.55-.395.832-.658.454-1.072 1.46-.569 2.032-.242-.105-.55.069-.628.347-.292.024-.586.36-.43.75.021.053 1.18-.01 1.203.038.015.079 2.85-7.546 12.722-8.472-.016 3.003 3.224 4.043 4.769 6.136.377.512 1.057-.189.682-.697" mask="url(#9igkpjuf2b)"/>
                    <path fill="#E85170" d="M215.482 86.676v4.386H134.59v-4.88c8.042-4.904 17.432-8.498 27.715-8.542h.01c.69-.001 1.37-.206 2.074-.3l.027-.003c.004-.002.009-.002.013-.003l.018-.002.015-.001c.158-.022.316-.041.475-.06.006-.002.013-.004.02-.004.106-.011.21-.025.317-.038l.053-.006.006-.001.001.001.004-.001.005.001c.552-.056 1.306.433 2.103 1.027h.002c1.173.879 2.441 1.982 3.294 1.93.387-.026-.178-.898 5.854-.783.409.007.102-.845 1.416-.83.216 0 .518-1.473.786-2.151.08-.196.154-.326.223-.335h.002l.003-.001.04.001.237.006.098.003h.023c1.35.05 2.97.186 4.788.239h.015l.027.001h.001c9.643.286 17.814 3.27 18.142 3.388.766.274 1.522.575 2.271.89.421.177.84.36 1.255.55.052.023.103.045.152.07.413.189.824.383 1.23.585.084.039.166.08.249.121.128.064.255.127.382.193.388.195.775.397 1.159.602l.004.003c.084.045.17.09.254.137.039.02.077.04.115.063.089.049.178.097.267.149.157.084.316.174.473.262.298.17.595.339.888.513.158.093.315.185.47.278l.335.204c.155.092.308.187.462.283.047.028.093.057.14.087.326.201.65.408.968.613.052.035.1.065.148.098l.227.15c.554.362 1.098.732 1.637 1.107" mask="url(#9igkpjuf2b)"/>
                    <path fill="#A85856" d="M185.011 78.251c0 2.817-5.11 5.1-11.412 5.1-6.303 0-11.413-2.283-11.413-5.1 0-.206.027-.41.083-.61 2.283-.367 4.68-.637 7.2-.795.388-.023-.07-.905 5.952-.79.893.016 4.23-.069 8.753.275.54.593.837 1.241.837 1.92" mask="url(#9igkpjuf2b)"/>
                    <path fill="#2C2B3C" d="M179.088 68.607c-1.375 1.09-2.978 1.585-4.672 1.487-.394-.023-.406.644-.012.667 1.864.108 3.598-.474 5.104-1.668.318-.252-.105-.736-.42-.486M145.064 91.063c.998-2.155 2.287-4.138 3.843-5.892.401-.452-.232-1.143-.633-.69-1.727 1.947-3.142 4.165-4.207 6.582h.997z" mask="url(#9igkpjuf2b)"/>
                    <path fill="#A85856" d="M213.432 91.047h-3.606c-.157.02-.311.024-.453 0h-5.211c-.218-.174-1.177-3.125.323-6.456.12-.265 1.647-1.989 3.3-2.855.356-.187 2.852-.679 4.951 1.304.008.007.01.015.014.024 1.258 2.097 1.603 5.237.682 7.983" mask="url(#9igkpjuf2b)"/>
                    <path fill="#FFF" d="M213.302 74.685c-1.532 4.348-4.294 5.452-4.294 5.452l.083 1.012.005.061.148 1.82.65 8.007v.01h-.068c-.157.02-.311.024-.453 0h-.832l-.444-5.474v-.002l-.032-.375v-.004l-.324-3.999-.05-.601-.026-.326s-2.897-.562-5.105-4.55c-2.21-3.99-.936-15.667-.936-15.667l10.071-.966s3.137 11.252 1.607 15.602" mask="url(#9igkpjuf2b)"/>
                    <path fill="#E85170" d="M201.796 66.624l10.934-1.05s2.7 12.11-4.435 13.227c0 0-7.373.708-6.499-12.177" mask="url(#9igkpjuf2b)"/>
                    <path fill="#FFF" d="M212.05 64.173l-.741-4.028c-.07-.381-.6-.19-.53.188l.742 4.028c.07.381.6.19.53-.188M212.39 66.66c-.092-.377-.621-.188-.529.187.613 2.487.54 5.112-.185 7.56-.11.37.437.49.546.121.754-2.547.804-5.286.168-7.868" mask="url(#9igkpjuf2b)"/>
                    <path fill="#A85856" d="M211.832 90.452l-.041-.311.073-.052c.068-.048.055-.13.01-.18-.03-.029-.073-.047-.117-.032l-.23-1.758-.028-.212.22-.155c.125-.087-.017-.281-.14-.194-.037.025-.076.051-.114.08l-.005-.029-.3-2.3-.07-.541v-.001l-.083-.64-.036-.271-.207-1.587c.008-.003-.255-.193-.25-.152-.425.21-.817.483-1.168.815-.034.03-.068.063-.102.097h-.001l-.012.012c-.093.094-.183.193-.27.296-.412.491-.859 1.161-.896 1.856v.004c-.003.03-.003.063-.003.094 0 .099.012.19.033.279l.001.001v.002c.105.436.453.735.895.775.094.009.187.004.277-.01-.156.173-.3.359-.426.56-.296.478-.604 1.124-.457 1.716.127.516.58.697 1.015.616-.252.33-.67.86-.579 1.303.067.321.283.467.553.514.026.005.054.009.083.01.023.003.048.005.073.005l.052.001.04-.001c.066 0 .135-.006.204-.015l.068-.01c.149-.024.296-.062.432-.105l-.152.115h1.735c-.025-.199-.05-.396-.077-.594v-.001zM206.647 82.112c.64-.43 1.972-.97 2.29 0 .322.984-.763 2.056-1.37 2.632-.893.846-2.9 2.884-2.952 2.734l-.819 2.457c-.052-.149-1.007-5.235 2.851-7.823" mask="url(#9igkpjuf2b)"/>
                    <path fill="#2C2B3C" d="M211.455 84.1c-.319.794-.9 1.377-1.655 1.657-.232.085-.103.475.13.389.841-.312 1.511-.978 1.868-1.865.097-.243-.245-.424-.343-.18M212.224 86.206c-.31.993-.95 1.803-1.825 2.254-.22.114-.092.504.13.39.96-.497 1.694-1.364 2.037-2.463.078-.25-.264-.432-.342-.18M212.817 88.613c-.379.841-1.003 1.489-1.798 1.854-.225.103-.097.493.13.389.885-.407 1.588-1.123 2.01-2.063.108-.24-.235-.42-.342-.18M205.917 87.602c-.213-.134-.377.24-.166.372.725.458 1.232 1.184 1.462 2.058.068.256.426.115.359-.14-.26-.98-.846-1.779-1.655-2.29" mask="url(#9igkpjuf2b)"/>
                    <path fill="#94B9FE" d="M259.95 151.393h-41.964V33.824h34.34c4.21 0 7.624 3.413 7.624 7.624v109.945z" mask="url(#9igkpjuf2b)"/>
                    <path fill="#FFF" d="M227.37 42.007c0 1.858-1.507 3.364-3.365 3.364-1.859 0-3.365-1.506-3.365-3.364 0-1.859 1.506-3.365 3.365-3.365 1.858 0 3.365 1.506 3.365 3.365M227.37 57.425c0 1.858-1.507 3.364-3.365 3.364-1.859 0-3.365-1.506-3.365-3.364 0-1.859 1.506-3.365 3.365-3.365 1.858 0 3.365 1.506 3.365 3.365M227.37 72.843c0 1.858-1.507 3.364-3.365 3.364-1.859 0-3.365-1.506-3.365-3.364 0-1.859 1.506-3.365 3.365-3.365 1.858 0 3.365 1.506 3.365 3.365M227.37 88.26c0 1.859-1.507 3.365-3.365 3.365-1.859 0-3.365-1.506-3.365-3.364 0-1.859 1.506-3.365 3.365-3.365 1.858 0 3.365 1.506 3.365 3.365M227.37 103.678c0 1.859-1.507 3.365-3.365 3.365-1.859 0-3.365-1.506-3.365-3.365 0-1.858 1.506-3.364 3.365-3.364 1.858 0 3.365 1.506 3.365 3.364M238.725 39.92h-8.645c-.379 0-.398.588-.018.588h8.646c.378 0 .398-.589.017-.589M245.209 41.835h-15.227c-.379 0-.399.589-.018.589h15.227c.379 0 .399-.59.018-.59M243.048 43.75h-12.87c-.378 0-.398.59-.017.59h12.87c.378 0 .397-.59.017-.59M238.725 101.468h-8.645c-.379 0-.398.59-.018.59h8.646c.378 0 .398-.59.017-.59M238.725 85.68h-8.645c-.379 0-.398.59-.018.59h8.646c.378 0 .398-.59.017-.59M245.209 103.482h-15.227c-.379 0-.399.59-.018.59h15.227c.379 0 .399-.59.018-.59M243.048 105.3h-12.87c-.378 0-.398.589-.017.589h12.87c.378 0 .397-.59.017-.59M240.788 87.999H230.08c-.379 0-.398.589-.017.589h10.708c.378 0 .398-.59.017-.59M243.44 90.317h-13.36c-.379 0-.398.589-.018.589h13.361c.379 0 .398-.59.018-.59M237.885 54.812h-8.645c-.379 0-.399.589-.018.589h8.645c.379 0 .399-.59.018-.59M239.948 57.13H229.24c-.379 0-.398.59-.018.59h10.708c.379 0 .399-.59.018-.59M242.6 59.448h-13.36c-.379 0-.399.59-.018.59h13.361c.379 0 .398-.59.017-.59M238.578 70.23h-8.645c-.379 0-.399.589-.018.589h8.645c.379 0 .399-.59.018-.59M240.788 74.402H230.08c-.379 0-.398.589-.017.589h10.708c.378 0 .398-.59.017-.59M243.293 72.253h-13.36c-.379 0-.399.59-.018.59h13.36c.38 0 .4-.59.018-.59" mask="url(#9igkpjuf2b)"/>
                    <path fill="#FB635D" d="M90.651 60.934c-.065.513-1.327 16.921-1.327 16.921l-7.311-1.336 1.002-16.15 7.636.565zM88.34 41.125l.19.749.794 3.11.661 2.594 4.557 26.316 12.477 4.492s.101-.574.24-1.58c1.026-7.484 4.07-38.919-17.715-35.877-.393.052-.794.118-1.204.196" mask="url(#9igkpjuf2b)"/>
                    <path fill="#F6B1A5" d="M83.812 58.053c2.216 6.36 8.103 9.424 13.605 7.508 5.502-1.917 8.535-8.087 6.32-14.447-2.216-6.36-8.396-9.746-13.898-7.83-5.502 1.916-8.242 8.409-6.027 14.769" mask="url(#9igkpjuf2b)"/>
                    <path fill="#F6B1A5" d="M88.138 73.087L93.472 75.094 99.37 73.116 99.279 63.023 88.906 60.368 88.655 64.507 88.635 64.843 88.63 64.919 88.626 64.987 88.602 65.401 88.599 65.436z" mask="url(#9igkpjuf2b)"/>
                    <path fill="#2C2B3C" d="M93.395 52.453c.398.769.95 1.394 1.649 1.887.38.269 0 .844-.38.576-.802-.565-1.437-1.303-1.892-2.182-.217-.417.407-.698.623-.28M94.145 60.055c1.452.454 3.17-.072 4.209-1.27.344-.398-.297-.793-.642-.394-.803.927-2.106 1.307-3.223.958-.482-.15-.825.555-.344.706" mask="url(#9igkpjuf2b)"/>
                    <path fill="#FB635D" d="M98.505 48.064c-.643.1-2.68.438-2.928.286-.223-.136-.323-.421-.254-.68.15-.566.946-.707 1.41-.767.608-.079 1.208-.017 1.785.176.168.057.254.18.277.318.12.255.034.617-.29.667M86.386 52.398c.576-.3 2.418-1.232 2.528-1.501.1-.242.01-.53-.199-.698-.458-.367-1.182-.01-1.592.216-.535.295-.982.7-1.332 1.198-.102.144-.098.294-.036.419.056.276.34.517.63.366" mask="url(#9igkpjuf2b)"/>
                    <path fill="#2C243C" d="M88.63 64.919c1.563.641 3.255.93 4.947.83.245-.013.233-.404-.012-.39-1.686.098-3.364-.197-4.91-.853l-.02.337-.005.076z" mask="url(#9igkpjuf2b)"/>
                    <path fill="#2C2B3C" d="M97.51 51.062c.56-.31.936.36.939.87.016.176-.018.35-.15.5-.201.23-.539.23-.756.026-.334-.313-.507-1.132-.032-1.396" mask="url(#9igkpjuf2b)"/>
                    <path fill="#FB7267" d="M87.591 42.75l1.733 2.233c19.482-5.474 14.428 29.05 14.428 29.05l3.506 2.774c1.027-7.485 4.07-38.92-17.714-35.878l-1.014.945-.939.877z" mask="url(#9igkpjuf2b)"/>
                    <path fill="#2C2B3C" d="M88.816 54.13c.48-.424.991.15 1.103.646.055.168.058.345-.037.52-.148.269-.477.34-.733.189-.394-.234-.74-.996-.333-1.355" mask="url(#9igkpjuf2b)"/>
                    <path fill="#F6B1A5" d="M76.477 77.8l.472 1.827.43 1.663.012.048 1.073 4.15 1.44 5.575h28.22l2.793-12.58.336-1.52s-.76-.465-2.173-1.088v-.002l-.08-.035c-.45-.196-.965-.408-1.541-.625-1.042-.393-2.283-.804-3.703-1.177-.002 0-.002 0-.003-.002-.998-.26-2.086-.502-3.254-.707-.39-.068-.787-.131-1.19-.19-1.426-.208-2.961-.352-4.596-.404l-.375-.01c-1.596-.042-3.144-.016-4.622.054-.53.025-1.052.056-1.565.093-.3.022-.596.046-.89.07-.716.061-1.41.132-2.079.209l-.013.001-.018.003c-1.05.12-2.038.255-2.954.395l-.593.094c-.147.024-.292.047-.435.072-.686.114-1.326.23-1.911.341-.192.035-.379.072-.56.107-.088.018-.177.039-.26.065-.156.044-.303.103-.444.173-.447.22-.823.554-1.097.96h-.001c-.463.681-.646 1.565-.419 2.44" mask="url(#9igkpjuf2b)"/>
                    <path fill="#E2C0FF" d="M60.136 91.063h61.428c-.278-3.06-2.135-11.587-14.095-15.935-1.142-.416-2.377-.795-3.712-1.125-1.026-.255-3.258-.676-4.387-.887-.088.047-1.173.598-2.772.93h-.001c-.35.072-.725.136-1.128.183h-.001c-1.62.188-3.634.112-5.81-.693-.496-.183-.998-.402-1.507-.666 0 0-.318.004-.891.047-.507.039-1.214.108-2.078.232l-.013.001-.018.003c-.852.125-1.855.304-2.965.561-.181.042-.367.086-.554.132l-.429.107c-.875.229-1.803.504-2.769.837-.147.05-.294.102-.443.156-.36.129-.725.266-1.094.413h-.001c-.554.22-1.116.458-1.683.72-5.477 2.512-11.424 6.993-15.077 14.984" mask="url(#9igkpjuf2b)"/>
                    <path fill="#FB7267" d="M74.171 91.063h14.922c-.26-2.203-.89-7.383-1.446-13.514-.135-1.489-.266-3.034-.386-4.608l-.001-.024c-.254-3.323-.458-6.767-.556-10.059-.022-.748-.038-1.49-.048-2.219-.043-3.129.03-6.055.274-8.522.059-.598.126-1.168.208-1.71.41-2.764 1.103-4.733 2.186-5.422v-.002l-.344-1.352-.45-1.757-.19-.749s-5.878.646-9.443 8.19c-1.518 3.212-2.828 16.091-3.684 26.763-.134 1.68-.258 3.305-.37 4.83l-.066.926-.005.06-.044.62c-.015.203-.03.403-.043.602-.076 1.086-.144 2.099-.206 3.017v.001l-.07 1.096c-.123 1.893-.204 3.253-.238 3.833" mask="url(#9igkpjuf2b)"/>
                    <path fill="#2C2B3C" d="M73.305 83.442c1.796-2.025 3.705-3.95 5.723-5.756 1.063-.95 2.155-1.869 3.275-2.752.694-.547 1.721-1.689 2.704-1.493.461.092.756.42.813.797l1.425 2.343c.245.402-.35.837-.597.431l-1.152-1.894c-.17.185-.381.35-.6.506l1.232 1.842c.262.393-.333.826-.598.431l-1.24-1.855c-.067.047-.133.095-.195.142l-.703.534 1.258 1.729c.279.383-.318.815-.598.431l-1.247-1.714-.57.433-.314.238 1.336 1.733c.29.375-.307.807-.597.431l-1.326-1.718-.815.62 1.312 1.737c.285.38-.312.81-.597.432l-1.301-1.724-2.514 1.91-.824.73c-.083.074-.17.096-.25.085l-1.316 1c-.143.11-.294.09-.406.01-.25.272-.498.546-.744.822-.314.354-.89-.106-.574-.46" mask="url(#9igkpjuf2b)"/>
                    <path fill="#F6B1A5" d="M65.55 91.063h9.268c.093-.069.199-.151.318-.247 1.249-1.005 2.473-2.22 2.893-3.964.08-.329.246-.814.435-1.363.586-1.722 1.375-4.082.297-4.308-.452-.095-.92 0-1.37.156l-.109.04h-.001c-.25.092-.49.198-.72.298-.533.231-1.055.495-1.563.787-.09.016-.18.032-.27.052-.23.047-.46.101-.687.163l-.063.018h-.001c-2.46.69-4.688 2.26-6.34 4.425-.068.091-.108.146-.115.158l-.001.001c-.814 1.1-1.478 2.343-1.951 3.7-.01.028-.017.058-.02.084" mask="url(#9igkpjuf2b)"/>
                    <path fill="#F6B1A5" d="M75.81 80.758s-3.676 4.09-4.689 4.737c-1.013.646-3.6 1.784-3.6 1.784s4.561-6.452 8.29-6.521" mask="url(#9igkpjuf2b)"/>
                    <path fill="#FB7267" d="M80.87 80.838c.551-.765 1.53-.96 2.242-1.524 1.407-1.115 1.895-3.167 3.846-3.575.416-.087.63.481.322.662l.12.087c.135.098.138.305.076.442-.68 1.513-1.442 2.985-2.285 4.414-.24.408-.894.067-.653-.342.637-1.08 1.227-2.184 1.771-3.311l-.006.007-.01.027c-.975 1.894-2.754 3.08-4.508 4.187-.228.144-.484-.015-.55-.226-.037.173-.012.361.103.565.234.41-.39.803-.624.39-.342-.602-.244-1.248.156-1.803" mask="url(#9igkpjuf2b)"/>
                    <path fill="#2C2B3C" d="M74.298 85.563c.307 1.02.691 2.007 1.163 2.963.125.252-.249.49-.375.234-.489-.99-.894-2.013-1.212-3.071-.081-.272.342-.4.424-.126M83.827 52.2c.033-.283.464-.181.43.099-.484 4.04-.637 8.11-.464 12.175.012.284-.43.298-.442.013-.175-4.104-.013-8.21.476-12.287M83.44 66.696c.005-.283.447-.298.441-.013-.027 1.415.07 2.819.303 4.215.046.277-.377.407-.424.126-.239-1.434-.349-2.873-.32-4.328M80.656 60.581c.017-.281.46-.298.442-.013-.282 4.703-.064 9.416.65 14.073.043.28-.4.292-.442.013-.714-4.657-.932-9.37-.65-14.073M82.468 49.17c.08-.272.512-.174.431.1-.809 2.725-1.331 5.518-1.553 8.353-.022.28-.464.297-.442.013.225-2.872.744-5.703 1.564-8.466M78.037 68.022c.002-.283.444-.298.442-.013l-.06 8.916c-.001.283-.444.298-.442.013l.06-8.916M83.995 80.751l1.24 8.697c.04.28-.403.292-.443.013l-1.24-8.697c-.04-.28.403-.292.443-.013M82.108 82.6l.883 5.674c.043.28-.399.29-.442.012l-.883-5.673c-.044-.28.399-.292.442-.013M106.213 60.862c.35 2.816.404 5.648.165 8.475-.024.28-.467.297-.442.013.24-2.826.184-5.66-.165-8.475-.035-.282.407-.293.442-.013M104.217 51.52c.671 1.84 1.153 3.728 1.457 5.662.044.28-.399.291-.442.013-.298-1.895-.782-3.746-1.439-5.548-.097-.267.326-.393.424-.126M86.515 42.307c.773.138 1.473.454 2.097.928.227.172-.075.496-.3.325-.564-.428-1.2-.698-1.896-.822-.28-.05-.18-.48.1-.43M83.987 45.883c.347-.829.853-1.566 1.502-2.187.205-.196.531.102.326.299-.624.598-1.103 1.297-1.436 2.094-.11.263-.5.055-.392-.206M111.67 79.534c.081-.272.512-.174.431.1-.572 1.926-.843 3.902-.809 5.912.005.284-.437.298-.442.013-.035-2.046.238-4.063.82-6.025M72.383 78.342c.215.69.317 1.396.304 2.12-.005.283-.447.298-.442.013.012-.687-.082-1.351-.286-2.007-.084-.271.34-.399.424-.126M94.047 76.019c2.21-.123 4.361-.575 6.436-1.344.266-.098.392.325.126.424-2.109.782-4.304 1.236-6.55 1.362-.283.016-.297-.426-.012-.442M89.546 74.947c.672.508 1.453.805 2.292.869.281.021.298.463.013.442-.964-.074-1.832-.402-2.604-.986-.227-.171.074-.495.3-.325" mask="url(#9igkpjuf2b)"/>
                    <path fill="#2C243C" d="M103.8 125.486c-.119-.904-.733-1.594-1.085-2.35-2.252-4.823-3.351-10.695-3.683-12.674-.397-2.356-1.881-4.292-3.89-4.68-.046-.01-.092-.017-.138-.025-.965-.15-1.955.065-2.815.605-.228-.081-.459-.14-.69-.179-1.834-.305-3.746.68-5.04 2.255-1.75 2.13-1.804 5.39-2.324 8.247-.27 1.481-2.735 8.518-2.817 9.352-.032.326-.03.666.006.999.105.963.514 1.872 1.31 2.25.23.108.46.136.689.114.096-.009.193-.027.289-.052.174-.045.348-.112.52-.184.265-.112.546-.255.832-.25.331.006.587.263.859.462.847.619 1.855.812 2.829.636.996-.18 1.911-.772 2.573-1.675.059-.003.12-.028.176-.084.675-.667 1.64-.1 2.251.416.457.386.864.844 1.324 1.213.09.072.182.142.276.206.126.086.258.164.395.231.674.328 1.396.25 2.008-.218.59-.45 1.028-1.125 1.607-1.589.262-.21.553-.363.872-.374.471-.017.925.191 1.382.29.701.154 1.405.023 1.867-.68l.02-.03c.397-.623.497-1.47.397-2.232" mask="url(#9igkpjuf2b)"/>
                    <path fill="#F69A91" d="M97.706 115.978c0 3.585-2.443 6.156-5.57 6.156-3.126 0-5.752-2.571-5.752-6.156 0-3.585 2.796-9.04 5.922-9.04s5.4 5.455 5.4 9.04" mask="url(#9igkpjuf2b)"/>
                    <path fill="#F69A91" d="M89.311 120.229L89.261 125.602 92.427 126.655 95.289 125.587 94.877 118.817z" mask="url(#9igkpjuf2b)"/>
                    <path fill="#2C243C" d="M88.738 113.368c.315-.153 1.32-.628 1.385-.77.058-.128.017-.283-.091-.375-.237-.202-.632-.02-.856.095-.293.151-.541.362-.74.623-.056.076-.058.156-.027.223.023.148.17.28.329.204M95.464 113.391c-.307-.169-1.288-.695-1.346-.84-.052-.13-.003-.283.11-.37.246-.19.632.013.85.14.285.165.522.389.707.66.054.078.051.158.017.224-.03.147-.183.271-.338.186" mask="url(#9igkpjuf2b)"/>
                    <path fill="#2C243C" d="M98.708 111.132c-.605-1.664-1.74-3.149-3.366-3.844-.041-.047-.099-.082-.176-.089l-.194-.018c-.002-.157-.28-.404-.559-.566.187-.255.367-.515.54-.779.428-.655.803-1.53.283-2.248-.388-.534-1.126-.752-1.745-.589-.733.194-1.277.825-1.59 1.504-.313.676-.442 1.422-.398 2.16-1.16.241-2.25.723-3.454 1.357-.88.463-1.675 1.114-2.254 1.94-.658.94-.929 2.061-.97 3.205-.049 1.416.192 2.825.1 4.241-.003.037.002.068.01.097-.236.23.117.613.373.39 1.462-1.279 1.712-5.138 2.415-6.84 1.379-.623 6.387-1.879 7.015-2.986.299 1.33 1.556 2.632 2.306 3.752 1.023 1.526 1.517 3.763 1.643 5.678.005.075.035.134.077.178l-.003.066c-.014.35.518.368.532.016.091-2.21.182-4.515-.585-6.625" mask="url(#9igkpjuf2b)"/>
                    <path fill="#F69A91" d="M86.995 117.422c.117-.387.086-.795-.103-1.174-.01-.017-.019-.032-.03-.046.024-.035.04-.076.047-.125.068-.496-.38-.922-.855-.879-.544.049-.888.57-.925 1.092-.072 1 .901 2.386 1.962 1.659.23-.157.11-.507-.096-.527M98.41 115.277c-.306-.215-.761-.156-.949.189-.077.141-.022.279.076.356-.006.035-.012.071-.016.107l-.005.054c-.008.02-.016.042-.022.063-.072.23-.107.482-.143.72-.03.193-.082.405.019.583l.021.032c-.039-.01-.078-.027-.118-.048-.3-.165-.584.295-.282.461.373.205.8.18 1.157-.054.402-.264.591-.734.643-1.203.047-.428 0-.993-.38-1.26" mask="url(#9igkpjuf2b)"/>
                    <path fill="#2C243C" d="M95.935 120.755c-1.366.804-2.98 1.071-4.522.735-.184-.04-.27.249-.084.29 1.616.353 3.31.088 4.743-.757.165-.097.028-.365-.137-.268M91.939 114.234c.009.475-.096.92-.322 1.334-.093.169.157.33.25.16.251-.459.378-.958.367-1.485-.003-.193-.299-.204-.295-.009M94.55 114.271c0-.146-.102-.236-.236-.256-.243-.036-.376.21-.375.424 0 .011.002.021.003.032-.004.142-.004.29.023.428.033.175.195.31.372.246.158-.057.21-.222.215-.379.004-.164-.001-.33-.002-.495M90.146 114.131c0-.145-.102-.235-.236-.255-.243-.037-.376.21-.375.423 0 .011.002.021.003.032-.004.142-.004.29.023.428.033.175.195.31.372.247.158-.057.21-.223.215-.38.004-.164-.001-.33-.002-.495" mask="url(#9igkpjuf2b)"/>
                    <path fill="#F69A91" d="M129.274 130.52l-.103.028c-.05-.136-.166-.244-.332-.244-.246-.002-.458.03-.668.074-.064-.176-.25-.311-.444-.26-.968.256-1.94.406-2.925.455-1.007-.06-2.014-.121-3.02-.183.901-.528 2.022-1.325 1.789-2.036-.35-1.06-1.937.056-2.432.296-.907.438-1.921.331-2.854.686-.649.246-1.248.635-1.755 1.116-.972.922-1.564 2.114-1.916 3.393-.111.402-.2.81-.267 1.223-.042.267.16.456.36.49.03.023.063.047.101.063.77.333 1.566.626 2.257 1.116.504.358.974.716 1.543.959.352.15.557-.272.419-.554.187-.75.311-1.515.613-2.152.267-.56.675-1.022 1.39-1.284 1.107-.409 2.389-.487 3.548-.662 1.64-.246 4.151-.297 5.102-1.94.166-.287-.081-.657-.406-.583M68.16 133.814c-.153-.946-.411-1.88-.825-2.729-.337-.698-.781-1.34-1.357-1.886-.507-.482-1.107-.87-1.755-1.116-.933-.355-1.948-.248-2.854-.686-.495-.24-2.082-1.356-2.43-.296-.235.71.887 1.508 1.788 2.036l-3.02.183c-.985-.049-1.958-.2-2.927-.456-.194-.05-.38.085-.443.26-.209-.043-.421-.075-.667-.074-.168 0-.284.109-.334.245l-.102-.028c-.325-.074-.573.297-.407.583.953 1.646 3.464 1.694 5.104 1.94 1.158.176 2.44.253 3.549.662.509.189.862.476 1.119.829.516.705.648 1.67.883 2.608-.14.282.068.703.417.553.57-.242 1.04-.6 1.543-.958.691-.49 1.487-.782 2.257-1.116.039-.017.073-.04.1-.064.204-.032.406-.222.361-.49M87.498 125.395s3.127-.256 5.593-.284c2.466-.028 4.379.284 4.379.284s-.143 2.745-.254 2.745c-.11 0-10.54-.13-10.664-.235-.122-.105.946-2.51.946-2.51" mask="url(#9igkpjuf2b)"/>
                    <path fill="#94B9FE" d="M121.192 135.343c-2.082 7.267-3.23 12.496-4.814 15.758h-13.451c-.021-.07-.03-.11-.03-.11v.11H82.242l.01-.095-.017.095H66.727c-3.69-6.637-5.231-17.308-5.231-17.308l1.103-.512 4.736-2.196.852-.394 5.931 13.693c2.147-17.697 13.122-19.273 13.38-18.99.516.57 1.038 1.017 1.555 1.361 2.772 1.845 5.47.741 7.036-.271.863-.559 1.38-1.09 1.38-1.09 13.633 1.81 12.244 18.216 12.244 18.216l4.671-9.817.23.052 5.026 1.145 1.552.353z" mask="url(#9igkpjuf2b)"/>
                    <path fill="#2C2B3C" d="M64.389 130.453c-.713-.588-1.619-.788-2.506-.57-.222.054-.142.407.08.352.807-.198 1.593-.007 2.238.524.177.146.363-.162.188-.306M118.874 130.987c-.812.123-1.51.565-1.997 1.236-.136.187.165.378.3.192.433-.596 1.06-.967 1.776-1.076.225-.034.145-.387-.08-.352M83.663 128.69c-.056-.225-.4-.145-.344.081.25.996.345 2.002.288 3.028-.014.233.34.244.353.011.059-1.059-.04-2.093-.297-3.12M83.99 133.38c-.015-.23-.368-.243-.354-.01.144 2.365-.211 4.686-1.056 6.893-.083.217.256.32.339.103.855-2.236 1.216-4.589 1.07-6.986M102.637 128.183c-.096-.212-.409-.043-.313.168.804 1.758.742 3.689.65 5.583-.012.232.341.243.353.01.096-1.962.142-3.942-.69-5.761M103.535 139.525c-.047-.229-.391-.147-.344.081.25 1.212.54 2.612-.068 3.765-.51.965-1.55 1.498-2.572 1.674-2.17.375-4.289-.677-6.46-.582-2.034.09-3.85 1.277-5.9 1.422-2.109.149-4.331-.654-5.292-2.702-.1-.21-.412-.041-.313.169.853 1.817 2.708 2.79 4.626 2.903 2.745.162 5.121-1.63 7.834-1.406 2.29.19 4.757 1.26 6.958.082 2.08-1.114 1.952-3.362 1.531-5.406M74.82 147.024c-.02-.229-.374-.242-.354-.01.048.545.032 1.085-.048 1.627-.033.23.32.239.354.01.08-.54.095-1.081.047-1.627M110.024 145.098c-.017-.23-.37-.244-.354-.011l.15 2.112c.015.23.369.243.353.01l-.15-2.111" mask="url(#9igkpjuf2b)"/>
                    <path fill="#FFF" d="M89.576 117.261s2.222.731 5.019 0c0 0 .108 2.484-2.719 2.446-2.3-.03-2.3-2.446-2.3-2.446" mask="url(#9igkpjuf2b)"/>
                    <path fill="#F69A91" d="M192.152 137.518l-.084.322-.453 1.752-2.837 10.977h-21.396l-3.143-14.16s2.21-1.143 6.005-2.01c.527-.12 1.085-.235 1.672-.341 1.663-.3 3.559-.527 5.65-.595 1.812-.059 3.549-.008 5.164.106.589.042 1.159.091 1.712.147 2.223.225 4.148.55 5.623.83l.311.06c.974.19 1.677.988 1.825 1.933.05.316.037.648-.05.979" mask="url(#9igkpjuf2b)"/>
                    <path fill="#FFF" d="M196.87 143.093c.394.086-1.327-7.037-1.679-7.243-.397-.234-.88-.454-1.418-.66l-.011-.004c-3.456-1.316-9.199-2.004-9.452-1.428-.06.134-1.757 3.24-7.037 3.292-2.943.028-5.654-.48-7.64-2.584l-.385-.051c-2.848.086-4.499.286-6.68.956l-.863 2.41-.05.314-.118.734v.005l-1.962 12.345h37.848c-.166-2.144-.352-4.8-.553-8.086" mask="url(#9igkpjuf2b)"/>
                    <path fill="#FFF" d="M163.087 141.839c-1.057 2.496-1.714 5.146-1.946 7.848l-.102 1.492h-12.511c3.916-13.685 14.04-15.809 14.04-15.809l.52 6.469z" mask="url(#9igkpjuf2b)"/>
                    <path fill="#2C243C" d="M162.286 139.337l-1.104-2.172c-.128-.252-.515-.048-.388.204l1.104 2.171c.129.253.516.048.388-.203" mask="url(#9igkpjuf2b)"/>
                    <path fill="#FFF" d="M207.525 151.18h-13.194l-.653-5.006-1.954-6.341-1.4-4.545c-.057-.26-.225-.526-.202-.67.01-.071.063-.113.188-.116.529-.013 1.798.118 3.452.684l.011.005c4.013 1.378 10.282 5.32 13.752 15.988" mask="url(#9igkpjuf2b)"/>
                    <path fill="#2C243C" d="M192.577 136.14l-1.034 2.254c-.116.252.255.488.372.232l1.034-2.254c.116-.253-.254-.488-.372-.232" mask="url(#9igkpjuf2b)"/>
                    <path fill="#F69A91" d="M182.553 134.063c-1.476 2.628-3.143 2.627-5.663 2.184-1.149-.201-5.814-.214-5.6-1.594.132-.84.525-4.644.633-6.678.012-.247.026-.486.04-.712.04-.575.083-1.064.135-1.389.032-.205.337 1.302.37 1.1.151-.928.298-1.83.435-2.624.074-.43.141-.827.206-1.187.165-.921.292-1.562.353-1.702l8.72-.792.37 13.394z" mask="url(#9igkpjuf2b)"/>
                    <path fill="#F69A91" d="M166.217 121.82c.473 2.03 2.225 2.754 3.887 2.05.804 2.944 2.719 5.57 8.508 5.57 1.876 0 5.499-1.413 5.77-5.216 1.486.43 4.048-.224 3.998-3.525-.034-2.248-2.369-2.864-2.477-2.876-.632-9.255-12.96-11.791-15.767-2.94-.175.554-.743 1.572-.845 3.37-1.767-.165-3.596 1.33-3.074 3.567" mask="url(#9igkpjuf2b)"/>
                    <path fill="#2C2B3C" d="M180.679 117.269c.925-.107 1.135 1.477.205 1.585-.926.107-1.136-1.477-.205-1.585M174.396 117.34c.86-.36 1.5 1.105.635 1.466-.86.359-1.5-1.106-.635-1.466M167.387 121.01c.249-.962 1.372-1.366 2.119-.819.308.226.019.762-.29.536-.412-.302-1.048-.137-1.254.374-.255.636.384 1.357.955 1.255.356-.064.492.554.132.618-.948.17-1.944-.87-1.662-1.963M185.678 122.187c.463.202 1.068-.003 1.232-.56.177-.606-.395-1.245-.931-1.133-.356.076-.49-.542-.133-.617.882-.186 1.787.725 1.647 1.743-.135.983-1.16 1.523-1.97 1.17-.34-.148-.187-.752.155-.603M178.174 118.012c.074.688.298 1.311.668 1.88.2.308-.237.63-.438.32-.424-.65-.677-1.381-.761-2.167-.04-.374.491-.406.531-.033" mask="url(#9igkpjuf2b)"/>
                    <path fill="#9F524A" d="M186.898 112.601c.242-.784.462-1.825-.114-1.775-.082.007-.148.038-.202.085-.256-.986-.681-1.537-1.078-1.845.01-.022.02-.043.028-.065.114-.28.216-.564.304-.853.06-.193.178-.454.079-.653-.247-.499-.782.162-.961.372-.008-.461-.045-.922-.11-1.381-.033-.233-.355-.202-.423-.014-.136.375-.245.757-.329 1.145-.668-1.066-2.301-2.616-6.225-3.068-1.738-.721-3.652-.94-5.52-.618-.184.031-.23.308-.067.399l.322.178c-.562-.036-1.131.03-1.678.207-.188.06-.222.281-.067.399.11.084.224.163.34.237-.356.032-.752.108-1.02.32-.351.276-.258.67-.002.976.18.216.375.424.574.628-.573.154-1.93.68-2.976 2.336-.207.329-.344.672-.429 1.019-.302.729-.462 1.517-.455 2.319.001.168.237.322.367.168l.083-.098c-.137.637-.14 1.299.002 1.952.047.219.357.218.423.014.012-.037.025-.072.038-.107-.051.424-.058.854-.019 1.285.018.194.209.286.367.167l.074-.054c.022.15.042.301.059.453l.168 1.485 1.75 1.212.228-4.89c1.017-3.287 5.247-2.995 5.247-2.995l-.297-.392.968.267-.42-.66 1.442.711s2.687-.538 5.412.615c2.724 1.152 2.423 7.612 2.423 7.612l1.215-1.603s.247-.86.366-2.424c.164-.954.234-1.922.206-2.893-.003-.075-.04-.134-.093-.173" mask="url(#9igkpjuf2b)"/>
                    <path fill="#9F524A" d="M175.527 114.425c-.925-.05-1.803.189-2.539.765-.529.414.073 1.27.605.854.505-.395 1.11-.623 1.758-.588.664.037.848-.994.176-1.031M183.137 115.305c-.943-.9-2.252-1.179-3.493-.829-.648.183-.28 1.163.366.98.894-.25 1.793.019 2.456.651.488.466 1.157-.34.671-.802" mask="url(#9igkpjuf2b)"/>
                    <path fill="#2C2B3C" d="M176.874 129.795c-1.798-.168-3.488-.785-4.951-1.82.013-.247.027-.486.041-.712 1.445 1.1 3.123 1.765 4.94 1.934.383.035.353.634-.03.598" mask="url(#9igkpjuf2b)"/>
                    <path fill="#9F524A" d="M180.903 110.587c.124-.032.248-.07.37-.115.185-.067.118-.368-.068-.3-.152.055-.306.1-.46.136-.09-.152-.165-.273-.21-.345-.104-.167-.378-.025-.273.144l.167.263c-.798.13-1.62.064-2.433.068-1.134.006-2.265.069-3.394.174l-.225-.232c-.137-.143-.364.065-.227.209l.217.224c.007.057.043.104.109.111.695.705 1.531 1.44 2.535 1.508.547.037.75-.315.742-.732.394.408.901.752 1.421.761.408.008.506-.304.496-.652.136.144.292.27.474.371.249.138.812.383 1.09.197.4-.267.017-1.152-.33-1.79" mask="url(#9igkpjuf2b)"/>
                    <path fill="#2C2B3C" d="M180.609 123.52c-1.432.814-3.075.942-4.616.365-.279-.105-.41.339-.132.443 1.648.617 3.434.472 4.963-.399.258-.147.044-.557-.215-.41M179.067 125.248c-.47.171-.943.225-1.439.163-.295-.037-.307.426-.013.462.53.067 1.054.009 1.556-.174.277-.1.176-.552-.104-.45" mask="url(#9igkpjuf2b)"/>
                    <path fill="#F69A91" d="M143.603 124.917c-.03 1.47.858 7.287 1.369 8.63.019.108.04.214.063.32-1.63 5.62-4.193 12.093-4.773 17.312h11.23c.918-5.1 1.495-10.26 1.724-15.444.259-.427.454-.9.568-1.411.256-1.153 2.222-6.565 1.73-9.07-.113-.578-.72-.612-1.112-.204-.834.868-1.32 2.802-1.71 3.97-1.59-.437-1.67-5.517-1.718-6.375-.047-.846-.104-1.699-.215-2.539-.044-.33-.116-1.404-.511-1.504-.89-.227-1.044 3.062-1.09 4.946-.045-.568-.119-1.827-.178-2.394-.052-.486-.195-3.132-1.207-2.644-.717.347-.446 2.637-.407 3.248l.029 2.735c-.682-2.683-.313-5.378-1.153-5.523-1.078-.187-.872 2.367-.887 2.96-.032 1.255-.008 2.51.063 3.763l-.024.025c-.01.01-.017.02-.026.03-.087-.596-.338-1.58-.334-2.2.006-.83.03-2.24-.406-2.332-1.247-.264-1.001 2.528-1.025 3.701" mask="url(#9igkpjuf2b)"/>
                    <path fill="#2C243C" d="M149.331 126.408c-1.208.108-2.322.494-3.322 1.187-.277.192-.033.663.247.47.918-.638 1.943-1.027 3.06-1.127.335-.03.355-.56.015-.53M150.39 130.77c-.46 1.093-.574 2.247-.358 3.41.062.336.578.216.516-.12-.2-1.078-.076-2.128.35-3.138.132-.313-.376-.463-.508-.151" mask="url(#9igkpjuf2b)"/>
                    <path fill="#F69A91" d="M308.056 139.648s7.423 6.817 10.862 18.993c3.439 12.176-6.835 2.167-6.764 1.64.072-.525-4.098-20.633-4.098-20.633M272.657 151.284s5.22 16.956 18.305 17.731c7.09.42.787-16.187.787-16.187l-19.092-1.544z" mask="url(#9igkpjuf2b)"/>
                    <path fill="#2C2B3C" d="M396.872 426.274L413.664 426.274 413.664 371.779 396.872 371.779z" mask="url(#9igkpjuf2b)"/>
                    <path fill="#3E435D" d="M546.586 141.561c-2.157-6.233-5.578-11.905-10.216-16.546-4.444-4.446-9.75-7.908-15.361-10.62-5.852-2.827-12.011-4.92-18.268-6.594-6.85-1.833-13.863-3.188-20.939-3.662-13.54-.907-27.17 1.848-38.022 10.509-9.967 7.953-16.61 19.39-22.213 30.744-1.415 2.868-2.775 5.764-4.125 8.665-.682 1.469 1.437 2.84 2.128 1.354l.798-1.713c1.064 16.609 1.206 33.348-.762 49.894-1.95 16.395-6.087 32.71-13.684 47.376-7.704 14.87-18.921 27.278-31.824 37.647-13.307 10.693-28.127 19.185-43.08 27.22-16.071 8.637-32.423 16.838-47.651 26.985-.85.566-1.694 1.139-2.535 1.717-.52-.032-1.061.217-1.29.85l-.021.058c-.564.394-1.127.789-1.687 1.188-.56.399-.864 1.056-.528 1.725.177.353.59.633 1.01.69-1.977 6.484-3.052 13.643-.814 20.073 2.633 7.564 9.376 13.748 16.843 15.069 3.784.669 7.624.809 11.457.761 4.89-.06 86.598.572 107.209.009 19.064-.521 38.75-3.837 56.908-10.636 23.898-8.949 41.544-46.803 45.027-54.85 6.142-14.191 10.882-29.072 15.039-43.977 4.326-15.513 7.851-31.249 10.845-47.081 2.906-15.371 5.452-30.852 7.462-46.372 1.727-13.328 2.762-27.57-1.706-40.483" mask="url(#9igkpjuf2b)"/>
                    <path fill="#879673" d="M393.002 358.42L281.766 355.391 269.125 426.274 221.849 426.274 224.412 321.758 326.9 274.463 369.984 286.465z" mask="url(#9igkpjuf2b)"/>
                    <path fill="#E85170" d="M371.312 274.031s-86.923-22.535-107.88-8.813c-20.957 13.721-119.194 105.614-119.194 105.614s-34.514 7.367-28.477 17.761c9.318 16.042 28.776 10.352 44.523 3.863 4.775-1.967 8.408-6.044 9.87-11.074l113.411-71.016 87.747-36.335z" mask="url(#9igkpjuf2b)"/>
                    <path fill="#F69A91" d="M374.985 171.013l-15.45 26.358s-58.919-58.177-60.54-58.195c-1.623-.017-18.443 17.663-18.443 17.663s56.592 87.236 75.084 91.07c18.492 3.834 64.916-60.117 64.916-60.117l20.372-38.423-16.21-17.92c-2.556-1.609-.018-6.34-7.722-.898-4.875 3.445-38.419 35.648-42.007 40.462" mask="url(#9igkpjuf2b)"/>
                    <path fill="#2C243C" d="M356.957 213.614c-.263-.816-1.55-.52-1.285.302.735 2.284 1.015 4.63.831 7.027-.066.862 1.253.901 1.32.04.19-2.5-.099-4.986-.866-7.37M539.22 144.092c-3.808-9.228-10.301-17.23-18.427-22.852-2.349-1.625-4.832-3.037-7.417-4.231-.724-.335-1.399.744-.665 1.083 8.833 4.082 16.421 10.804 21.601 19.16 1.467 2.367 2.733 4.854 3.797 7.434.313.759 1.422.159 1.11-.594M541.545 149.85c-.353-.743-1.462-.146-1.11.593 2.592 5.453 2.286 11.663 1.596 17.52-.78 6.632-1.77 13.244-2.72 19.852-1.934 13.44-4.027 26.856-6.279 40.244-1.27 7.554-2.593 15.1-3.964 22.635-.145.8 1.055 1.175 1.202.365 2.46-13.524 4.76-27.078 6.898-40.66 2.146-13.631 4.193-27.29 5.943-40.982.835-6.533 1.338-13.46-1.566-19.568M523.82 270.792c-4.964 17.931-13.038 34.79-22.622 50.607-4.836 7.982-9.92 15.99-16.431 22.68-5.866 6.025-12.787 10.88-20.195 14.727-8.405 4.364-17.396 7.444-26.553 9.698-.785.193-.504 1.438.282 1.245 16.262-4.004 32.39-10.719 44.875-22.344 6.811-6.343 12.096-14.09 17.025-21.979 4.978-7.969 9.587-16.184 13.637-24.684 4.536-9.521 8.364-19.395 11.185-29.586.218-.79-.983-1.158-1.203-.364M366.416 370.832l-58.141.546-16.408.154c-.805.007-.848 1.284-.037 1.277l58.141-.546 16.408-.154c.805-.008.847-1.285.037-1.277M429.872 370.201c-8.592.862-17.204 1.512-25.827 1.95-.8.041-.846 1.319-.037 1.277 8.623-.438 17.235-1.088 25.827-1.95.792-.08.84-1.357.037-1.277" mask="url(#9igkpjuf2b)"/>
                    <path fill="#2C243C" d="M493.635 321.237c-4.892-.337-9.554-2.417-13.104-5.863-.582-.565-1.509.297-.924.865 3.802 3.69 8.75 5.914 13.99 6.275.806.055.844-1.222.038-1.277M481.926 320.197c-.673-.455-1.337.628-.665 1.083 2.298 1.556 3.718 4.17 3.775 6.982.017.819 1.271.863 1.254.038-.067-3.271-1.686-6.29-4.364-8.103" mask="url(#9igkpjuf2b)"/>
                    <path fill="#F69A91" d="M418.48 129.614c9.031-5.97 21.585-16.44 54.772-12.31 9.734 1.212 18.949 5.11 26.54 11.321 9.316 7.624 20.133 19.924 21.804 36.754 3.015 30.377-66.61 19.499-66.61 19.499l-38.216-39.502c-4.467-4.618-3.629-12.233 1.71-15.762" mask="url(#9igkpjuf2b)"/>
                    <path fill="#7BA3FE" d="M447.786 117.108l-4.517 50.046-32.674 37.418-17.498-9.798v-.002l-25.248-14.139c.604-2.15 1.251-4.23 1.939-6.238.312-.91.632-1.804.96-2.685 9.217-24.801 24.69-38.371 39.358-45.783h.002c.994-.504 1.983-.978 2.969-1.424 18.379-8.352 34.709-7.395 34.709-7.395" mask="url(#9igkpjuf2b)"/>
                    <path fill="#879673" d="M396.872 240.314c.194.707-15.375 23.439-15.375 23.439s-87.655-18.464-116.279-7.154c-28.624 11.311-105.325 91.417-105.325 91.417l30.821 37.18 90.32-65.108s142.14 93.157 205.787.86c0 0 14.8-30.6 10.516-57.66-4.283-27.06-100.465-22.974-100.465-22.974" mask="url(#9igkpjuf2b)"/>
                    <path fill="#7BA3FE" d="M505.396 204.572l-.822 12.126-3.753 55.394c-39.09 6.5-113.046-12.19-118.186-16.204-1.326-1.034-2.182-2.378-2.675-3.897-.266-.816-.424-1.682-.495-2.578-.425-5.419 2.426-11.903 5-14.743 2.178-2.4 5.773-22.759 8.632-39.896 2.126-12.743 3.846-23.703 4.272-24.179l34.609-42.59 15.808-10.896.002.001.002.004s0 .002.002.002l.797 1.032 6.144 7.958s23.894 8.006 25.318 8.285c1.424.279 25.345 70.181 25.345 70.181" mask="url(#9igkpjuf2b)"/>
                    <path fill="#2C2B3C" d="M384.854 378.42h-.01c-2.869-.257-4.961-2.878-4.624-5.791 1.021-8.827 4.156-31.773 9.352-50.874 4.198-15.43 9.266-28.01 15.064-37.388 7.77-12.569 16.99-19.62 27.407-20.955 32.162-4.125 82.887-6.376 99.063-7.017 2.83-.112 5.208 2.141 5.302 5.023.094 2.86-2.097 5.26-4.905 5.37-16.035.636-66.4 2.867-98.184 6.944-7.224.926-13.956 6.353-20.01 16.13-5.264 8.5-9.926 20.122-13.86 34.544-4.988 18.298-8.08 40.917-9.077 49.448-.327 2.79-2.77 4.812-5.518 4.566" mask="url(#9igkpjuf2b)"/>
                    <path fill="#2C243C" d="M280.691 320.7c-10.338 8.185-21.305 15.534-32.783 21.953-3.265 1.826-6.571 3.575-9.913 5.25-.726.365-.14 1.495.583 1.132 11.846-5.942 23.217-12.837 33.992-20.609 3.04-2.192 6.03-4.457 8.97-6.785.638-.505-.216-1.442-.849-.94M345.58 345.07c-15.487-3.473-30.21-10.19-43.07-19.638-3.658-2.686-7.152-5.592-10.474-8.696-.591-.553-1.519.308-.924.864 11.842 11.069 25.893 19.605 41.085 24.959 4.266 1.503 8.616 2.747 13.024 3.736.783.175 1.15-1.047.359-1.225M435.198 185.483c-1.183 1.73-2.722 3.1-4.554 4.08-.753.402-.139 1.592.614 1.19 2.038-1.091 3.743-2.635 5.059-4.558.485-.71-.635-1.42-1.12-.712M437.15 215.981c-.46.597-1.472.708-2.041.212-.638-.557-1.615.348-.972.91 1.263 1.1 3.103.926 4.133-.41.524-.679-.6-1.386-1.12-.712" mask="url(#9igkpjuf2b)"/>
                    <path fill="#F69A91" d="M433.968 222.846s-7.608-16.157-7.648-30.062c-.038-13.905-11.518-17.595-13.699-22.128-2.181-4.533 12.341 3.102 13 5.662 0 0-10.095-8.541-9.322-12.37.772-3.828 14.596 9.497 14.596 9.497s-14.335-12.941-12.053-14.821c2.282-1.88 16.4 10.956 16.4 10.956s-9.19-12.42-8.657-15.846c.534-3.425 14.34 11.681 15.872 16.596 1.533 4.914 6.335 26.786 14.496 38.855 7.243 10.713-22.985 13.661-22.985 13.661" mask="url(#9igkpjuf2b)"/>
                    <path fill="#F69A91" d="M451.888 202.153c-1.338-17.543 1.192-25.444-2.632-29.109-2.876-2.756-3.78 19.565-3.78 19.565l6.412 9.544z" mask="url(#9igkpjuf2b)"/>
                    <path fill="#F69A91" d="M510.872 155.295c4.465-1.116 23.604 14.572 24.273 19.204 4.214 29.203 3.894 112.87-27.061 118.599-36.555 6.764-74.116-70.252-74.116-70.252l16.546-25.072s26.968 34.704 39.192 44.368l-3.287-79.907c-.246-5.31 3.536-5.666 8.746-5.983l15.707-.957z" mask="url(#9igkpjuf2b)"/>
                    <path fill="#2C243C" d="M502 258.524c-.97-4.222-3.386-7.918-6.811-10.486-.684-.512-1.38.63-.7 1.14 3.14 2.354 5.338 5.786 6.225 9.648.193.843 1.48.541 1.286-.302" mask="url(#9igkpjuf2b)"/>
                    <path fill="#7BA3FE" d="M538.32 215.769l-26.221.723-2.956.08h-.001l-4.568.126-18.14.5-1.672-26.703-36.968-73.375.003.005c.056.084.316.46.792 1.022l.008.01c3.243 3.837 16.477 16.342 44.026 5.214 0 0 14.002 4.09 26.897 16.589.699.675 1.394 1.377 2.084 2.104 13.114 13.825 24.19 36.82 16.717 73.705" mask="url(#9igkpjuf2b)"/>
                    <path fill="#2C243C" d="M414.845 244.6c-4.127-2.499-8.675-4.123-13.442-4.848-.943-.143-.98 1.345-.044 1.487 4.498.684 8.81 2.268 12.698 4.622.818.495 1.609-.765.788-1.261M448.248 256.026c-8.549.03-17.013-2.064-24.546-6.111-.839-.451-1.633.807-.788 1.26 7.763 4.171 16.476 6.368 25.29 6.338.955-.003 1.005-1.49.044-1.487M410.011 266.76c-6.606-1.389-13.27-2.489-19.972-3.297-.903-.11-.941 1.305-.042 1.413 6.582.794 13.123 1.876 19.61 3.24.884.186 1.298-1.167.404-1.355M430.907 46.089c-.86 4.786.247 9.846 3.791 13.31.517.505 1.248.114 1.38-.413 6.352-.125 12.706-.1 19.055.104 6.537.21 13.653.745 17.634 6.683 3.056 4.56 4.28 10.461 5.69 15.691 1.62 6.015 2.785 12.15 2.332 18.403-.066.905 1.156 1.065 1.508.4.184.077.403.066.63-.095 6.09-4.318 11.375-9.758 15.075-16.276 6.067-10.688 9.71-24.56 4.32-35.805-4.684-9.767-16.276-18.361-27.793-16.768-9.085-8.863-24.854-4.866-34.267 1.532-4.628 3.147-8.345 7.615-9.355 13.234" mask="url(#9igkpjuf2b)"/>
                    <path fill="#F69A91" d="M433.022 59.826c-1.392 4.07-1.871 8.463-1.806 12.764-.107.222-.174.478-.193.764-.638 10.594 2.312 19.448 8.731 27.998 2.988 3.986 10.942 7.896 15.936 7.74 6.261-.206 9.325-3.111 13.657-5.437 5.175-2.774 6.568-3.858 10.5-8.254.357-.393.56-.89.581-1.39 3.032-2.523 5.215-6.027 6.804-9.674 2.23-5.115 3.523-10.707 3.576-16.323.05-5.465-1.118-11.081-3.852-15.844-2.401-4.189-6.059-7.721-10.312-9.919-3.826-1.976-8.125-2.965-12.347-2.508-8.325-.938-16.828 2.184-23.055 7.745-2.018 1.799-3.78 3.873-5.234 6.156-.128.197-.25.4-.37.6-.177.29-.346.583-.51.882-.307.546-.59 1.1-.86 1.662-.195.403-.378.819-.555 1.231l-.067.155c-.193.471-.37.944-.538 1.415-.026.063-.05.13-.07.191l-.016.046z" mask="url(#9igkpjuf2b)"/>
                    <path fill="#F69A91" d="M489.938 76.945c-2.91-1.044-5.604-.898-5.884.074-.502 2.5.016 4.802-.486 7.302l-2.858 2.146c-.182.054-.334.175-.441.332l-24.65 18.511c.278 1.527-.194 14.924-.194 14.924 7.937 5.45 17.863 7.148 27.16 4.648l3.817-1.026-.446-34.895c6.222.64 8.123-4.91 7.388-8.13-.587-2.573-2.659-3.618-3.406-3.886" mask="url(#9igkpjuf2b)"/>
                    <path fill="#2C243C" d="M477.654 96.243c-4.379 4.764-9.766 8.46-15.762 10.794-.806.313-.392 1.62.418 1.305 6.213-2.418 11.8-6.23 16.34-11.169.59-.643-.406-1.572-.996-.93M446.797 66.779c-.636 2.749-2.001 5.191-3.958 7.183-.787.801.517 1.971 1.3 1.175 2.173-2.213 3.656-4.977 4.361-8.023.255-1.102-1.448-1.438-1.703-.335M459.028 66.816c-.632-.304-1.376-.086-1.813.452-.021.026-.036.053-.055.08-.134.088-.244.232-.307.44-.384 1.289-.736 3.413.275 4.531.442.49 1.14.62 1.704.29.624-.366.83-1.07.968-1.746.243-1.192.601-3.388-.772-4.047M439.726 63.294c-.632-.303-1.377-.086-1.814.453-.02.026-.036.053-.055.079-.134.089-.244.232-.306.441-.385 1.289-.736 3.413.274 4.531.442.489 1.14.62 1.705.29.624-.367.83-1.07.968-1.746.243-1.192.6-3.388-.772-4.048M440.925 43.996c.16.102.353.155.544.138 2.769.708 5.571 1.266 8.408 1.625 2.918.368 6.31.075 9.035 1.293 2.72 1.216 3.142 4.368 4.738 6.604 1.447 2.027 3.373 3.653 5.453 4.999 2.529 1.637 5.29 2.856 7.955 4.246 2.76 1.44 5.37 3.077 6.168 6.276 1.056 4.234-.367 8.682 1.192 12.858.045.12.108.219.184.298.24.551 1.238.68 1.533-.065 1.305-3.295 4.256-5.248 7.624-5.324.291.426 1 .532 1.318.069.082.01.163.014.245.026.972.143 1.07-1.296.21-1.565 1.313-5.421 1.23-11.115-.25-16.508-3.074-11.212-11.699-19.595-22.726-23.056-10.425-3.273-24.551-3.104-31.54 6.569-.68.181-.896 1.276-.091 1.517" mask="url(#9igkpjuf2b)"/>
                    <path fill="#2C243C" d="M453.733 60.962c.607 1.955 3.025 2.178 4.66 2.726 1.596.534 3.137 1.222 4.596 2.061 1.077.62 2.076 1.534 3.227 2.002 1.219.495 2.928.203 3.285-1.262.411-1.688-1.64-3.133-2.723-4.01-1.374-1.113-2.858-2.038-4.427-2.808-.275-.152-.555-.296-.841-.433-1.633-.782-4.017-1.827-5.885-1.298-1.305.37-2.32 1.643-1.892 3.022M433.038 59.78c.324-.078.646-.152.97-.205 1.66-.27 3.348-.37 5.03-.308 1.722.064 4.062.707 5.317-.907.888-1.14.388-2.691-.704-3.498-1.561-1.153-4.159-1.017-5.963-.86-.315.03-.629.066-.94.11-.373.036-.74.078-1.11.132-.177.29-.346.583-.51.882-.307.546-.59 1.1-.86 1.663-.195.402-.378.818-.555 1.23l-.067.155c-.193.471-.37.944-.538 1.415-.026.063-.05.13-.07.191M447.07 88.593c2.632 1.483 5.664 1.214 7.971-.737.786-.664 1.884.502 1.096 1.168-2.871 2.426-6.645 2.768-9.92.925-.9-.507-.044-1.86.852-1.356M502.021 140.153c-4.476 3.618-7.747 8.568-9.34 14.097-.265.918 1.16 1.347 1.425.424 1.526-5.291 4.64-9.965 8.922-13.426.746-.603-.266-1.694-1.007-1.095M489.047 171.535c-2.682 11.934-3.222 24.26-1.604 36.383.126.95 1.575.607 1.449-.335-1.583-11.855-1.042-23.954 1.58-35.623.209-.928-1.215-1.362-1.425-.425M426.426 128.443c-13.342 12.299-23.173 28.297-28.215 45.723-1.408 4.866-2.43 9.836-3.077 14.86-.123.947 1.364.987 1.486.043 2.277-17.642 9.513-34.545 20.545-48.484 3.124-3.947 6.567-7.636 10.267-11.047.705-.65-.302-1.744-1.006-1.095" mask="url(#9igkpjuf2b)"/>
                    <path fill="#3B3853" d="M170.753 404.794c-.115-.314-.204-.666-.27-1.06-.696-4.153 1.227-12.223 1.655-13.428.894-2.514 1.104-5.398-.435-7.766-.29-.443-.624-.841-.997-1.198-1.745-1.665-4.291-2.366-6.732-2.59-2.504-.224-5.038-.26-7.565-.274-.678-2.11-2.009-4.07-3.75-5.643-4.408-3.978-10.918-4.422-16.625-4.08-8.29.491-25.648 2.98-37.048 4.796-5.329.85-9.357 1.552-10.55 1.833-3.463.821-8.174 2.08-9.082 5.9-.138.568-.168 1.124-.13 1.657l.01.123c-2.39.568-4.26 2.71-4.11 5.325.242 4.217 4.612 5.795 8.083 7.616 11.877 6.238 64.212 21.812 85.461 19.582 5.185-.544 3.458-7.058 2.085-10.793" mask="url(#9igkpjuf2b)"/>
                    <path fill="#FFF" d="M116.745 375.245c-1.6-3.153-4.441-5.423-8.132-5.97-2.653-.394-3.472 3.458-.803 3.891 2.066.335 3.946 1.476 4.855 3.335.496 1.013 1.529 1.673 2.723 1.319.996-.295 1.863-1.577 1.357-2.575M124.182 373.038c-1.453-2.555-4.082-4.257-6.964-5.041-2.595-.706-3.335 3.132-.797 3.869 1.907.553 3.225 1.803 4.233 3.392 1.438 2.266 4.816.044 3.528-2.22M132.802 373.251c-1.82-2.726-4.254-4.864-7.134-6.553-.973-.57-2.323.006-2.79.896-.552 1.049.028 2.08.973 2.664 2.191 1.357 3.942 3.18 5.362 5.251 1.53 2.232 5.088-.012 3.589-2.258M155.378 383.66c-2.25.341-4.465.801-6.626 1.482-1.038.326-2.06.696-3.062 1.108-.351.144-.845.437-1.358.708-.025-.158-.05-.317-.08-.475-.14-.76-.293-1.538-.647-2.238-.847-1.674-2.48-2.1-4.259-1.686-4.069.947-8.086 2.18-12.115 3.266-2.587.697-1.248 4.472 1.328 3.783l6.381-1.705 2.871-.768c.685-.183 1.5-.492 2.282-.65.403 1.028.075 2.833.539 3.677.896 1.635 2.699 1.613 4.226.908 3.44-1.59 6.985-2.802 10.789-3.371 2.68-.401 2.425-4.448-.27-4.039" mask="url(#9igkpjuf2b)"/>
                    <path fill="#7BA3FE" d="M109.093 392.704c1.283-7.949-2.94-15.564-10.107-19.153-5.329.85-9.357 1.551-10.55 1.833-3.463.821-8.174 2.08-9.082 5.9-.138.568-.168 1.124-.13 1.657.064.082.133.162.202.243 2.846 3.287 7.652 5.556 11.65 7.268 4.648 1.991 9.559 3.31 14.6 3.902.395.045.75.001 1.065-.107 1.034.176 2.149-.273 2.352-1.543" mask="url(#9igkpjuf2b)"/>
                    <path fill="#FFF" d="M91.727 388.07l-5.673-2.54c-2.406-1.076-4.521 2.296-2.086 3.397l5.661 2.558c2.422 1.095 4.546-2.32 2.098-3.415" mask="url(#9igkpjuf2b)"/>
                    <path fill="#7BA3FE" d="M172.138 390.306c.894-2.514 1.104-5.398-.435-7.766-.29-.443-.624-.841-.997-1.198-.939.575-1.765 1.438-2.478 2.296-1.821 2.193-3.363 4.612-4.54 7.175-1.162 2.527-2.149 5.289-2.53 8.04-.09.642-.118 1.3.045 1.916.095.38.27.745.542 1.08.962 1.169 2.475 1.272 3.905 1.433.24.025.486.053.737.087 1.29.15 2.706.323 4.096.366-.696-4.154 1.227-12.224 1.655-13.43" mask="url(#9igkpjuf2b)"/>
                    <path fill="#FFF" d="M164.194 400.925c-10.356-.505-20.612-1.306-30.856-2.985-10.174-1.667-20.222-4.019-30.074-6.997-2.56-.774-3.327 3.096-.797 3.869 19.92 6.08 41.099 9.927 61.998 10.176 2.79.033 2.429-3.93-.271-4.063" mask="url(#9igkpjuf2b)"/>
                    <path fill="#7BA3FE" d="M305.621 157.539L277.876 157.466 277.986 122.447 305.731 122.521z" mask="url(#9igkpjuf2b)"/>
                    <path fill="#7BA3FE" d="M305.73 122.636c-.001.357-.417.697-1.165 1.002-2.145.879-7.03 1.484-12.715 1.47-5.681-.016-10.566-.647-12.705-1.537-.746-.31-1.16-.652-1.159-1.009.004-1.382 6.22-2.49 13.88-2.47 7.663.021 13.868 1.16 13.864 2.544" mask="url(#9igkpjuf2b)"/>
                    <path fill="#2C2B3C" d="M304.565 123.638c-2.145.879-7.03 1.484-12.715 1.47-5.681-.016-10.566-.647-12.705-1.538 2.145-.879 7.033-1.482 12.714-1.467 5.685.015 10.566.644 12.706 1.535" mask="url(#9igkpjuf2b)"/>
                    <path fill="#7BA3FE" d="M305.622 157.497c-.005 1.384-6.22 2.49-13.88 2.47-7.662-.02-13.87-1.159-13.866-2.544.005-1.384 6.22-2.49 13.88-2.47 7.662.02 13.87 1.16 13.866 2.544M311.772 130.203l-.009-.006c-.141.007-.282.017-.424.03.144-.01.29-.02.433-.024" mask="url(#9igkpjuf2b)"/>
                    <path fill="#7BA3FE" d="M314.678 140.476c.04-3.179.663-7.213-2.196-9.726-.23-.2-.466-.383-.71-.547-.144.005-.15.001-.009-.006-3.187-2.142-7.596-1.282-11.1-.052-.996.351-1.724 1.127-1.408 2.095.26.801 1.455 1.554 2.466 1.198 1.062-.372 2.618-.904 4.007-1.126 1.458-.21 2.893-.091 3.907.843 1.744 1.607 1.057 4.905 1.032 6.863l-.055 4.47c-.015 1.184.24 2.693-.655 3.674-1.091 1.196-5.268 2.084-5.276 2.088-1.29.712-1.61 1.131-2.74 1.811 2.444.775 5.248 1.066 7.646.382.911-.274 1.78-.697 2.58-1.3 1.648-1.245 2.264-2.963 2.412-4.782.16-1.948.075-3.932.1-5.885" mask="url(#9igkpjuf2b)"/>
                    <path fill="#2C243C" d="M289.503 112.46c-.558-1.972-2.027-3.523-3.179-5.217-1.448-2.128-1.89-4.447-1.238-6.897.615-2.308 2.03-4.335 3.572-6.21.384-.468-.459-.947-.84-.483-2.71 3.299-5.103 7.537-3.573 11.752.715 1.97 2.25 3.522 3.372 5.292 1.067 1.683 1.822 4.127.24 5.759-.422.433.246 1.106.67.67 1.263-1.303 1.441-3.02.976-4.666M292.335 84.483c-.454-.409-1.185.205-.73.615 2.644 2.381 3.34 5.908 1.931 9.024-1.247 2.759-3.581 5.244-3.347 8.396.042.578 1.034.612.99.027-.261-3.521 2.854-6.2 3.79-9.451.882-3.06-.184-6.405-2.634-8.611M297.992 101.906c-3.412 3.941-3.933 9.595-1.343 14.023.302.516 1.18.093.878-.423-2.44-4.172-1.899-9.417 1.306-13.118.396-.458-.448-.936-.84-.482" mask="url(#9igkpjuf2b)"/>
                    <path fill="#FFFFFE" d="M301.595 127.713v13.333c0 .583.99.614.99.026V127.74c0-.584-.99-.614-.99-.027M301.463 144.682v5.696c0 .584.99.614.99.027v-5.697c0-.583-.99-.614-.99-.026" mask="url(#9igkpjuf2b)"/>
                    <path fill="#F69A91" d="M282.945 136.33c-1.189-1.91-2.156-4.026-2.945-6.274l-1.879-5.906s-9.269 9.404-5.464 27.134c.418 1.948 2.68 3.685 4.295 4.19 1.342.42 2.722.48 3.142-.4.417-.875-.117-2.935-.368-3.878.786.297 1.543.198 2.064-.704.662-1.143.14-2.55-.3-3.644-.09-.225-.187-.445-.282-.667.558.255 1.126.378 1.628.21.573-.191.975-.775 1.068-1.55.12-1.008-.333-1.722-.79-2.457l-.136-.215c.605.146 1.174.005 1.575-.701 1.106-1.949-.78-3.808-1.608-5.138" mask="url(#9igkpjuf2b)"/>
                    <path fill="#2C243C" d="M276.155 131.724c-1.51 4.326-2.124 9.024-1.794 13.714.064.92 1.248.976 1.182.043-.322-4.587.27-9.11 1.746-13.342.3-.857-.836-1.268-1.134-.415" mask="url(#9igkpjuf2b)"/>
                    <path fill="#F69A91" d="M308.622 140.855c-1.285-3.024-5.379-9.771-7.859-7.374-3.202 3.096 4.967 15.272 4.967 15.272l2.404.279c1.208 0 2.735-1.42 2.467-2.484-.54-2.139-1.734-5.116-1.979-5.693" mask="url(#9igkpjuf2b)"/>
                    <path fill="#2C243C" d="M439.773 176.599c-2.861 2.352-6.41 3.71-10.113 3.864-.831.034-.878 1.335-.038 1.3 4.055-.167 7.896-1.628 11.032-4.206.649-.533-.236-1.488-.88-.958M436.384 205.126c-.94.492-1.994.463-2.9-.088-.716-.434-1.407.668-.69 1.104 1.294.786 2.852.84 4.195.137.743-.39.137-1.542-.605-1.153" mask="url(#9igkpjuf2b)"/>
                    <path fill="#E85170" d="M445.106 127.695c-.947-2.13-2.026-4.191-3.236-6.184-.868-1.427-3.176-.223-2.305 1.21 1.21 1.992 2.29 4.054 3.237 6.184.682 1.534 2.982.314 2.304-1.21M456.307 141.658c-1.864 1.067-3.814 1.942-5.863 2.588-1.589.502-1.015 3.041.585 2.536 2.26-.713 4.43-1.642 6.488-2.819 1.453-.832.246-3.138-1.21-2.305M487.754 139.696l-2.362-4.812c-.741-1.508-3.043-.293-2.305 1.21l2.362 4.812c.74 1.507 3.043.292 2.305-1.21M521.604 142.064c-.355 1.127-.744 2.24-1.164 3.344-.595 1.562-3.091.822-2.495-.743.592-1.547 1.116-3.116 1.575-4.705.699.675 1.394 1.378 2.084 2.104M527.58 165.574c-2.56-1.21-5.185-2.253-7.89-3.097-1.597-.499-2.346 1.994-.743 2.494 2.479.774 4.906 1.701 7.255 2.81.64.303 1.382.228 1.793-.414.345-.539.221-1.493-.414-1.793M507.052 177.624c-2.111 1.228-4.083 2.674-5.878 4.33-1.233 1.136.53 3.052 1.762 1.916 1.635-1.508 3.402-2.822 5.325-3.94 1.447-.842.24-3.149-1.21-2.306M527.678 198.272l-.698-7.235c-.069-.705-.498-1.308-1.263-1.34-.635-.026-1.407.565-1.34 1.263l.7 7.236c.067.704.497 1.307 1.262 1.339.635.026 1.407-.564 1.34-1.263M512.099 216.492l-2.956.08h-.001l-2.67-4.622c-.838-1.452 1.469-2.658 2.305-1.21l3.322 5.752M477.594 195.375c-.421-.468-1.39-.617-1.839-.078-1.611 1.937-3.43 3.665-5.446 5.174-1.342 1.004.433 2.911 1.761 1.916 2.017-1.509 3.836-3.237 5.447-5.173.452-.544.591-1.267.077-1.84M466.294 175.376l-3.413-7.622c-.687-1.533-2.987-.313-2.305 1.21 1.138 2.54 2.276 5.08 3.413 7.622.687 1.532 2.987.312 2.305-1.21M483.155 160.906c-.351-.687-1.104-.798-1.757-.548-1.821.699-3.683 1.278-5.571 1.766-1.622.419-1.04 2.956.585 2.536 2.106-.544 4.166-1.219 6.196-1.997.66-.254.84-1.184.547-1.757M432.17 145.236c-1.248-1.31-2.383-2.713-3.373-4.228-.91-1.393-3.221-.192-2.305 1.21 1.113 1.704 2.357 3.305 3.762 4.779 1.156 1.213 3.073-.548 1.916-1.761M407.078 179.178l-1.412 5.293c-.43 1.613 2.061 2.367 2.495.743l1.412-5.293c.431-1.613-2.061-2.368-2.495-.743M421.318 211.295c-1.847-1.7-3.525-3.557-5.031-5.565-1.006-1.341-2.912.433-1.917 1.761 1.506 2.008 3.185 3.865 5.031 5.566 1.225 1.128 3.15-.627 1.917-1.762M400.817 216.55c-1.348 1.19-2.843 2.122-4.49 2.84-1.54.67-.319 2.97 1.209 2.305 1.845-.804 3.535-1.898 5.043-3.229 1.259-1.11-.506-3.023-1.762-1.916M425.308 236.961l-2.213-6.14c-.24-.666-.817-1.139-1.561-.975-.624.137-1.213.9-.975 1.56l2.214 6.14c.24.666.816 1.139 1.56.976.624-.137 1.213-.901.975-1.56M384.72 250.16c-1.587.61-3.173 1.222-4.76 1.831-.266-.816-.424-1.682-.495-2.578l4.045-1.556c.653-.25 1.406-.14 1.757.547.294.574.113 1.503-.546 1.756M412.762 258.751c-1.096-2.106-2.073-4.266-2.933-6.479-.606-1.562-2.904-.335-2.304 1.21.859 2.213 1.836 4.373 2.932 6.479.775 1.489 3.079.276 2.305-1.21M478.721 216.605v6.413c0 1.67 2.602 1.758 2.602.077v-6.413c0-1.671-2.602-1.759-2.602-.077M375.472 173.56c-1.87.433-3.77.712-5.684.835.312-.91.632-1.804.96-2.685 1.39-.139 2.767-.37 4.139-.687 1.634-.378 2.22 2.158.585 2.537M393.735 163.323l-3.38-4.435c-1.016-1.333-2.924.44-1.917 1.762l3.38 4.435c1.017 1.333 2.925-.44 1.917-1.762M407.322 136.326c-.541-.346-1.491-.22-1.793.413l-3.057 6.418c-.305.64-.227 1.383.413 1.793.542.346 1.492.22 1.794-.414l3.057-6.417c.304-.64.227-1.384-.414-1.793M416.58 129.117l-6.472-3.19c.994-.504 1.983-.978 2.968-1.424l4.882 2.406c1.504.741.11 2.94-1.377 2.208" mask="url(#9igkpjuf2b)"/>
                    <path fill="#C4C6C4" d="M599.992 412.522c-1.524-.105-3.226-.191-5.128-.252-.427-.014-.864-.028-1.312-.039-2.396-.061-5.089-.087-8.111-.069-1.755.01-3.408.026-4.968.048-.436.004-.864.01-1.284.017-3.162.047-5.915.114-8.312.194-15.836.532-16.106 1.69-16.046 2.183.058.475 6.471 7.137 9.45 10.177.467.476.85.864 1.108 1.125h.002c.223.224.356.354.375.366.018.012.408-.043 1.096-.152h.004c.744-.116 1.832-.294 3.179-.518h.001c1.916-.319 4.354-.73 7.055-1.186l7.91-1.335c.343-.058.687-.117 1.029-.173 4.14-.698 8.273-1.39 11.695-1.95.794-.13 1.549-.252 2.257-.366v-8.07z" mask="url(#9igkpjuf2b)"/>
                    <path fill="#879673" d="M599.992 256.6c-1.784 2.585-3.46 5.21-5.018 7.87-8.338 14.247-13.473 41.98-14.924 74.901-.642-1.373-1.317-2.742-2.021-4.1-1.052-2.027-2.16-4.035-3.336-6.023v-.003c-8.57-14.516-20.411-28-34.987-39.829-.775-.63-2.088.117-1.831.817l11.27 30.532c6.552 17.766 13.359 35.498 19.417 53.353 2.346 6.913 4.538 13.851 6.468 20.83-6.934-12.519-18.152-23.82-32.64-32.457-1.015-.605-2.245.223-1.706 1.012 3.446 5.055 6.894 10.11 10.343 15.166 5.939 8.715 12.093 17.375 17.693 26.206.165.258.326.517.488.777.204.32.404.643.605.967.358.585.714 1.172 1.064 1.757v.003c.981 1.636 1.924 3.279 2.812 4.938v.001h.002c1.253 2.324 2.398 4.676 3.41 7.056v.003c.263.628.524 1.255.768 1.888.123.313.24.626.353.939v.001c.38 1.018.732 2.04 1.051 3.069h4.468c-.112-.89-.229-1.777-.355-2.663.027-.07.051-.14.078-.208.113-.299.227-.6.339-.902.423-1.152.827-2.303 1.208-3.46v-.002c.473-1.426.915-2.854 1.33-4.29-.11 1.373-.213 2.742-.301 4.114v.003c-.087 1.22-.165 2.435-.234 3.656v.001c-.02.3-.035.602-.054.904-.046.825-.093 1.648-.134 2.47l-.205.377h6.914c.664-1.02 1.307-2.05 1.928-3.086.186-.311.373-.62.55-.933l.001-.002c1.036-1.761 2.007-3.54 2.93-5.334v-.003c.568-1.107 1.118-2.215 1.648-3.333.179-.375.356-.757.529-1.136l.08-.173V256.599z" mask="url(#9igkpjuf2b)"/>
                    <path fill="#D0D0D0" d="M599.992 413.542c-.202.013-.407.029-.608.041-9.815.609-18.585.324-25.693-.265h-.002c-11.666-.967-18.858-2.756-18.858-2.756l1.026 8.503.122 1.002.652 5.422.095.785h43.266v-12.732z" mask="url(#9igkpjuf2b)"/>
                    <path fill="#2C2B3C" d="M584.032 368.081l1.769 27.381c.038.587-1.24.616-1.278.027-.59-9.127-1.18-18.254-1.768-27.381-.038-.587 1.24-.615 1.277-.027M581.975 348.47c.038-.584 1.316-.617 1.278-.028-.296 4.574-.108 9.148.563 13.702.086.584-1.191.61-1.277.027-.672-4.554-.86-9.127-.564-13.702M578.37 400.617c1.598 3.2 2.499 6.528 2.696 9.923.034.587-1.244.616-1.278.027-.193-3.32-1.08-6.56-2.644-9.689-.276-.553.95-.814 1.225-.26" mask="url(#9igkpjuf2b)"/>
                    <path fill="#879673" d="M35.125 154.592c-3.182 5.158-5.784 10.673-7.742 16.431.25-8.6-.636-17.232-2.65-25.587-.732-3.041-1.612-6.044-2.631-8.996-.198-.574-.964-.366-1.06.153-1.881 10.107-2.055 20.542-.519 30.71-1.394-4.36-3.189-8.585-5.366-12.596-1.207-2.222-2.524-4.378-3.95-6.46-.352-.514-.997-.09-.988.427.166 8.751 1.92 17.453 5.14 25.554.887 2.23 1.89 4.41 2.993 6.534-.1.213-.078.476.168.653 2.358 1.704 5.43 2.067 8.097.935.66-.28.231-1.332-.428-1.051-.072.03-.144.06-.217.088 5.686-4.906 9.37-12.123 10.19-19.71.245-2.265.227-4.557-.05-6.817-.056-.456-.725-.692-.987-.268" mask="url(#9igkpjuf2b)"/>
                    <path fill="#FB7267" d="M11.007 209.521L36.737 209.521 36.737 174.263 11.007 174.263z" mask="url(#9igkpjuf2b)"/>
                    <path fill="#2C2B3C" d="M160.427 15.26c0 4.178-3.386 7.564-7.563 7.564s-7.564-3.386-7.564-7.564c0-4.177 3.387-7.563 7.564-7.563s7.563 3.386 7.563 7.563" mask="url(#9igkpjuf2b)"/>
                    <path fill="#94B9FE" d="M157.265 13.024c0 1.235-1.001 2.236-2.236 2.236-1.235 0-2.237-1-2.237-2.236 0-1.235 1.002-2.236 2.237-2.236s2.236 1.001 2.236 2.236" mask="url(#9igkpjuf2b)"/>
                    <path fill="#2C2B3C" d="M150.913 28.447L154.815 28.447 154.815 20.045 150.913 20.045z" mask="url(#9igkpjuf2b)"/>
                </g>
            </g>
        </g>
    </g>
</svg>
