<svg xmlns="http://www.w3.org/2000/svg" xmlns:xlink="http://www.w3.org/1999/xlink" width="80" height="35" viewBox="0 0 80 35">
    <defs>
        <path id="icz2r5ewqa" d="M0 0.097L22.705 0.097 22.705 28.591 0 28.591z"/>
        <path id="h46jtn946c" d="M0.052 0.118L15.086 0.118 15.086 28.672 0.052 28.672z"/>
    </defs>
    <g fill="none" fill-rule="evenodd">
        <g>
            <g>
                <g transform="translate(-56 -18) translate(56 18) translate(0 .104)">
                    <mask id="berrs1lb9b" fill="#fff">
                        <use xlink:href="#icz2r5ewqa"/>
                    </mask>
                    <path fill="#5432F6" d="M16.803 17.388c0-2.894-2.218-5.225-5.3-5.225-2.932 0-5.263 2.18-5.263 5.225 0 3.158 2.218 5.376 5.225 5.376 3.045 0 5.338-2.293 5.338-5.376zm-.037 10.526v-2.256h-.076c-1.165 1.918-3.27 2.933-6.24 2.933C4.135 28.59 0 23.74 0 17.426c0-6.24 4.248-11.09 10.337-11.09 2.406 0 4.361.715 6.128 2.482V.097h6.24v27.817h-5.94z" mask="url(#berrs1lb9b)"/>
                </g>
                <path fill="#5432F6" d="M43.53 28.018L36.05 7.155 42.515 7.155 46.5 20.161 46.575 20.161 50.56 7.155 57.026 7.155 49.507 28.018zM73.754 15.275c-.489-2.143-2.368-3.572-4.774-3.572-2.255 0-4.21 1.353-4.699 3.572h9.473zm-9.548 4.21c.338 2.368 2.33 3.947 4.887 3.947 1.691 0 2.782-.64 3.797-1.955h6.39c-1.992 4.548-5.789 7.217-10.187 7.217-6.015 0-11.052-4.849-11.052-11.051 0-6.015 4.812-11.203 10.94-11.203 6.24 0 11.013 4.925 11.013 11.39 0 .602-.037 1.09-.15 1.655H64.206z" transform="translate(-56 -18) translate(56 18)"/>
                <g transform="translate(-56 -18) translate(56 18) translate(24.662 5.317)">
                    <mask id="fbnq11n0qd" fill="#fff">
                        <use xlink:href="#h46jtn946c"/>
                    </mask>
                    <path fill="#5432F6" d="M15.086 25.134c0 1.954-1.584 3.538-3.538 3.538-1.954 0-3.538-1.584-3.538-3.538 0-1.954 1.584-3.538 3.538-3.538 1.954 0 3.538 1.584 3.538 3.538zM5.93.118l7.016 19.647-5.877 2.099L.052 2.216 5.93.118z" mask="url(#fbnq11n0qd)"/>
                </g>
            </g>
        </g>
    </g>
</svg>
