<svg xmlns="http://www.w3.org/2000/svg" xmlns:xlink="http://www.w3.org/1999/xlink" width="153" height="179" viewBox="0 0 153 179">
    <defs>
        <path id="lhkrj6188c" d="M0 0.158L64.517 0.158 64.517 131.563 0 131.563z"/>
        <path id="02kgmvbg8e" d="M0 0L38.182 0 38.182 25.455 0 25.455z"/>
        <path id="3t48iqkulg" d="M0.559 0.206L31.468 0.206 31.468 19.297 0.559 19.297z"/>
        <path id="ucwjiro3gi" d="M0.441 0.645L24.986 0.645 24.986 16.1 0.441 16.1z"/>
        <path id="80sps6qgkk" d="M0.306 0.574L19.397 0.574 19.397 12.393 0.306 12.393z"/>
        <ellipse id="ve5ovcbhba" cx="75.455" cy="89.263" rx="75.455" ry="88.675"/>
    </defs>
    <g fill="none" fill-rule="evenodd">
        <g>
            <g>
                <g transform="translate(-644 -109) translate(644.545 109.455)">
                    <circle cx="75.455" cy="102.484" r="75.455" fill="#5432F6"/>
                    <g>
                        <mask id="lopa72q6cb" fill="#fff">
                            <use xlink:href="#ve5ovcbhba"/>
                        </mask>
                        <g mask="url(#lopa72q6cb)">
                            <g>
                                <path fill="#F69A91" d="M47.304 128.42L50.13 152.833 14.354 152.833 17.948 129.29z" transform="translate(42.314 .645)"/>
                                <g>
                                    <path fill="#3A3A3C" d="M28.425 198.632l2.383-12.108c.178-.901 1.54-.926 1.754-.031l2.902 12.139h27.1c-1.726-12.42-3.37-20.992-3.37-20.992-3.25-15.976-9.064-24.977-9.064-24.977H14.354c-6.882 10.635-8.849 24.977-8.849 24.977 0 .001-1.826 8.585-3.89 20.992h26.81z" transform="translate(42.314 .645) translate(0 .17)"/>
                                    <path fill="#2C2B3C" d="M39.306 59.382s11.216 6.183 2.715 17.872l-3.19-.611 1.105-6.75-.63-10.51z" transform="translate(42.314 .645) translate(0 .17)"/>
                                    <path fill="#F69A91" d="M33.108 95.288c-2.857.366-5.484-.133-6.991-3.277l1.516-19.117 8.18 4.45c.06.168.167.919.3 2 .051.42.104.886.162 1.392.07.586.139 1.222.208 1.884.03.256.057.517.085.783l.044.41c.025.238.051.476.074.716.184 1.752.36 5.511.5 6.924.162 1.616-2.771 3.67-4.078 3.835" transform="translate(42.314 .645) translate(0 .17)"/>
                                    <path fill="#F69A91" d="M43.944 78.194c-.65 2.332-3.402 3.182-5.231 2.264-2.22 2.97-6.054 4.546-9.376 3.832-2.07-.444-3.85-1.715-5.143-3.469-1.697.411-3.522.497-4.901-.822-1.213-1.163-1.687-3.12-1.004-4.852.598-1.517 1.984-2.517 3.37-2.74.126-.02.248-.032.372-.039 1.247-10.724 15.261-12.935 17.905-2.474.165.655.745 1.872.756 3.968 1.997-.085 3.969 1.763 3.252 4.332" transform="translate(42.314 .645) translate(0 .17)"/>
                                    <path fill="#2C2B3C" d="M28.177 72.118c-.946-.469-1.75 1.196-.799 1.667.947.47 1.75-1.195.8-1.667M35.002 72.495c-.946-.469-1.75 1.196-.799 1.667.946.47 1.751-1.196.8-1.667M42.674 77.184c-.224-1.135-1.465-1.672-2.336-1.08-.36.244-.065.884.294.64.482-.327 1.188-.097 1.39.51.25.755-.51 1.555-1.147 1.402-.397-.095-.585.615-.185.71 1.058.254 2.238-.894 1.984-2.182M22.03 77.628c-.533.207-1.201-.067-1.353-.725-.164-.715.517-1.424 1.113-1.26.396.108.583-.602.185-.711-.981-.27-2.053.736-1.954 1.929.096 1.15 1.218 1.84 2.148 1.479.391-.153.254-.865-.139-.712M28.57 69.35c-.919-.091-1.766.296-2.417 1.048-.348.402.259.908.604.509.452-.522 1.085-.762 1.71-.7.489.048.593-.81.103-.858M36.65 71.031c-.714-.77-1.657-1.189-2.66-1.185-.487.001-.595.859-.102.857.891-.003 1.657.34 2.29 1.024.35.377.818-.322.471-.696" transform="translate(42.314 .645) translate(0 .17)"/>
                                    <path fill="#2C2B3C" d="M21.715 71.817c.027.253.131.552.301.552h.014c.07.094.253-.058.4-.103 2.412-.733 3.55-3.614 4.976-5.662.832-1.196 1.76-1.976 3.011-2.524.79-.346 1.583-.254 2.166-.94.447.771 1.26.811 1.973 1.281 1.132.745 1.903 1.664 2.504 2.978 1.027 2.25 1.39 5.347 3.632 6.463.09.045.197.04.3.002.207-.075.4-.277.41-.456.108-.026.21-.103.272-.246.496-1.154.574-2.404.486-3.646-.08-1.17-.195-2.472-.582-3.56-.807-2.262-2.92-3.282-4.787-4.16-1.09-.513-2.206-1.01-3.39-1.2-1.123-.183-2.187.02-3.273.401-1.17.413-2.336.862-3.477 1.374-1.031.46-2.152.934-2.984 1.805-1.755 1.836-2.211 5.145-1.952 7.64" transform="translate(42.314 .645) translate(0 .17)"/>
                                    <path fill="#2C2B3C" d="M31.108 72.089c-.123.795-.412 1.506-.86 2.145-.245.347.23.747.473.4.515-.731.842-1.567.982-2.476.067-.432-.529-.501-.595-.07M26.666 76.95c2.03 2.541 5.26 2.963 7.885 1.073.345-.248.618.379.275.625-2.857 2.057-6.433 1.537-8.63-1.213-.267-.333.204-.817.47-.484M36.568 83.403c-.932.68-1.948 1.188-3.035 1.52-.395.121-.521-.568-.13-.687.986-.3 2.117-.922 3.08-1.616.03.256.058.517.085.783" transform="translate(42.314 .645) translate(0 .17)"/>
                                    <path fill="#2C2B3C" d="M21.659 72.407s-2.91-14.519 11.506-14.519c13.154 0 11.604 14.748 7.827 15.976l-3.529-9.602-7.335-3.265-8.47 11.41z" transform="translate(42.314 .645) translate(0 .17)"/>
                                    <path fill="#2C2B3C" d="M59.807 63.448c-4.246-.69-6.744-.965-7.362-4.066-.575-2.889-4.122-4.473-6.443-6.375-2.116-1.735-4.994-2.692-7.727-2.13-2.662.55-4.944 2.485-5.719 5.088-.035.117-.46 4.018 1.697 5.103 2.895 1.456 5.347 3.065 7.328 5.608-.024.052-.037.112-.029.183.41 3.664 2.667 6.857 5.988 8.504.219.109.54-.1.482-.354l-.136-.591c1.689 1.45 4.355 1.615 6.177.195.214-.166.158-.599-.155-.613-1.12-.053-1.958-.772-2.156-1.816 1.27-.035 2.388-.625 3.11-1.715.14-.212 5.218-6.977 4.945-7.021" transform="translate(42.314 .645) translate(0 .17)"/>
                                    <path fill="#8D5690" d="M37.673 58.865c-1.508-1.115-3.318-1.614-5.19-1.435-.439.042-.443.729 0 .687 1.772-.17 3.414.287 4.84 1.341.358.265.703-.332.35-.593" transform="translate(42.314 .645) translate(0 .17)"/>
                                    <path fill="#2C2B3C" d="M32.973 145.714c-.397-.342-.985-.372-1.428-.101-.378.232-.031.826.35.593.464-.284.917.158.728.634-.162.412.507.59.668.183.176-.445.048-.994-.318-1.31" transform="translate(42.314 .645) translate(0 .17)"/>
                                    <g transform="translate(42.314 .645) translate(0 .17)">
                                        <mask id="zzhyv5trjd" fill="#fff">
                                            <use xlink:href="#lhkrj6188c"/>
                                        </mask>
                                        <path fill="#F69A91" d="M64.496 67.21c-.833 12.328-17.192 61.04-17.192 61.04s-7.103 6.866-27.972.829c0 0-17.567-35.228-19.277-59.233-.282-3.96.517-8.537 2.546-11.958 4.822-8.132 14.981-22.4 27.762-34.813 0 0 .675-20.413 4.227-22.684 3.55-2.271-.2 12.8.704 14.735.904 1.937 3.479 10.011-.94 15.256 0 0-9.331 23.096-22.354 33.379 0 0 6.41 20.7 10.403 28.004 0 0 14.82 1.095 19.667-.913 0 0 7.019-18.44 9.895-27.418 0 0-14.4-23.853-15.043-33.11 0 0-5.36-3.869-1.628-15.198 0 0-2.882-14.638 1.628-14.968 1.555-.113 1.561 10.04 4.185 22.094 0 0 24.221 32.632 23.389 44.959" mask="url(#zzhyv5trjd)"/>
                                    </g>
                                    <path fill="#2C2B3C" d="M57.138 63.256c-1.114.22-2.227.1-3.258-.38-.405-.188-.784.402-.373.592 1.209.563 2.478.728 3.79.468.446-.088.286-.769-.159-.68M10.474 62.765c-1.032.492-2.115.711-3.258.669-.453-.017-.476.681-.021.698 1.26.047 2.47-.207 3.606-.748.41-.195.081-.813-.327-.619M36.04 2.444c-.035-.443-.74-.47-.705-.02.291 3.785.094 7.58-.608 11.312-.082.437.592.642.676.2.713-3.794.932-7.643.636-11.492M35.388 16.32c-.166-.419-.788-.09-.624.325 1.19 3.002 1.392 6.275.596 9.4-.11.435.564.638.675.2.844-3.315.614-6.745-.647-9.925M34.443 1.523c-.556 1.493-.842 3.036-.863 4.626-.006.449.698.472.704.02.02-1.534.298-3.007.834-4.446.157-.422-.518-.62-.675-.2M33.002 1.764c-.506 1.599-.785 3.234-.84 4.909-.014.449.69.471.705.02.052-1.617.322-3.186.81-4.73.136-.428-.539-.63-.675-.2M37.003.895c-.1-.44-.786-.283-.686.157.351 1.547.602 3.109.745 4.689.04.442.745.469.704.02-.148-1.64-.399-3.26-.763-4.866M38.05.78c-.147-.421-.835-.268-.687.157.567 1.637.94 3.314 1.098 5.038.04.441.745.468.704.02-.164-1.784-.529-3.52-1.116-5.215" transform="translate(42.314 .645) translate(0 .17)"/>
                                    <path fill="#5DAEE5" d="M42.07 90.852l-1.896.549s-.074 10.027-8.153 9.222c-8.078-.805-7.657-8.74-7.657-8.74l-2.184-1.031s-7.546 16.279-8.749 19.743c-1.164 3.352-1.693 6.033-.004 10.397l4.746 10.694h28.851l5.186-12.268c2.068-10.831-10.14-28.566-10.14-28.566" transform="translate(42.314 .645) translate(0 .17)"/>
                                    <path fill="#5DAEE5" d="M47.039 135.098l-28.803-.112c-.621-.002-1.124-.477-1.124-1.063v-6.047l31.06 1.096v5.063c0 .589-.508 1.065-1.133 1.063" transform="translate(42.314 .645) translate(0 .17)"/>
                                    <path fill="#2C2B3C" d="M49.865 119.412c-4.917 3.44-11.07.964-16.484.647-2.908-.17-5.531.601-8.331 1.24-2.752.628-5.962.843-8.163-1.242-.322-.305-.813.18-.49.486 1.798 1.703 4.32 2.087 6.716 1.803 3.344-.396 6.415-1.752 9.838-1.621 5.691.217 12.085 2.902 17.264-.72.361-.252.016-.848-.35-.593M19.82 132.06l-.307-1.984c-.068-.436-.735-.25-.668.182l.308 1.985c.067.435.734.25.667-.183M20.833 130.167v2.137c0 .442.692.443.692 0v-2.137c0-.442-.692-.443-.692 0M43.654 129.841c-.352.617-.527 1.296-.51 2.005.012.441.704.443.693 0-.015-.592.12-1.142.415-1.658.22-.386-.378-.732-.598-.347M45.512 130.328c-.145-.084-.4-.048-.474.123l-.461 1.069c-.074.17-.051.368.124.47.146.085.4.048.474-.123.153-.357.308-.713.462-1.068.073-.17.05-.369-.125-.47M41.195 131.391l-.156-1.373c-.049-.435-.742-.44-.692 0l.155 1.373c.05.434.742.44.693 0" transform="translate(42.314 .645) translate(0 .17)"/>
                                </g>
                            </g>
                        </g>
                    </g>
                </g>
                <g transform="translate(-644 -109) translate(644.545 109.455) translate(112.727 42.727)">
                    <mask id="fkvhk6207f" fill="#fff">
                        <use xlink:href="#02kgmvbg8e"/>
                    </mask>
                    <path fill="#44A4D8" d="M0 22.06l7.442 3.395s2.912-10.522 10.355-11.88c7.442-1.357 16.502 2.037 20.385-10.86L31.387 0s-.971 5.09-7.442 6.448C17.473 7.806 7.766 4.072 0 22.06" mask="url(#fkvhk6207f)"/>
                </g>
                <g transform="translate(-644 -109) translate(644.545 109.455) rotate(75 7.161 18.789)">
                    <mask id="884o4fz43h" fill="#fff">
                        <use xlink:href="#3t48iqkulg"/>
                    </mask>
                    <path fill="#8D5690" d="M.559 16.244l5.96 3.053s2.439-8.224 8.442-8.948c6.003-.724 13.266 2.406 16.507-7.66L26.022.205s-.827 4-6.049 4.77C14.752 5.748 6.97 2.317.56 16.245" mask="url(#884o4fz43h)"/>
                </g>
                <g transform="translate(-644 -109) translate(644.545 109.455) rotate(75 -1.119 130.528)">
                    <mask id="v2193ntltj" fill="#fff">
                        <use xlink:href="#ucwjiro3gi"/>
                    </mask>
                    <path fill="#8D5690" d="M.44 13.628L5.176 16.1s1.936-6.658 6.703-7.244c4.767-.586 10.535 1.947 13.108-6.201L20.662.645s-.657 3.238-4.803 3.862C11.712 5.131 5.533 2.353.44 13.628" mask="url(#v2193ntltj)"/>
                </g>
                <g transform="translate(-644 -109) translate(644.545 109.455) rotate(28 -175.578 81.11)">
                    <mask id="4m9rzx8cxl" fill="#fff">
                        <use xlink:href="#80sps6qgkk"/>
                    </mask>
                    <path fill="#FFF" d="M.306 10.503l3.682 1.89S5.494 7.302 9.2 6.853c3.708-.448 8.194 1.49 10.196-4.742L16.033.574s-.51 2.477-3.736 2.954C9.072 4.005 4.267 1.88.306 10.503" mask="url(#4m9rzx8cxl)"/>
                </g>
            </g>
        </g>
    </g>
</svg>
