<svg xmlns="http://www.w3.org/2000/svg" width="19" height="19" viewBox="0 0 19 19">
    <g fill="none" fill-rule="evenodd" opacity=".506">
        <g fill="#FFF" fill-rule="nonzero">
            <path d="M1414.177 38.396c1.666 0 3.213-.42 4.641-1.26 1.386-.812 2.485-1.911 3.297-3.297.84-1.428 1.26-2.975 1.26-4.641s-.42-3.213-1.26-4.641c-.812-1.386-1.911-2.485-3.297-3.297-1.428-.84-2.975-1.26-4.641-1.26s-3.213.42-4.641 1.26c-1.386.812-2.478 1.911-3.276 3.297-.84 1.428-1.26 2.975-1.26 4.641s.42 3.213 1.26 4.641c.798 1.386 1.89 2.485 3.276 3.297 1.428.84 2.975 1.26 4.641 1.26zm-.083-12.748l-.169.001c-.238 0-.42-.007-.546-.021-.154 0-.343-.014-.567-.042-.056-.322-.084-.668-.084-1.04 0-.37.028-.717.084-1.039.028 0 .077-.007.147-.021.182-.028.315-.042.399-.042.14-.014.326-.021.557-.021.23 0 .416.007.556.021.084 0 .217.014.399.042l.147.021c.042.168.063.343.063.525l.021.504-.021.525c0 .154-.021.329-.063.525-.224.028-.403.046-.535.053-.1.005-.23.008-.388.01zm2.141 9.325h-4.116c-.056-.238-.084-.511-.084-.819 0-.182.007-.322.021-.42 0-.07.014-.175.042-.315l.021-.105h1.008v-4.746h-1.008l-.021-.105c-.028-.14-.042-.245-.042-.315-.014-.098-.021-.238-.021-.42 0-.308.028-.581.084-.819h3.108v6.405h1.008c.042.126.063.266.063.42.014.098.021.238.021.42 0 .308-.028.581-.084.819z" transform="translate(-1405 -20)"/>
        </g>
    </g>
</svg>
