<svg xmlns="http://www.w3.org/2000/svg" xmlns:xlink="http://www.w3.org/1999/xlink" width="13" height="14" viewBox="0 0 13 14">
    <defs>
        <path id="zv8hd5oxka" d="M4.278 14.002c-.296 0-.535-.261-.535-.583 0-.323.24-.584.535-.584H5.88v-1.173c-.3-.041-.6-.118-.893-.231l-.203-.085C3.173 10.62 2.126 8.9 2.14 7.002V5.835c0-.322.24-.583.535-.583.295 0 .534.261.534.583v1.171c-.01 1.427.776 2.717 1.985 3.261.347.156.71.242 1.07.26l.067-.017.087-.008c.052 0 .103.008.151.024.614-.03 1.214-.254 1.723-.653l-.789-.862c-.57.366-1.274.43-1.904.145-.798-.36-1.32-1.21-1.32-2.154l-.001-1.509L.157.998C-.03.795-.05.48.095.254L.157.173c.208-.228.547-.228.756 0l8.449 9.214c.036.023.07.052.102.086.036.037.065.079.088.123l3.125 3.41c.209.228.209.597 0 .825-.21.228-.548.228-.756 0l-2.866-3.126c-.616.527-1.345.852-2.104.957v1.173h1.605c.265 0 .486.212.527.489l.007.095c0 .322-.24.583-.534.583zm5.882-8.75c.295 0 .534.261.534.583v1.167c0 .275-.022.55-.067.82-.052.318-.33.528-.62.472-.291-.057-.485-.36-.432-.678.033-.203.05-.408.05-.614V5.835c0-.322.24-.583.535-.583zM5.347 6.66v.341c0 .472.261.897.66 1.077.222.1.462.114.684.05L5.347 6.66zM6.483.001l.149.01c1.093.121 1.925 1.126 1.924 2.324V5.45c0 .322-.24.584-.535.584-.295 0-.535-.262-.535-.584V2.335c0-.6-.415-1.102-.962-1.162-.547-.06-1.046.34-1.155.928-.06.316-.341.52-.63.456-.29-.064-.477-.372-.418-.688C4.539.694 5.538-.109 6.63.012z"/>
    </defs>
    <g fill="none" fill-rule="evenodd">
        <g>
            <g transform="translate(-983 -22) translate(983 22)">
                <use fill="#FFF" fill-rule="nonzero" xlink:href="#zv8hd5oxka"/>
            </g>
        </g>
    </g>
</svg>
