<?xml version="1.0" encoding="UTF-8"?>
<svg width="28px" height="28px" viewBox="0 0 28 28" version="1.1" xmlns="http://www.w3.org/2000/svg" xmlns:xlink="http://www.w3.org/1999/xlink">
    <title>user</title>
    <defs>
        <circle id="path-1" cx="14" cy="14" r="14"></circle>
    </defs>
    <g id="Page-1" stroke="none" stroke-width="1" fill="none" fill-rule="evenodd">
        <g id="dive-1-copy-19" transform="translate(-1204.000000, -656.000000)">
            <g id="user" transform="translate(1204.000000, 656.000000)">
                <mask id="mask-2" fill="white">
                    <use xlink:href="#path-1"></use>
                </mask>
                <use id="Mask" fill="#E9BDFF" xlink:href="#path-1"></use>
                <g mask="url(#mask-2)" fill="#FFFFFF" fill-rule="nonzero" id="Path">
                    <g transform="translate(5.000000, 7.000000)">
                        <path d="M8.84656102,10.372408 C10.2715391,10.372408 11.5054578,9.86132814 12.5136536,8.85296801 C13.5218494,7.8447722 14.0329293,6.61118211 14.0329293,5.18603972 C14.0329293,3.76139019 13.5218494,2.52763579 12.5134894,1.51911143 C11.5051292,0.511079888 10.2713749,-5.38236122e-13 8.84656102,-5.38236122e-13 C7.42141867,-5.38236122e-13 6.18782854,0.511079888 5.17963273,1.5192757 C4.17143692,2.52747151 3.66019276,3.76122592 3.66019276,5.18603972 C3.66019276,6.61118211 4.17143692,7.84493647 5.179797,8.85313228 C6.18815713,9.86116382 7.42191149,10.372408 8.84656102,10.372408 Z"></path>
                        <path d="M17.9213091,16.5576081 C17.8922313,16.138033 17.8334185,15.6803446 17.7468422,15.1970283 C17.6594444,14.7100979 17.5469115,14.249781 17.4122007,13.8290559 C17.2730542,13.3942027 17.0838019,12.9647708 16.8498649,12.5532455 C16.6070568,12.1261135 16.321864,11.75418 16.0018436,11.4481236 C15.6672021,11.1279388 15.2574839,10.8705096 14.783696,10.6827358 C14.3115508,10.4959477 13.7883141,10.4013215 13.2286069,10.4013215 C13.0087982,10.4013215 12.7962179,10.4915121 12.3856783,10.7587982 C12.1330133,10.9235726 11.8374708,11.1141392 11.5075935,11.3249124 C11.2255221,11.5046364 10.8434032,11.673025 10.3714223,11.8254783 C9.91094114,11.9744816 9.44339589,12.0500511 8.98192901,12.0500511 C8.52046217,12.0500511 8.05308119,11.9744816 7.59210721,11.8254783 C7.12061916,11.6731893 6.73850027,11.5048007 6.45675746,11.3250767 C6.13000144,11.1162748 5.83429466,10.9257082 5.57785119,10.7586339 C5.16780446,10.4913479 4.95505985,10.4011573 4.73525117,10.4011573 C4.17537967,10.4011573 3.65230724,10.4959477 3.18032638,10.6829001 C2.70686696,10.8703453 2.29698454,11.1277745 1.96201447,11.4482878 C1.64215829,11.7545086 1.35680127,12.1262778 1.11432171,12.5532455 C0.880549065,12.9647708 0.691296729,13.3940384 0.551985981,13.8292202 C0.417439388,14.2499452 0.304906542,14.7100979 0.217508762,15.1970283 C0.130932379,15.6796875 0.0721196075,16.1375402 0.043041785,16.5581009 C0.0144567757,16.970119 2.59348099e-13,17.3977439 2.59348099e-13,17.8296401 C2.59348099e-13,18.9536543 0.357312364,19.8636098 1.06191589,20.5346999 C1.7578125,21.1969188 2.67861053,21.5328746 3.79835352,21.5328746 L14.1664902,21.5328746 C15.2862332,21.5328746 16.2067027,21.1970831 16.9027636,20.5346999 C17.6075314,19.8641027 17.9648437,18.9539829 17.9648437,17.8294757 C17.9648437,17.3956082 17.9500584,16.9676548 17.9213091,16.5576081 L17.9213091,16.5576081 Z"></path>
                    </g>
                </g>
            </g>
        </g>
    </g>
</svg>